<svg width="275" height="284" viewBox="0 0 275 284" fill="none" xmlns="http://www.w3.org/2000/svg">
<path d="M46.4096 3.5958C47.6467 -0.627157 53.3427 -1.30836 55.5404 2.50386L98.8149 77.5776C114.753 76.2842 131.576 77.7068 148.446 82.2271C164.935 86.6451 179.905 93.6025 192.857 102.401L267.429 59.2793C271.238 57.0769 275.83 60.5144 274.79 64.7901L244.643 188.719C244.57 189.023 244.468 189.31 244.347 189.582C244.411 197.131 243.481 204.721 241.468 212.233C226.959 266.379 161.789 295.963 95.906 278.31C30.0231 260.657 -11.624 202.451 2.88427 148.304C4.70648 141.504 7.32759 135.09 10.6491 129.109C10.3003 128.157 10.2355 127.08 10.5535 125.995L46.4096 3.5958Z" fill="url(#paint0_radial_4433_83543)" fill-opacity="0.6"/>
<defs>
<radialGradient id="paint0_radial_4433_83543" cx="0" cy="0" r="1" gradientUnits="userSpaceOnUse" gradientTransform="translate(129.221 153.978) rotate(105) scale(128.718 123.5)">
<stop stop-color="white" stop-opacity="0"/>
<stop offset="1" stop-color="white"/>
</radialGradient>
</defs>
</svg>
