<svg width="333" height="239" viewBox="0 0 333 239" fill="none" xmlns="http://www.w3.org/2000/svg">
<path d="M106.07 6.9215C137.409 -3.51413 169.678 -1.75766 197.124 9.55491C201.772 5.13858 209.997 1.2349 220.512 2.83553C231.563 4.51803 244.884 12.2356 259.134 31.2478C276.76 54.764 300.211 86.2707 315.835 114.724C323.641 128.939 329.558 142.505 331.78 153.999C333.996 165.465 332.6 175.304 325.145 181.44C318.075 187.259 310.484 189.869 302.905 189.783C295.346 189.697 287.916 186.932 281.126 182.201C272.81 176.408 265.384 167.624 259.729 156.977C246.322 189.786 218.091 217.341 180.325 229.917C143.532 242.168 105.459 237.617 75.4118 220.524C76.5808 231.055 75.7358 241.12 72.8964 249.704C70.2974 257.562 66.0085 264.229 60.01 268.829C53.9957 273.441 46.3551 275.903 37.2084 275.484C27.5634 275.043 20.5468 268.005 15.4467 257.499C10.3345 246.968 6.93743 232.563 4.66292 216.506C0.110417 184.366 -0.00862888 145.09 0.00048252 115.701C0.00789762 91.9413 6.04343 77.7783 13.8796 69.8065C21.2062 62.3533 29.95 60.4781 36.2928 61.1255C51.5852 36.7597 75.7568 17.0155 106.07 6.9215Z" fill="url(#paint0_radial_4433_83547)" fill-opacity="0.6"/>
<defs>
<radialGradient id="paint0_radial_4433_83547" cx="0" cy="0" r="1" gradientUnits="userSpaceOnUse" gradientTransform="translate(144.776 119.148) rotate(71.5828) scale(118.707 167.052)">
<stop stop-color="white" stop-opacity="0"/>
<stop offset="1" stop-color="white"/>
</radialGradient>
</defs>
</svg>
