<svg width="175" height="60" viewBox="0 0 175 60" fill="none" xmlns="http://www.w3.org/2000/svg">
<mask id="path-1-inside-1_4433_83330" fill="white">
<path d="M175 41.9045H174.994C174.468 51.8099 135.497 59.8059 87.5 59.8059C39.5026 59.8059 0.531832 51.8099 0.00585938 41.9045H0V18.3079H175V41.9045Z"/>
</mask>
<path d="M175 41.9045H174.994C174.468 51.8099 135.497 59.8059 87.5 59.8059C39.5026 59.8059 0.531832 51.8099 0.00585938 41.9045H0V18.3079H175V41.9045Z" fill="#CAD2F5"/>
<path d="M175 41.9045V44.9045H178V41.9045H175ZM174.994 41.9045V38.9045H172.149L171.998 41.7455L174.994 41.9045ZM87.5 59.8059V62.8059V62.8059V59.8059ZM0.00585938 41.9045L3.00164 41.7455L2.85079 38.9045H0.00585938V41.9045ZM0 41.9045H-3V44.9045H0V41.9045ZM0 18.3079V15.3079H-3V18.3079H0ZM175 18.3079H178V15.3079H175V18.3079ZM175 41.9045V38.9045H174.994V41.9045V44.9045H175V41.9045ZM174.994 41.9045L171.998 41.7455C171.987 41.9602 171.86 42.4999 170.97 43.3582C170.08 44.2166 168.641 45.1768 166.556 46.1743C162.397 48.1644 156.249 50.0331 148.447 51.6307C132.889 54.8166 111.358 56.8059 87.5 56.8059V59.8059V62.8059C111.639 62.8059 133.592 60.7972 149.651 57.5087C157.657 55.8691 164.35 53.8816 169.146 51.5866C171.539 50.4416 173.605 49.1519 175.135 47.6771C176.664 46.2022 177.87 44.3252 177.99 42.0636L174.994 41.9045ZM87.5 59.8059V56.8059C63.6417 56.8059 42.1105 54.8166 26.553 51.6307C18.7515 50.0331 12.6027 48.1644 8.44402 46.1743C6.35936 45.1768 4.92033 44.2166 4.03026 43.3582C3.1402 42.4999 3.01304 41.9602 3.00164 41.7455L0.00585938 41.9045L-2.98992 42.0636C-2.86983 44.3252 -1.66409 46.2022 -0.134785 47.6771C1.39452 49.1519 3.46135 50.4416 5.85412 51.5866C10.6503 53.8817 17.3427 55.8691 25.3493 57.5087C41.4079 60.7972 63.3609 62.8059 87.5 62.8059V59.8059ZM0.00585938 41.9045V38.9045H0V41.9045V44.9045H0.00585938V41.9045ZM0 41.9045H3V18.3079H0H-3V41.9045H0ZM0 18.3079V21.3079H175V18.3079V15.3079H0V18.3079ZM175 18.3079H172V41.9045H175H178V18.3079H175Z" fill="#4E56C0" mask="url(#path-1-inside-1_4433_83330)"/>
<path d="M87.5 1.5C111.592 1.5 133.361 3.52146 149.068 6.77148C156.934 8.39903 163.201 10.3195 167.465 12.4053C169.6 13.4497 171.155 14.4983 172.156 15.5107C173.153 16.5185 173.5 17.3814 173.5 18.1045C173.5 18.8275 173.153 19.6905 172.156 20.6982C171.155 21.7107 169.6 22.7603 167.465 23.8047C163.201 25.8905 156.934 27.81 149.068 29.4375C133.361 32.6875 111.592 34.709 87.5 34.709C63.4079 34.709 41.6391 32.6875 25.9316 29.4375C18.0658 27.81 11.799 25.8905 7.53516 23.8047C5.40013 22.7603 3.8451 21.7107 2.84375 20.6982C1.84719 19.6905 1.5 18.8275 1.5 18.1045C1.50001 17.3814 1.84718 16.5185 2.84375 15.5107C3.84505 14.4983 5.40029 13.4497 7.53516 12.4053C11.799 10.3195 18.0657 8.39903 25.9316 6.77148C41.6391 3.52146 63.4079 1.5 87.5 1.5Z" fill="white" stroke="#4E56C0" stroke-width="3"/>
</svg>
