<svg width="92" height="112" viewBox="0 0 92 112" fill="none" xmlns="http://www.w3.org/2000/svg">
<g clip-path="url(#paint0_diamond_4433_83538_clip_path)" data-figma-skip-parse="true"><g transform="matrix(0.0102389 0.0558779 -0.0558779 0.0102389 36.1168 55.8778)"><rect x="0" y="0" width="1017.6" height="1017.6" fill="url(#paint0_diamond_4433_83538)" opacity="0.6" shape-rendering="crispEdges"/><rect x="0" y="0" width="1017.6" height="1017.6" transform="scale(1 -1)" fill="url(#paint0_diamond_4433_83538)" opacity="0.6" shape-rendering="crispEdges"/><rect x="0" y="0" width="1017.6" height="1017.6" transform="scale(-1 1)" fill="url(#paint0_diamond_4433_83538)" opacity="0.6" shape-rendering="crispEdges"/><rect x="0" y="0" width="1017.6" height="1017.6" transform="scale(-1)" fill="url(#paint0_diamond_4433_83538)" opacity="0.6" shape-rendering="crispEdges"/></g></g><path d="M25.8779 -9.65591e-05L48.4435 38.0203L91.9947 45.639L53.9743 68.2045L46.3557 111.756L23.7901 73.7354L-19.7611 66.1167L18.2593 43.5511L25.8779 -9.65591e-05Z" data-figma-gradient-fill="{&#34;type&#34;:&#34;GRADIENT_DIAMOND&#34;,&#34;stops&#34;:[{&#34;color&#34;:{&#34;r&#34;:1.0,&#34;g&#34;:1.0,&#34;b&#34;:1.0,&#34;a&#34;:0.0},&#34;position&#34;:0.0},{&#34;color&#34;:{&#34;r&#34;:1.0,&#34;g&#34;:1.0,&#34;b&#34;:1.0,&#34;a&#34;:1.0},&#34;position&#34;:1.0}],&#34;stopsVar&#34;:[{&#34;color&#34;:{&#34;r&#34;:1.0,&#34;g&#34;:1.0,&#34;b&#34;:1.0,&#34;a&#34;:0.0},&#34;position&#34;:0.0},{&#34;color&#34;:{&#34;r&#34;:1.0,&#34;g&#34;:1.0,&#34;b&#34;:1.0,&#34;a&#34;:1.0},&#34;position&#34;:1.0}],&#34;transform&#34;:{&#34;m00&#34;:20.477731704711914,&#34;m01&#34;:-111.75586700439453,&#34;m02&#34;:81.755867004394531,&#34;m10&#34;:111.75586700439453,&#34;m11&#34;:20.477731704711914,&#34;m12&#34;:-10.238962173461914},&#34;opacity&#34;:0.60000002384185791,&#34;blendMode&#34;:&#34;NORMAL&#34;,&#34;visible&#34;:true}"/>
<defs>
<clipPath id="paint0_diamond_4433_83538_clip_path"><path d="M25.8779 -9.65591e-05L48.4435 38.0203L91.9947 45.639L53.9743 68.2045L46.3557 111.756L23.7901 73.7354L-19.7611 66.1167L18.2593 43.5511L25.8779 -9.65591e-05Z"/></clipPath><linearGradient id="paint0_diamond_4433_83538" x1="0" y1="0" x2="500" y2="500" gradientUnits="userSpaceOnUse">
<stop stop-color="white" stop-opacity="0"/>
<stop offset="1" stop-color="white"/>
</linearGradient>
</defs>
</svg>
