<svg width="103" height="103" viewBox="0 0 103 103" fill="none" xmlns="http://www.w3.org/2000/svg">
<g clip-path="url(#paint0_diamond_4433_83542_clip_path)" data-figma-skip-parse="true"><g transform="matrix(0 0.0515 -0.0515 0 51.5 51.5)"><rect x="0" y="0" width="1019.42" height="1019.42" fill="url(#paint0_diamond_4433_83542)" opacity="0.6" shape-rendering="crispEdges"/><rect x="0" y="0" width="1019.42" height="1019.42" transform="scale(1 -1)" fill="url(#paint0_diamond_4433_83542)" opacity="0.6" shape-rendering="crispEdges"/><rect x="0" y="0" width="1019.42" height="1019.42" transform="scale(-1 1)" fill="url(#paint0_diamond_4433_83542)" opacity="0.6" shape-rendering="crispEdges"/><rect x="0" y="0" width="1019.42" height="1019.42" transform="scale(-1)" fill="url(#paint0_diamond_4433_83542)" opacity="0.6" shape-rendering="crispEdges"/></g></g><path d="M51.5 0L65.4097 37.5903L103 51.5L65.4097 65.4097L51.5 103L37.5903 65.4097L0 51.5L37.5903 37.5903L51.5 0Z" data-figma-gradient-fill="{&#34;type&#34;:&#34;GRADIENT_DIAMOND&#34;,&#34;stops&#34;:[{&#34;color&#34;:{&#34;r&#34;:1.0,&#34;g&#34;:1.0,&#34;b&#34;:1.0,&#34;a&#34;:0.0},&#34;position&#34;:0.0},{&#34;color&#34;:{&#34;r&#34;:1.0,&#34;g&#34;:1.0,&#34;b&#34;:1.0,&#34;a&#34;:1.0},&#34;position&#34;:1.0}],&#34;stopsVar&#34;:[{&#34;color&#34;:{&#34;r&#34;:1.0,&#34;g&#34;:1.0,&#34;b&#34;:1.0,&#34;a&#34;:0.0},&#34;position&#34;:0.0},{&#34;color&#34;:{&#34;r&#34;:1.0,&#34;g&#34;:1.0,&#34;b&#34;:1.0,&#34;a&#34;:1.0},&#34;position&#34;:1.0}],&#34;transform&#34;:{&#34;m00&#34;:6.3069310922902674e-15,&#34;m01&#34;:-103.0,&#34;m02&#34;:103.0,&#34;m10&#34;:103.0,&#34;m11&#34;:6.3069310922902674e-15,&#34;m12&#34;:-6.3069310922902674e-15},&#34;opacity&#34;:0.60000002384185791,&#34;blendMode&#34;:&#34;NORMAL&#34;,&#34;visible&#34;:true}"/>
<defs>
<clipPath id="paint0_diamond_4433_83542_clip_path"><path d="M51.5 0L65.4097 37.5903L103 51.5L65.4097 65.4097L51.5 103L37.5903 65.4097L0 51.5L37.5903 37.5903L51.5 0Z"/></clipPath><linearGradient id="paint0_diamond_4433_83542" x1="0" y1="0" x2="500" y2="500" gradientUnits="userSpaceOnUse">
<stop stop-color="white" stop-opacity="0"/>
<stop offset="1" stop-color="white"/>
</linearGradient>
</defs>
</svg>
