<svg width="115" height="115" viewBox="0 0 115 115" fill="none" xmlns="http://www.w3.org/2000/svg">
<g clip-path="url(#paint0_diamond_4460_2_clip_path)" data-figma-skip-parse="true"><g transform="matrix(0.0123707 0.0570849 -0.0570849 0.0123707 57.085 57.0848)"><rect x="0" y="0" width="1017.12" height="1017.12" fill="url(#paint0_diamond_4460_2)" opacity="0.6" shape-rendering="crispEdges"/><rect x="0" y="0" width="1017.12" height="1017.12" transform="scale(1 -1)" fill="url(#paint0_diamond_4460_2)" opacity="0.6" shape-rendering="crispEdges"/><rect x="0" y="0" width="1017.12" height="1017.12" transform="scale(-1 1)" fill="url(#paint0_diamond_4460_2)" opacity="0.6" shape-rendering="crispEdges"/><rect x="0" y="0" width="1017.12" height="1017.12" transform="scale(-1)" fill="url(#paint0_diamond_4460_2)" opacity="0.6" shape-rendering="crispEdges"/></g></g><path d="M44.7143 -0.00012069L69.1619 38.3254L114.17 44.714L75.8443 69.1617L69.4557 114.17L45.0081 75.8441L0.00012069 69.4555L38.3257 45.0079L44.7143 -0.00012069Z" data-figma-gradient-fill="{&#34;type&#34;:&#34;GRADIENT_DIAMOND&#34;,&#34;stops&#34;:[{&#34;color&#34;:{&#34;r&#34;:1.0,&#34;g&#34;:1.0,&#34;b&#34;:1.0,&#34;a&#34;:0.0},&#34;position&#34;:0.0},{&#34;color&#34;:{&#34;r&#34;:1.0,&#34;g&#34;:1.0,&#34;b&#34;:1.0,&#34;a&#34;:1.0},&#34;position&#34;:1.0}],&#34;stopsVar&#34;:[{&#34;color&#34;:{&#34;r&#34;:1.0,&#34;g&#34;:1.0,&#34;b&#34;:1.0,&#34;a&#34;:0.0},&#34;position&#34;:0.0},{&#34;color&#34;:{&#34;r&#34;:1.0,&#34;g&#34;:1.0,&#34;b&#34;:1.0,&#34;a&#34;:1.0},&#34;position&#34;:1.0}],&#34;transform&#34;:{&#34;m00&#34;:24.741453170776367,&#34;m01&#34;:-114.16978454589844,&#34;m02&#34;:101.79917907714844,&#34;m10&#34;:114.16978454589844,&#34;m11&#34;:24.741453170776367,&#34;m12&#34;:-12.370846748352051},&#34;opacity&#34;:0.60000002384185791,&#34;blendMode&#34;:&#34;NORMAL&#34;,&#34;visible&#34;:true}"/>
<defs>
<clipPath id="paint0_diamond_4460_2_clip_path"><path d="M44.7143 -0.00012069L69.1619 38.3254L114.17 44.714L75.8443 69.1617L69.4557 114.17L45.0081 75.8441L0.00012069 69.4555L38.3257 45.0079L44.7143 -0.00012069Z"/></clipPath><linearGradient id="paint0_diamond_4460_2" x1="0" y1="0" x2="500" y2="500" gradientUnits="userSpaceOnUse">
<stop stop-color="white" stop-opacity="0"/>
<stop offset="1" stop-color="white"/>
</linearGradient>
</defs>
</svg>
