<svg width="86" height="103" viewBox="0 0 86 103" fill="none" xmlns="http://www.w3.org/2000/svg">
<g clip-path="url(#paint0_diamond_4433_83540_clip_path)" data-figma-skip-parse="true"><g transform="matrix(-0.00916574 0.0510597 -0.0510597 -0.00916574 51.0594 51.0596)"><rect x="0" y="0" width="1019.28" height="1019.28" fill="url(#paint0_diamond_4433_83540)" opacity="0.6" shape-rendering="crispEdges"/><rect x="0" y="0" width="1019.28" height="1019.28" transform="scale(1 -1)" fill="url(#paint0_diamond_4433_83540)" opacity="0.6" shape-rendering="crispEdges"/><rect x="0" y="0" width="1019.28" height="1019.28" transform="scale(-1 1)" fill="url(#paint0_diamond_4433_83540)" opacity="0.6" shape-rendering="crispEdges"/><rect x="0" y="0" width="1019.28" height="1019.28" transform="scale(-1)" fill="url(#paint0_diamond_4433_83540)" opacity="0.6" shape-rendering="crispEdges"/></g></g><path d="M60.2252 -2.65891e-05L67.3258 39.7445L102.119 60.2254L62.3746 67.3259L41.8937 102.119L34.7931 62.3748L-0.000217552 41.8939L39.7443 34.7933L60.2252 -2.65891e-05Z" data-figma-gradient-fill="{&#34;type&#34;:&#34;GRADIENT_DIAMOND&#34;,&#34;stops&#34;:[{&#34;color&#34;:{&#34;r&#34;:1.0,&#34;g&#34;:1.0,&#34;b&#34;:1.0,&#34;a&#34;:0.0},&#34;position&#34;:0.0},{&#34;color&#34;:{&#34;r&#34;:1.0,&#34;g&#34;:1.0,&#34;b&#34;:1.0,&#34;a&#34;:1.0},&#34;position&#34;:1.0}],&#34;stopsVar&#34;:[{&#34;color&#34;:{&#34;r&#34;:1.0,&#34;g&#34;:1.0,&#34;b&#34;:1.0,&#34;a&#34;:0.0},&#34;position&#34;:0.0},{&#34;color&#34;:{&#34;r&#34;:1.0,&#34;g&#34;:1.0,&#34;b&#34;:1.0,&#34;a&#34;:1.0},&#34;position&#34;:1.0}],&#34;transform&#34;:{&#34;m00&#34;:-18.331489562988281,&#34;m01&#34;:-102.11930847167969,&#34;m02&#34;:111.28483581542969,&#34;m10&#34;:102.11930847167969,&#34;m11&#34;:-18.331489562988281,&#34;m12&#34;:9.1657180786132812},&#34;opacity&#34;:0.60000002384185791,&#34;blendMode&#34;:&#34;NORMAL&#34;,&#34;visible&#34;:true}"/>
<defs>
<clipPath id="paint0_diamond_4433_83540_clip_path"><path d="M60.2252 -2.65891e-05L67.3258 39.7445L102.119 60.2254L62.3746 67.3259L41.8937 102.119L34.7931 62.3748L-0.000217552 41.8939L39.7443 34.7933L60.2252 -2.65891e-05Z"/></clipPath><linearGradient id="paint0_diamond_4433_83540" x1="0" y1="0" x2="500" y2="500" gradientUnits="userSpaceOnUse">
<stop stop-color="white" stop-opacity="0"/>
<stop offset="1" stop-color="white"/>
</linearGradient>
</defs>
</svg>
