<svg width="225" height="213" viewBox="0 0 225 213" fill="none" xmlns="http://www.w3.org/2000/svg">
<g clip-path="url(#paint0_diamond_4433_83537_clip_path)" data-figma-skip-parse="true"><g transform="matrix(-0.0593993 0.102883 -0.102883 -0.0593993 108.528 94.2819)"><rect x="0" y="0" width="1008.42" height="1008.42" fill="url(#paint0_diamond_4433_83537)" opacity="0.6" shape-rendering="crispEdges"/><rect x="0" y="0" width="1008.42" height="1008.42" transform="scale(1 -1)" fill="url(#paint0_diamond_4433_83537)" opacity="0.6" shape-rendering="crispEdges"/><rect x="0" y="0" width="1008.42" height="1008.42" transform="scale(-1 1)" fill="url(#paint0_diamond_4433_83537)" opacity="0.6" shape-rendering="crispEdges"/><rect x="0" y="0" width="1008.42" height="1008.42" transform="scale(-1)" fill="url(#paint0_diamond_4433_83537)" opacity="0.6" shape-rendering="crispEdges"/></g></g><path d="M167.927 -8.60069L149.982 75.8254L224.73 118.982L138.891 128.004L120.946 212.43L85.8392 133.58L-0.000194956 142.602L64.1423 84.8475L29.036 5.99736L103.785 49.1535L167.927 -8.60069Z" data-figma-gradient-fill="{&#34;type&#34;:&#34;GRADIENT_DIAMOND&#34;,&#34;stops&#34;:[{&#34;color&#34;:{&#34;r&#34;:1.0,&#34;g&#34;:1.0,&#34;b&#34;:1.0,&#34;a&#34;:0.0},&#34;position&#34;:0.0},{&#34;color&#34;:{&#34;r&#34;:1.0,&#34;g&#34;:1.0,&#34;b&#34;:1.0,&#34;a&#34;:1.0},&#34;position&#34;:1.0}],&#34;stopsVar&#34;:[{&#34;color&#34;:{&#34;r&#34;:1.0,&#34;g&#34;:1.0,&#34;b&#34;:1.0,&#34;a&#34;:0.0},&#34;position&#34;:0.0},{&#34;color&#34;:{&#34;r&#34;:1.0,&#34;g&#34;:1.0,&#34;b&#34;:1.0,&#34;a&#34;:1.0},&#34;position&#34;:1.0}],&#34;transform&#34;:{&#34;m00&#34;:-118.79862976074219,&#34;m01&#34;:-205.76525878906250,&#34;m02&#34;:270.80969238281250,&#34;m10&#34;:205.76525878906250,&#34;m11&#34;:-118.79862976074219,&#34;m12&#34;:50.798629760742188},&#34;opacity&#34;:0.60000002384185791,&#34;blendMode&#34;:&#34;NORMAL&#34;,&#34;visible&#34;:true}"/>
<defs>
<clipPath id="paint0_diamond_4433_83537_clip_path"><path d="M167.927 -8.60069L149.982 75.8254L224.73 118.982L138.891 128.004L120.946 212.43L85.8392 133.58L-0.000194956 142.602L64.1423 84.8475L29.036 5.99736L103.785 49.1535L167.927 -8.60069Z"/></clipPath><linearGradient id="paint0_diamond_4433_83537" x1="0" y1="0" x2="500" y2="500" gradientUnits="userSpaceOnUse">
<stop stop-color="white" stop-opacity="0"/>
<stop offset="1" stop-color="white"/>
</linearGradient>
</defs>
</svg>
