<svg width="92" height="84" viewBox="0 0 92 84" fill="none" xmlns="http://www.w3.org/2000/svg">
<g clip-path="url(#paint0_diamond_4433_83539_clip_path)" data-figma-skip-parse="true"><g transform="matrix(-0.0120169 0.0459534 -0.0459534 -0.0120169 45.9536 45.9534)"><rect x="0" y="0" width="1021.05" height="1021.05" fill="url(#paint0_diamond_4433_83539)" opacity="0.6" shape-rendering="crispEdges"/><rect x="0" y="0" width="1021.05" height="1021.05" transform="scale(1 -1)" fill="url(#paint0_diamond_4433_83539)" opacity="0.6" shape-rendering="crispEdges"/><rect x="0" y="0" width="1021.05" height="1021.05" transform="scale(-1 1)" fill="url(#paint0_diamond_4433_83539)" opacity="0.6" shape-rendering="crispEdges"/><rect x="0" y="0" width="1021.05" height="1021.05" transform="scale(-1)" fill="url(#paint0_diamond_4433_83539)" opacity="0.6" shape-rendering="crispEdges"/></g></g><path d="M57.9705 4.21101e-05L61.6108 36.7875L91.9069 57.9703L55.1195 61.6106L33.9367 91.9068L30.2963 55.1193L0.000202031 33.9365L36.7876 30.2962L57.9705 4.21101e-05Z" data-figma-gradient-fill="{&#34;type&#34;:&#34;GRADIENT_DIAMOND&#34;,&#34;stops&#34;:[{&#34;color&#34;:{&#34;r&#34;:1.0,&#34;g&#34;:1.0,&#34;b&#34;:1.0,&#34;a&#34;:0.0},&#34;position&#34;:0.0},{&#34;color&#34;:{&#34;r&#34;:1.0,&#34;g&#34;:1.0,&#34;b&#34;:1.0,&#34;a&#34;:1.0},&#34;position&#34;:1.0}],&#34;stopsVar&#34;:[{&#34;color&#34;:{&#34;r&#34;:1.0,&#34;g&#34;:1.0,&#34;b&#34;:1.0,&#34;a&#34;:0.0},&#34;position&#34;:0.0},{&#34;color&#34;:{&#34;r&#34;:1.0,&#34;g&#34;:1.0,&#34;b&#34;:1.0,&#34;a&#34;:1.0},&#34;position&#34;:1.0}],&#34;transform&#34;:{&#34;m00&#34;:-24.033775329589844,&#34;m01&#34;:-91.906745910644531,&#34;m02&#34;:103.92383575439453,&#34;m10&#34;:91.906745910644531,&#34;m11&#34;:-24.033775329589844,&#34;m12&#34;:12.016929626464844},&#34;opacity&#34;:0.60000002384185791,&#34;blendMode&#34;:&#34;NORMAL&#34;,&#34;visible&#34;:true}"/>
<defs>
<clipPath id="paint0_diamond_4433_83539_clip_path"><path d="M57.9705 4.21101e-05L61.6108 36.7875L91.9069 57.9703L55.1195 61.6106L33.9367 91.9068L30.2963 55.1193L0.000202031 33.9365L36.7876 30.2962L57.9705 4.21101e-05Z"/></clipPath><linearGradient id="paint0_diamond_4433_83539" x1="0" y1="0" x2="500" y2="500" gradientUnits="userSpaceOnUse">
<stop stop-color="white" stop-opacity="0"/>
<stop offset="1" stop-color="white"/>
</linearGradient>
</defs>
</svg>
