<svg width="218" height="161" viewBox="0 0 218 161" fill="none" xmlns="http://www.w3.org/2000/svg">
<g clip-path="url(#paint0_diamond_4433_83536_clip_path)" data-figma-skip-parse="true"><g transform="matrix(0.0225597 0.114253 -0.114253 0.0225597 115.632 114.253)"><rect x="0" y="0" width="1008.59" height="1008.59" fill="url(#paint0_diamond_4433_83536)" opacity="0.6" shape-rendering="crispEdges"/><rect x="0" y="0" width="1008.59" height="1008.59" transform="scale(1 -1)" fill="url(#paint0_diamond_4433_83536)" opacity="0.6" shape-rendering="crispEdges"/><rect x="0" y="0" width="1008.59" height="1008.59" transform="scale(-1 1)" fill="url(#paint0_diamond_4433_83536)" opacity="0.6" shape-rendering="crispEdges"/><rect x="0" y="0" width="1008.59" height="1008.59" transform="scale(-1)" fill="url(#paint0_diamond_4433_83536)" opacity="0.6" shape-rendering="crispEdges"/></g></g><path d="M93.0723 9.62841e-05L134.312 73.8818L217.321 57.4912L159.8 119.543L201.039 193.425L124.249 157.893L66.7271 219.945L76.7901 135.934L-0.000116557 100.402L83.0093 84.0117L93.0723 9.62841e-05Z" data-figma-gradient-fill="{&#34;type&#34;:&#34;GRADIENT_DIAMOND&#34;,&#34;stops&#34;:[{&#34;color&#34;:{&#34;r&#34;:1.0,&#34;g&#34;:1.0,&#34;b&#34;:1.0,&#34;a&#34;:0.0},&#34;position&#34;:0.0},{&#34;color&#34;:{&#34;r&#34;:1.0,&#34;g&#34;:1.0,&#34;b&#34;:1.0,&#34;a&#34;:1.0},&#34;position&#34;:1.0}],&#34;stopsVar&#34;:[{&#34;color&#34;:{&#34;r&#34;:1.0,&#34;g&#34;:1.0,&#34;b&#34;:1.0,&#34;a&#34;:0.0},&#34;position&#34;:0.0},{&#34;color&#34;:{&#34;r&#34;:1.0,&#34;g&#34;:1.0,&#34;b&#34;:1.0,&#34;a&#34;:1.0},&#34;position&#34;:1.0}],&#34;transform&#34;:{&#34;m00&#34;:45.119438171386719,&#34;m01&#34;:-228.50538635253906,&#34;m02&#34;:207.32496643066406,&#34;m10&#34;:228.50538635253906,&#34;m11&#34;:45.119438171386719,&#34;m12&#34;:-22.559621810913086},&#34;opacity&#34;:0.60000002384185791,&#34;blendMode&#34;:&#34;NORMAL&#34;,&#34;visible&#34;:true}"/>
<defs>
<clipPath id="paint0_diamond_4433_83536_clip_path"><path d="M93.0723 9.62841e-05L134.312 73.8818L217.321 57.4912L159.8 119.543L201.039 193.425L124.249 157.893L66.7271 219.945L76.7901 135.934L-0.000116557 100.402L83.0093 84.0117L93.0723 9.62841e-05Z"/></clipPath><linearGradient id="paint0_diamond_4433_83536" x1="0" y1="0" x2="500" y2="500" gradientUnits="userSpaceOnUse">
<stop stop-color="white" stop-opacity="0"/>
<stop offset="1" stop-color="white"/>
</linearGradient>
</defs>
</svg>
