<svg width="300" height="300" viewBox="0 0 300 300" fill="none" xmlns="http://www.w3.org/2000/svg">
<path d="M73.1266 195.241C73.1266 195.241 88.4632 193.837 96.7712 201.173C103.177 206.829 118.79 226.817 118.79 226.817C114.896 236.843 96.6159 226.506 88.2793 217.201C82.2095 210.426 73.1266 195.241 73.1266 195.241Z" fill="#F4C38A" stroke="#4E56C0" stroke-width="3" stroke-linejoin="round"/>
<path d="M80.6309 207C76.5686 200.995 73.1266 195.241 73.1266 195.241C73.1266 195.241 80.8328 194.535 88.2793 196.737C88.2793 196.737 88.2793 201 86 204C83.7207 207 80.6309 207 80.6309 207Z" fill="white"/>
<path d="M73.1266 195.241C73.1266 195.241 88.4632 193.837 96.7712 201.173C103.177 206.829 118.79 226.817 118.79 226.817C114.896 236.843 96.6159 226.506 88.2793 217.201C82.2095 210.426 73.1266 195.241 73.1266 195.241Z" stroke="#4E56C0" stroke-width="3" stroke-linejoin="round"/>
<path d="M105.096 226.5C103.896 202.9 114.262 180.333 119.596 172L182.096 170C185.596 174.167 193.296 190.3 196.096 221.5C198.896 252.7 179.929 259.5 170.096 259C163.596 263 158.596 260.5 155.096 259C152.296 257.8 150.262 233.5 149.596 221.5C149.429 232.833 148.396 256.2 145.596 259C142.796 261.8 133.429 260.167 129.096 259C121.096 258.5 106.596 256 105.096 226.5Z" fill="white"/>
<path d="M105.096 226.5C103.896 202.9 114.262 180.333 119.596 172L182.096 170C185.596 174.167 193.296 190.3 196.096 221.5C198.896 252.7 179.929 259.5 170.096 259C163.596 263 158.596 260.5 155.096 259C152.296 257.8 150.262 233.5 149.596 221.5C149.434 232.503 148.455 254.849 145.836 258.704C145.757 258.819 145.677 258.918 145.596 259C142.796 261.8 133.429 260.167 129.096 259C121.096 258.5 106.596 256 105.096 226.5Z" fill="white"/>
<path d="M154.452 258.309C151.986 254.067 150.21 232.56 149.596 221.5C149.434 232.503 148.455 254.849 145.836 258.704C147.61 259.997 153.023 259.738 154.452 258.309Z" fill="white"/>
<path d="M149.596 221.5C150.262 233.5 152.296 257.8 155.096 259C158.596 260.5 163.596 263 170.096 259C179.929 259.5 198.896 252.7 196.096 221.5C193.296 190.3 185.596 174.167 182.096 170L119.596 172C114.262 180.333 103.896 202.9 105.096 226.5C106.596 256 121.096 258.5 129.096 259C133.429 260.167 142.796 261.8 145.596 259C145.677 258.918 145.757 258.819 145.836 258.704M149.596 221.5C149.434 232.503 148.455 254.849 145.836 258.704M149.596 221.5C150.21 232.56 151.986 254.067 154.452 258.309C153.023 259.738 147.61 259.997 145.836 258.704" stroke="#4E56C0" stroke-width="3" stroke-linecap="round"/>
<path d="M125.096 221C126.961 233.032 127.108 257.497 130.771 259.102C135.35 261.107 139.929 262.11 144.508 259.102C148.171 256.695 149.426 232.698 149.596 221" stroke="#4E56C0" stroke-width="3" stroke-linecap="round"/>
<path d="M175.096 221C173.23 233.032 173.084 257.497 169.42 259.102C164.841 261.107 160.262 262.11 155.684 259.102C152.02 256.695 150.765 232.698 150.596 221" stroke="#4E56C0" stroke-width="3" stroke-linecap="round"/>
<path d="M129.096 259C125.096 259.333 115.796 258.1 110.596 250.5C105.396 242.9 105.096 225.667 105.596 218C106.762 205.5 111.096 178.8 119.096 172" stroke="#4E56C0" stroke-width="3" stroke-linecap="round"/>
<path d="M172.596 259C176.596 259.333 185.896 258.1 191.096 250.5C196.296 242.9 196.596 225.667 196.096 218C194.929 205.5 190.596 178.8 182.596 172" stroke="#4E56C0" stroke-width="3" stroke-linecap="round"/>
<path d="M145.596 258.5C147.096 260 152.596 260 154.096 258.5" stroke="#4E56C0" stroke-width="3" stroke-linecap="round"/>
<path d="M119 216C110.907 194.419 129.333 188.5 135 177.5C129.367 176.072 125.291 175.115 120 173C108.5 185.5 104.5 229 108.5 240.5C122 245 122 224 119 216Z" fill="#F4C38A"/>
<path d="M182.95 216C191.043 194.419 171.667 188.5 166 177.5C171.633 176.072 176.209 174.615 181.5 172.5C193 185 197.45 229 193.45 240.5C179.95 245 179.95 224 182.95 216Z" fill="#F4C38A"/>
<path d="M150.5 41.5C190.917 41.5 223.5 72.0411 223.5 109.5C223.5 146.959 190.917 177.5 150.5 177.5C110.083 177.5 77.5 146.959 77.5 109.5C77.5 72.0411 110.083 41.5 150.5 41.5Z" fill="white" stroke="#4E56C0" stroke-width="3"/>
<mask id="mask0_2471_144" style="mask-type:alpha" maskUnits="userSpaceOnUse" x="76" y="40" width="149" height="139">
<path d="M150.5 41.5C190.917 41.5 223.5 72.0411 223.5 109.5C223.5 146.959 190.917 177.5 150.5 177.5C110.083 177.5 77.5 146.959 77.5 109.5C77.5 72.0411 110.083 41.5 150.5 41.5Z" fill="white" stroke="#4E56C0" stroke-width="3"/>
</mask>
<g mask="url(#mask0_2471_144)">
<path d="M142.5 42.0001C90 33.0001 75 80.5336 75 109.5C75 138.467 93.9957 163.294 121 173.733C121 173.733 99.2691 160.45 124 144C148.731 127.55 145.5 71.0001 142.5 42.0001Z" fill="#F4C38A"/>
<path d="M158 42.1158C210.5 33.1158 225.5 80.6493 225.5 109.616C225.5 138.582 206.504 163.41 179.5 173.849C179.5 173.849 201.231 160.565 176.5 144.116C151.769 127.666 155 71.1158 158 42.1158Z" fill="#F4C38A"/>
<path d="M185 158C185 167.941 182 174 150 176C119.5 173.5 115 167.941 115 158C115 148.059 130.67 140 150 140C169.33 140 185 148.059 185 158Z" fill="white"/>
</g>
<path d="M150.5 41.5C190.917 41.5 223.5 72.0411 223.5 109.5C223.5 146.959 190.917 177.5 150.5 177.5C110.083 177.5 77.5 146.959 77.5 109.5C77.5 72.0411 110.083 41.5 150.5 41.5Z" stroke="#4E56C0" stroke-width="3"/>
<path d="M44.6352 124.761C53.423 104.481 66.6352 47.7614 101.826 58.2915C80.8264 71.2915 91.8264 113.292 93.8264 137.792C95.8264 162.292 90.8264 190.761 71.3264 183.261C51.8264 175.761 38.1353 139.761 44.6352 124.761Z" fill="#E5A357" stroke="#4E56C0" stroke-width="3"/>
<path d="M258.191 126C249.403 105.72 236.191 49.0002 201 59.5303C222 72.5303 211 114.53 209 139.03C207 163.53 212 192 231.5 184.5C251 177 264.691 141 258.191 126Z" fill="#E5A357" stroke="#4E56C0" stroke-width="3"/>
<ellipse cx="111.188" cy="125" rx="15.1875" ry="18" fill="white"/>
<ellipse cx="114" cy="125" rx="12.375" ry="18" fill="#4E56C0"/>
<path d="M114.526 113.087C114.74 112.47 115.564 112.356 115.937 112.892L118.203 116.14C118.35 116.35 118.587 116.477 118.843 116.482L122.803 116.564C123.456 116.577 123.819 117.325 123.425 117.846L121.036 121.005C120.881 121.209 120.834 121.474 120.908 121.719L122.054 125.51C122.243 126.135 121.644 126.711 121.027 126.498L117.284 125.202C117.043 125.118 116.776 125.155 116.566 125.301L113.314 127.563C112.778 127.936 112.045 127.544 112.058 126.891L112.134 122.931C112.139 122.675 112.021 122.433 111.817 122.278L108.661 119.885C108.141 119.49 108.287 118.672 108.912 118.482L112.702 117.331C112.946 117.256 113.141 117.069 113.225 116.828L114.526 113.087Z" fill="white"/>
<path d="M114.643 140.727C109.832 141.116 107.053 136.477 105.756 132.541C105.452 131.616 106.547 131.019 107.286 131.654C112.356 136.01 115.933 135.903 121.072 131.34C121.763 130.727 122.814 131.231 122.606 132.131C121.766 135.774 119.511 140.333 114.643 140.727Z" fill="#F4C38A"/>
<circle cx="105.562" cy="126.688" r="1.6875" fill="white"/>
<ellipse cx="190.188" cy="124" rx="15.1875" ry="18" fill="white"/>
<ellipse cx="187.375" cy="124" rx="12.375" ry="18" fill="#4E56C0"/>
<path d="M187.901 110.962C188.115 110.345 188.939 110.231 189.312 110.767L191.578 114.015C191.725 114.225 191.962 114.352 192.218 114.357L196.178 114.439C196.831 114.452 197.194 115.2 196.8 115.721L194.411 118.88C194.256 119.084 194.209 119.349 194.283 119.594L195.429 123.385C195.618 124.01 195.019 124.586 194.402 124.373L190.659 123.077C190.418 122.993 190.151 123.03 189.941 123.176L186.689 125.438C186.153 125.811 185.42 125.419 185.433 124.766L185.509 120.806C185.514 120.55 185.396 120.308 185.192 120.153L182.036 117.76C181.516 117.365 181.662 116.547 182.287 116.357L186.077 115.206C186.321 115.131 186.516 114.944 186.6 114.703L187.901 110.962Z" fill="white"/>
<path d="M188.018 138.602C183.207 138.991 180.428 134.352 179.131 130.416C178.827 129.491 179.922 128.894 180.661 129.529C185.731 133.885 189.308 133.778 194.447 129.215C195.138 128.602 196.189 129.106 195.981 130.006C195.141 133.649 192.886 138.208 188.018 138.602Z" fill="#F4C38A"/>
<circle cx="178.938" cy="124.562" r="1.6875" fill="white"/>
<path d="M151.833 148.413C150.781 149.324 149.219 149.324 148.167 148.413L145.285 145.917C143.325 144.219 144.525 141 147.118 141L152.882 141C155.475 141 156.675 144.219 154.715 145.917L151.833 148.413Z" fill="#4E56C0"/>
<path d="M141 154.861C144.371 158.132 146.889 153.685 149.308 150" stroke="#4E56C0" stroke-width="3" stroke-linecap="round"/>
<path d="M158.308 154.861C154.936 158.132 152.418 153.685 150 150" stroke="#4E56C0" stroke-width="3" stroke-linecap="round"/>
</svg>
