<svg width="300" height="300" viewBox="0 0 300 300" fill="none" xmlns="http://www.w3.org/2000/svg">
<path d="M87.1486 218.423C90.8243 226.369 98.8795 227.649 105 226.826V235.723C73.8875 239.183 81.6714 209.031 70.8273 213.974C62.3169 217.853 55.8379 206.414 66.747 203.594C74.3976 201.617 80.5181 204.089 87.1486 218.423Z" fill="#B4A7CA" stroke="#4E56C0" stroke-width="3" stroke-linecap="round"/>
<path d="M104.5 226.5C103.3 202.9 113.667 180.333 119 172L181.5 170C185 174.167 192.7 190.3 195.5 221.5C198.3 252.7 179.333 259.5 169.5 259C163 263 158 260.5 154.5 259C151.7 257.8 149.667 233.5 149 221.5C148.833 232.833 147.8 256.2 145 259C142.2 261.8 132.833 260.167 128.5 259C120.5 258.5 106 256 104.5 226.5Z" fill="#B4A7CA"/>
<path d="M180.131 167H121.131C121.131 167 93.1151 214.923 110.131 236.5C133 265.5 167.5 268 190.631 236.5C206.877 214.375 180.131 167 180.131 167Z" fill="#B4A7CA"/>
<path d="M124.5 221C126.365 233.032 126.512 257.497 130.175 259.102C134.754 261.107 139.333 262.11 143.912 259.102C147.575 256.695 148.83 232.698 149 221" stroke="#4E56C0" stroke-width="3" stroke-linecap="round"/>
<path d="M174.5 221C172.635 233.032 172.488 257.497 168.825 259.102C164.246 261.107 159.667 262.11 155.088 259.102C151.425 256.695 150.17 232.698 150 221" stroke="#4E56C0" stroke-width="3" stroke-linecap="round"/>
<path d="M128.5 259C124.5 259.333 115.2 258.1 110 250.5C104.8 242.9 104.5 225.667 105 218C106.167 205.5 110.5 178.8 118.5 172" stroke="#4E56C0" stroke-width="3" stroke-linecap="round"/>
<path d="M172 259C176 259.333 185.3 258.1 190.5 250.5C195.7 242.9 196 225.667 195.5 218C194.333 205.5 190 178.8 182 172" stroke="#4E56C0" stroke-width="3" stroke-linecap="round"/>
<path d="M145 258.5C146.5 260 152 260 153.5 258.5" stroke="#4E56C0" stroke-width="3" stroke-linecap="round"/>
<mask id="path-9-outside-1_2509_2" maskUnits="userSpaceOnUse" x="69" y="14" width="162" height="164" fill="black">
<rect fill="white" x="69" y="14" width="162" height="164"/>
<path d="M207.926 19.5796C210.883 16.4387 216.163 18.2654 216.547 22.5621L222.93 94.0152C222.942 94.1511 222.947 94.2862 222.948 94.4195C226.212 100.917 228 107.964 228 115.327C228 147.875 193.078 174.26 150 174.26C106.922 174.26 72 147.875 72 115.327C72.0001 107.683 73.9252 100.378 77.4307 93.6763L83.7842 22.5621C84.168 18.2654 89.4483 16.4387 92.4053 19.5796L129.081 58.5377C135.738 57.1407 142.754 56.3941 150 56.3941C157.346 56.3941 164.455 57.1619 171.194 58.5962L207.926 19.5796Z"/>
</mask>
<path d="M207.926 19.5796C210.883 16.4387 216.163 18.2654 216.547 22.5621L222.93 94.0152C222.942 94.1511 222.947 94.2862 222.948 94.4195C226.212 100.917 228 107.964 228 115.327C228 147.875 193.078 174.26 150 174.26C106.922 174.26 72 147.875 72 115.327C72.0001 107.683 73.9252 100.378 77.4307 93.6763L83.7842 22.5621C84.168 18.2654 89.4483 16.4387 92.4053 19.5796L129.081 58.5377C135.738 57.1407 142.754 56.3941 150 56.3941C157.346 56.3941 164.455 57.1619 171.194 58.5962L207.926 19.5796Z" fill="#B4A7CA"/>
<path d="M207.926 19.5796L210.11 21.636V21.636L207.926 19.5796ZM216.547 22.5621L219.535 22.2951V22.2951L216.547 22.5621ZM222.93 94.0152L219.942 94.2821V94.2821L222.93 94.0152ZM222.948 94.4195L219.948 94.4532L219.956 95.1465L220.267 95.7661L222.948 94.4195ZM228 115.327H231V115.327L228 115.327ZM72 115.327L69 115.327V115.327H72ZM77.4307 93.6763L80.089 95.0667L80.3656 94.5378L80.4188 93.9433L77.4307 93.6763ZM83.7842 22.5621L86.7723 22.829L86.7723 22.829L83.7842 22.5621ZM92.4053 19.5796L94.5896 17.5233L94.5896 17.5233L92.4053 19.5796ZM129.081 58.5377L126.897 60.594L128.05 61.8193L129.697 61.4737L129.081 58.5377ZM171.194 58.5962L170.57 61.5305L172.221 61.882L173.379 60.6526L171.194 58.5962ZM207.926 19.5796L210.11 21.636C211.293 20.3795 213.405 21.1105 213.559 22.829L216.547 22.5621L219.535 22.2951C218.921 15.4202 210.472 12.4979 205.741 17.5233L207.926 19.5796ZM216.547 22.5621L213.559 22.829L219.942 94.2821L222.93 94.0152L225.918 93.7483L219.535 22.2951L216.547 22.5621ZM222.93 94.0152L219.942 94.2821C219.945 94.3161 219.947 94.3687 219.948 94.4532L222.948 94.4195L225.948 94.3858C225.946 94.2036 225.939 93.9861 225.918 93.7483L222.93 94.0152ZM222.948 94.4195L220.267 95.7661C223.335 101.873 225 108.461 225 115.327L228 115.327L231 115.327C231 107.467 229.09 99.9617 225.629 93.0728L222.948 94.4195ZM228 115.327H225C225 130.454 216.892 144.371 203.346 154.605C189.798 164.841 170.948 171.26 150 171.26V174.26V177.26C172.131 177.26 192.28 170.486 206.963 159.393C221.647 148.298 231 132.747 231 115.327H228ZM150 174.26V171.26C129.052 171.26 110.202 164.841 96.6542 154.605C83.1082 144.371 75 130.454 75 115.327H72H69C69 132.747 78.3527 148.298 93.0372 159.393C107.72 170.486 127.869 177.26 150 177.26V174.26ZM72 115.327L75 115.327C75.0001 108.199 76.7928 101.369 80.089 95.0667L77.4307 93.6763L74.7723 92.2859C71.0576 99.3881 69.0001 107.167 69 115.327L72 115.327ZM77.4307 93.6763L80.4188 93.9433L86.7723 22.829L83.7842 22.5621L80.7961 22.2951L74.4426 93.4094L77.4307 93.6763ZM83.7842 22.5621L86.7723 22.829C86.9258 21.1105 89.0381 20.3795 90.2209 21.636L92.4053 19.5796L94.5896 17.5233C89.8586 12.4979 81.4102 15.4202 80.7961 22.2951L83.7842 22.5621ZM92.4053 19.5796L90.2209 21.636L126.897 60.594L129.081 58.5377L131.265 56.4813L94.5896 17.5233L92.4053 19.5796ZM129.081 58.5377L129.697 61.4737C136.151 60.1196 142.959 59.3941 150 59.3941V56.3941V53.3941C142.548 53.3941 135.326 54.1619 128.465 55.6016L129.081 58.5377ZM150 56.3941V59.3941C157.138 59.3941 164.037 60.1401 170.57 61.5305L171.194 58.5962L171.819 55.662C164.873 54.1836 157.555 53.3941 150 53.3941V56.3941ZM171.194 58.5962L173.379 60.6526L210.11 21.636L207.926 19.5796L205.741 17.5233L169.01 56.5399L171.194 58.5962Z" fill="#4E56C0" mask="url(#path-9-outside-1_2509_2)"/>
<ellipse cx="110.188" cy="126" rx="15.1875" ry="18" fill="white"/>
<ellipse cx="113" cy="126" rx="12.375" ry="18" fill="#4E56C0"/>
<path d="M113.526 114.087C113.74 113.47 114.564 113.356 114.937 113.892L117.203 117.14C117.35 117.35 117.587 117.477 117.843 117.482L121.803 117.564C122.456 117.577 122.819 118.325 122.425 118.846L120.036 122.005C119.881 122.209 119.834 122.474 119.908 122.719L121.054 126.51C121.243 127.135 120.644 127.711 120.027 127.498L116.284 126.202C116.043 126.118 115.776 126.155 115.566 126.301L112.314 128.563C111.778 128.936 111.045 128.544 111.058 127.891L111.134 123.931C111.139 123.675 111.021 123.433 110.817 123.278L107.661 120.885C107.141 120.49 107.287 119.672 107.912 119.482L111.702 118.331C111.946 118.256 112.141 118.069 112.225 117.828L113.526 114.087Z" fill="white"/>
<path d="M113.643 141.727C108.832 142.116 106.053 137.477 104.756 133.541C104.452 132.616 105.547 132.019 106.286 132.654C111.356 137.01 114.933 136.903 120.072 132.34C120.763 131.727 121.814 132.231 121.606 133.131C120.766 136.774 118.511 141.333 113.643 141.727Z" fill="#A485D9"/>
<circle cx="104.562" cy="127.688" r="1.6875" fill="white"/>
<ellipse cx="189.188" cy="125" rx="15.1875" ry="18" fill="white"/>
<ellipse cx="186.375" cy="125" rx="12.375" ry="18" fill="#4E56C0"/>
<path d="M186.901 111.962C187.115 111.345 187.939 111.231 188.312 111.767L190.578 115.015C190.725 115.225 190.962 115.352 191.218 115.357L195.178 115.439C195.831 115.452 196.194 116.2 195.8 116.721L193.411 119.88C193.256 120.084 193.209 120.349 193.283 120.594L194.429 124.385C194.618 125.01 194.019 125.586 193.402 125.373L189.659 124.077C189.418 123.993 189.151 124.03 188.941 124.176L185.689 126.438C185.153 126.811 184.42 126.419 184.433 125.766L184.509 121.806C184.514 121.55 184.396 121.308 184.192 121.153L181.036 118.76C180.516 118.365 180.662 117.547 181.287 117.357L185.077 116.206C185.321 116.131 185.516 115.944 185.6 115.703L186.901 111.962Z" fill="white"/>
<path d="M187.018 139.602C182.207 139.991 179.428 135.352 178.131 131.416C177.827 130.491 178.922 129.894 179.661 130.529C184.731 134.885 188.308 134.778 193.447 130.215C194.138 129.602 195.189 130.106 194.981 131.006C194.141 134.649 191.886 139.208 187.018 139.602Z" fill="#A485D9"/>
<circle cx="177.938" cy="125.562" r="1.6875" fill="white"/>
<ellipse cx="150" cy="144" rx="6" ry="3" fill="#4E56C0"/>
<path d="M139 147C143 152.333 147 152.333 150 147" stroke="#4E56C0" stroke-width="3" stroke-linecap="round"/>
<path d="M150 147C154 152.333 158 152.333 161 147" stroke="#4E56C0" stroke-width="3" stroke-linecap="round"/>
<line x1="69.6558" y1="138.674" x2="84.5649" y2="140.323" stroke="#4E56C0" stroke-width="3" stroke-linecap="round"/>
<line x1="72.0238" y1="150.147" x2="86.4322" y2="145.976" stroke="#4E56C0" stroke-width="3" stroke-linecap="round"/>
<line x1="1.5" y1="-1.5" x2="16.5" y2="-1.5" transform="matrix(-0.993942 0.109908 0.109908 0.993942 231.29 140)" stroke="#4E56C0" stroke-width="3" stroke-linecap="round"/>
<line x1="1.5" y1="-1.5" x2="16.5" y2="-1.5" transform="matrix(-0.960565 -0.278055 -0.278055 0.960565 228.29 152.005)" stroke="#4E56C0" stroke-width="3" stroke-linecap="round"/>
<path d="M87 80L90 29L121 61C103.837 65.3033 96.3694 69.4437 87 80Z" fill="#A485D9"/>
<path d="M213 80L210 29L179 61C196.163 65.3033 203.631 69.4437 213 80Z" fill="#A485D9"/>
</svg>
