<svg width="123" height="75" viewBox="0 0 123 75" fill="none" xmlns="http://www.w3.org/2000/svg">
<g clip-path="url(#clip0_2513_32)">
<path d="M60.4917 1.89064C63.0125 1.89066 65.2015 2.46916 66.6938 3.30861C68.2453 4.1813 68.683 5.09114 68.6831 5.67091C68.6831 6.25066 68.2453 7.16046 66.6938 8.03322C65.2015 8.87266 63.0125 9.45214 60.4917 9.45216C57.9708 9.45216 55.7819 8.87268 54.2896 8.03322C52.7379 7.16043 52.3003 6.25068 52.3003 5.67091C52.3004 5.09113 52.7381 4.1813 54.2896 3.30861C55.7819 2.46919 57.9709 1.89064 60.4917 1.89064Z" fill="#B3E7DC" stroke="#4E56C0" stroke-width="3.78072"/>
<path d="M61.2287 7.49844C11.3347 7.49845 7.30098 36.7605 9.84532 51.3233C48.7018 36.6983 71.0117 35.7534 112.054 51.3233C114.784 36.6695 111.123 7.49844 61.2287 7.49844Z" fill="#64C2C5" stroke="#4E56C0" stroke-width="3.78072"/>
<path d="M61.494 8.04772C30.3661 7.72128 22.2118 32.6663 22.0256 45.1796C53.3432 38.9981 70.7977 38.7856 101.707 45.1796C101.273 32.9383 92.622 8.37415 61.494 8.04772Z" fill="#86D4CB"/>
<path d="M9.85759 51.0975C2.09701 63.653 3.39044 68.8844 5.00723 69.9307C9.11137 72.3872 36.7212 57.436 63.025 57.9211C85.2248 58.3306 114.327 71.8413 116.939 70.4766C119.55 69.1119 119.364 63.5165 111.902 50.1422C104.44 36.7679 19.5583 35.4032 9.85759 51.0975Z" fill="#B3E7DC" stroke="#4E56C0" stroke-width="3.78072"/>
</g>
<defs>
<clipPath id="clip0_2513_32">
<rect width="122.243" height="74.7988" fill="white" transform="translate(0 0.201323) rotate(-0.0943608)"/>
</clipPath>
</defs>
</svg>
