<svg width="49" height="49" viewBox="0 0 49 49" fill="none" xmlns="http://www.w3.org/2000/svg">
<circle cx="24.5" cy="24.5" r="24.5" fill="#F5D376"/>
<circle cx="24.5002" cy="24.5" r="20.1765" fill="#EBC761"/>
<circle cx="24.7401" cy="25.2206" r="19.4559" fill="#FFF3D3"/>
<circle cx="24.4999" cy="24.5" r="18.7353" fill="#FFE9AD"/>
<path d="M19.8991 12.9203C20.0547 12.8275 20.3464 12.694 20.5484 12.6229C20.8128 12.5292 21.0128 12.4927 21.2684 12.4908C21.5543 12.4884 21.6757 12.5129 21.9026 12.6171C22.0626 12.6911 22.2846 12.8511 22.4192 12.9894C22.5563 13.1307 22.7343 13.394 22.8436 13.6169C22.947 13.8283 23.0851 14.1852 23.1509 14.4096C23.2163 14.6344 23.3051 15.0235 23.348 15.2743C23.3914 15.5251 23.4514 15.9575 23.4817 16.2352C23.5124 16.5128 23.5397 17.2368 23.5432 17.8446C23.548 18.7646 23.5334 19.0177 23.4573 19.3579C23.407 19.5827 23.3173 19.907 23.2578 20.0785C23.1987 20.25 23.0534 20.5743 22.9353 20.7991C22.8168 21.024 22.5973 21.3588 22.447 21.5438C22.2968 21.7287 22.0333 21.9862 21.8616 22.1155C21.6894 22.2452 21.3952 22.421 21.2074 22.5065C21.0196 22.5921 20.7508 22.6862 20.6098 22.7155C20.4689 22.7448 20.2274 22.7688 20.0732 22.7693C19.9191 22.7693 19.661 22.7463 19.5 22.7179C19.3391 22.6896 19.0264 22.581 18.8049 22.4772C18.5117 22.3398 18.3015 22.1938 18.0302 21.9401C17.8258 21.7484 17.5648 21.4621 17.4507 21.3036C17.3365 21.145 17.1716 20.8746 17.0843 20.703C16.9965 20.5315 16.8731 20.2394 16.8092 20.0545C16.7453 19.8695 16.6624 19.5563 16.6238 19.3579C16.5858 19.1599 16.5399 18.803 16.5219 18.5652C16.5014 18.2971 16.5111 17.9868 16.5482 17.7485C16.5809 17.5371 16.6614 17.1801 16.7267 16.9558C16.7921 16.7314 16.9765 16.288 17.137 15.9709C17.2975 15.6538 17.5765 15.1907 17.757 14.9423C17.9375 14.6935 18.2936 14.2746 18.5488 14.0113C18.8034 13.748 19.1483 13.4324 19.3142 13.3104C19.4805 13.1883 19.7435 13.013 19.8991 12.9203Z" fill="#EBC761"/>
<path d="M26.5916 12.9803C26.7291 12.8415 26.957 12.6753 27.0979 12.6109C27.2887 12.5234 27.4409 12.4927 27.6955 12.4903C27.9331 12.4879 28.1409 12.5215 28.3785 12.6003C28.5663 12.6628 28.7966 12.7526 28.8907 12.8002C28.9849 12.8477 29.2151 12.988 29.4029 13.112C29.5907 13.2364 29.9395 13.5193 30.1781 13.7418C30.4166 13.9637 30.7527 14.3183 30.9249 14.5297C31.0976 14.7411 31.3615 15.1086 31.5123 15.3464C31.6625 15.5842 31.8665 15.9517 31.9655 16.1631C32.064 16.3745 32.1913 16.6877 32.2484 16.8597C32.3055 17.0317 32.3879 17.3776 32.4318 17.6284C32.4875 17.9464 32.5026 18.2159 32.4826 18.5171C32.466 18.7549 32.4201 19.1225 32.3801 19.3339C32.3401 19.5452 32.2548 19.8695 32.1913 20.0545C32.1274 20.2394 31.9982 20.5421 31.904 20.7271C31.8099 20.912 31.6167 21.2147 31.4752 21.3997C31.3337 21.5846 31.1059 21.8373 30.9689 21.9608C30.8323 22.0847 30.5991 22.2577 30.4518 22.3446C30.3044 22.4321 30.0405 22.5551 29.8664 22.618C29.6585 22.6925 29.398 22.7405 29.1102 22.7564C28.7927 22.7736 28.5834 22.7588 28.3541 22.7011C28.1799 22.6574 27.9053 22.5603 27.7443 22.4859C27.5833 22.4114 27.3102 22.2447 27.137 22.115C26.9638 21.9858 26.6926 21.7182 26.534 21.5198C26.3755 21.3218 26.1384 20.9433 26.0077 20.679C25.8769 20.4148 25.7164 20.0151 25.652 19.7903C25.5871 19.5654 25.5071 19.1551 25.474 18.8775C25.4335 18.5378 25.4247 18.091 25.4467 17.5083C25.4652 17.0326 25.5013 16.4379 25.5271 16.1871C25.553 15.9363 25.6096 15.5251 25.6525 15.2743C25.6954 15.0235 25.7842 14.6339 25.8496 14.4096C25.9155 14.1852 26.053 13.8283 26.1555 13.6169C26.2721 13.3762 26.435 13.1384 26.5916 12.9803Z" fill="#EBC761"/>
<path d="M13.1851 20.1121C13.3315 20.0117 13.5495 19.8998 13.6705 19.8633C13.7915 19.8268 13.9671 19.7951 14.0608 19.7927C14.1544 19.7903 14.374 19.8306 14.5486 19.883C14.7315 19.9377 15.0101 20.0771 15.2072 20.2125C15.395 20.3413 15.6984 20.6074 15.8818 20.8035C16.0653 20.999 16.3916 21.4189 16.6077 21.7359C16.8233 22.053 17.1726 22.6584 17.3834 23.0811C17.5936 23.5039 17.8224 24.0444 17.8907 24.2822C17.9595 24.52 18.039 24.9307 18.0678 25.195C18.1068 25.5509 18.1053 25.7873 18.0624 26.1078C18.0307 26.3456 17.9527 26.7025 17.8883 26.9004C17.8244 27.0989 17.6926 27.3905 17.5961 27.549C17.4995 27.7075 17.3399 27.9213 17.2409 28.0237C17.1419 28.126 16.9292 28.2946 16.7682 28.3984C16.6072 28.5017 16.3331 28.629 16.1584 28.6814C15.9482 28.7443 15.7018 28.776 15.4267 28.7755C15.1989 28.775 14.8803 28.7414 14.7193 28.7006C14.5584 28.6597 14.2842 28.5608 14.1096 28.4805C13.9349 28.3998 13.6608 28.2413 13.4998 28.1274C13.3388 28.0131 13.0627 27.7719 12.8866 27.5903C12.7105 27.4092 12.4705 27.12 12.3534 26.9485C12.2363 26.777 12.0568 26.4633 11.9548 26.2519C11.8524 26.0405 11.7221 25.6946 11.6655 25.4832C11.5933 25.2156 11.5543 24.8942 11.5377 24.4263C11.5177 23.8777 11.5324 23.6432 11.6177 23.1532C11.6753 22.8231 11.7895 22.3581 11.8709 22.1203C11.9524 21.8825 12.1153 21.5044 12.2334 21.2795C12.3514 21.0547 12.5539 20.7415 12.6831 20.5829C12.8129 20.4244 13.0388 20.2125 13.1851 20.1121Z" fill="#EBC761"/>
<path d="M33.9397 20.1035C34.0739 20.0271 34.3046 19.9252 34.4519 19.8772C34.6451 19.8143 34.8022 19.797 35.0129 19.8157C35.1739 19.8301 35.4042 19.8854 35.5252 19.9392C35.6461 19.993 35.8422 20.1165 35.9618 20.214C36.0813 20.311 36.2754 20.5205 36.394 20.679C36.512 20.8376 36.6915 21.1297 36.793 21.3276C36.894 21.526 37.0442 21.8825 37.1267 22.1203C37.2091 22.3581 37.3243 22.8121 37.3818 23.1292C37.4696 23.6096 37.4833 23.8219 37.4623 24.4023C37.4448 24.8889 37.4062 25.2147 37.334 25.4832C37.2779 25.6946 37.1418 26.0511 37.0325 26.2759C36.9228 26.5007 36.753 26.8029 36.655 26.948C36.5569 27.0931 36.3335 27.3607 36.1593 27.5428C35.9852 27.7253 35.7213 27.9665 35.5739 28.0794C35.4266 28.1918 35.1412 28.3614 34.9398 28.4556C34.7388 28.5497 34.4422 28.6602 34.2812 28.7006C34.1202 28.7414 33.8022 28.775 33.5738 28.7755C33.2987 28.776 33.0524 28.7443 32.8421 28.6814C32.668 28.629 32.3933 28.5031 32.2323 28.4008C32.0713 28.2989 31.844 28.1087 31.7269 27.978C31.6099 27.8478 31.4503 27.6331 31.3728 27.501C31.2952 27.3688 31.1781 27.0989 31.1137 26.9004C31.0489 26.7025 30.9689 26.335 30.9367 26.0837C30.8918 25.7398 30.8908 25.5149 30.9313 25.1709C30.9606 24.9197 31.041 24.52 31.1103 24.2822C31.1791 24.0444 31.4016 23.5149 31.604 23.1051C31.8065 22.6953 32.1611 22.0794 32.3914 21.7359C32.6743 21.3146 32.9548 20.9702 33.2533 20.6771C33.4968 20.4383 33.8056 20.1799 33.9397 20.1035Z" fill="#EBC761"/>
<path d="M22.9636 23.3276C23.0978 23.2839 23.3612 23.2185 23.549 23.1815C23.7368 23.1445 24.1432 23.1119 24.4515 23.109C24.7827 23.1061 25.1822 23.1354 25.4271 23.1806C25.6554 23.2228 26.0174 23.3232 26.2321 23.4035C26.4467 23.4842 26.796 23.6499 27.0087 23.772C27.2258 23.8964 27.5867 24.1731 27.8326 24.4023C28.0731 24.6271 28.3634 24.9403 28.478 25.0989C28.5926 25.2574 28.8224 25.636 28.9883 25.9396C29.1541 26.2432 29.3922 26.6328 29.5166 26.8044C29.641 26.9759 29.8971 27.2761 30.0849 27.4712C30.2732 27.6662 30.6801 28.0117 30.9884 28.2394C31.2967 28.4666 31.7001 28.7933 31.885 28.9658C32.0694 29.1378 32.3616 29.462 32.5343 29.6869C32.7065 29.9117 32.9553 30.3114 33.087 30.5756C33.2182 30.8399 33.3758 31.229 33.4373 31.4404C33.528 31.7541 33.5485 31.9439 33.549 32.4733C33.5495 33.02 33.5314 33.1785 33.4353 33.4822C33.3724 33.6806 33.2294 34.015 33.1182 34.2254C32.9855 34.4757 32.7865 34.7418 32.5445 34.9941C32.3401 35.2064 32.0221 35.4798 31.8372 35.6018C31.6518 35.7243 31.3855 35.8809 31.2445 35.9501C31.1035 36.0197 30.8293 36.1293 30.6347 36.1937C30.4401 36.258 30.0727 36.3556 29.8176 36.4098C29.4488 36.4891 29.18 36.5093 28.5004 36.5098C27.8341 36.5103 27.5394 36.4886 27.1589 36.4127C26.8906 36.3589 26.4516 36.2484 26.1833 36.1668C25.915 36.0851 25.5525 35.9885 25.3784 35.952C25.2042 35.9155 24.8144 35.8857 24.5125 35.8852C24.2105 35.8848 23.8046 35.9165 23.61 35.9554C23.4153 35.9948 23.0919 36.0817 22.8904 36.1485C22.6895 36.2158 22.2665 36.3243 21.9514 36.3897C21.4655 36.4906 21.2465 36.5088 20.5123 36.5093C19.8454 36.5093 19.5454 36.4886 19.2073 36.418C18.9659 36.3676 18.5927 36.2686 18.378 36.1975C18.1634 36.1269 17.8351 35.9895 17.6487 35.8924C17.4624 35.7954 17.2097 35.646 17.0877 35.5605C16.9658 35.4745 16.716 35.2583 16.5331 35.0801C16.3501 34.9013 16.1043 34.604 15.9872 34.419C15.8696 34.234 15.7018 33.8776 15.614 33.6263C15.4628 33.1954 15.454 33.1324 15.454 32.4973C15.4535 31.9405 15.473 31.7584 15.5652 31.4404C15.6262 31.229 15.7711 30.8615 15.8867 30.6237C16.0023 30.3859 16.2067 30.04 16.3404 29.855C16.4745 29.6701 16.6911 29.4015 16.8224 29.2588C16.9536 29.1157 17.3463 28.7568 17.6951 28.4608C18.0439 28.1654 18.5024 27.7417 18.7146 27.5202C18.9264 27.2982 19.2371 26.9437 19.4044 26.7323C19.5718 26.5209 19.8888 26.0669 20.1093 25.7234C20.3293 25.3799 20.5898 25.0018 20.6879 24.8832C20.786 24.764 20.9757 24.5622 21.1099 24.4345C21.244 24.3067 21.4855 24.1083 21.6465 23.9944C21.8075 23.8801 22.1148 23.7009 22.3294 23.5961C22.5441 23.4919 22.8295 23.3708 22.9636 23.3276Z" fill="#EBC761"/>
</svg>
