<svg width="66" height="55" viewBox="0 0 66 55" fill="none" xmlns="http://www.w3.org/2000/svg">
<path d="M2 9.05867L3.4395 2.37151C26.1116 7.94414 39.067 7.94414 62.099 2L63.5385 9.05867C36.188 16.8604 27.1912 15.7458 2 9.05867Z" fill="#F99D9E" stroke="#4E56C0" stroke-width="2.88462"/>
<mask id="path-2-outside-1_2329_250" maskUnits="userSpaceOnUse" x="22.6071" y="9.69258" width="21" height="21" fill="black">
<rect fill="white" x="22.6071" y="9.69258" width="21" height="21"/>
<path d="M25.6665 15.7706C26.3655 11.4138 32.3643 11.5665 32.6783 16.9698C32.9922 11.5665 38.9919 11.4138 39.6909 15.7706C40.3134 19.6518 35.9172 24.4748 32.6929 26.9766V27.0001C32.6881 26.9963 32.6831 26.9921 32.6783 26.9883C32.6736 26.992 32.6693 26.9964 32.6646 27.0001V26.9766C29.4402 24.4748 25.044 19.6518 25.6665 15.7706Z"/>
</mask>
<path d="M25.6665 15.7706C26.3655 11.4138 32.3643 11.5665 32.6783 16.9698C32.9922 11.5665 38.9919 11.4138 39.6909 15.7706C40.3134 19.6518 35.9172 24.4748 32.6929 26.9766V27.0001C32.6881 26.9963 32.6831 26.9921 32.6783 26.9883C32.6736 26.992 32.6693 26.9964 32.6646 27.0001V26.9766C29.4402 24.4748 25.044 19.6518 25.6665 15.7706Z" fill="#FFE9AD"/>
<path d="M25.6665 15.7706L22.8183 15.3136L22.8183 15.3138L25.6665 15.7706ZM32.6783 16.9698L29.7985 17.1371C29.8871 18.6627 31.1501 19.8544 32.6783 19.8544C34.2064 19.8544 35.4694 18.6627 35.558 17.1371L32.6783 16.9698ZM39.6909 15.7706L42.5392 15.3138L42.5391 15.3136L39.6909 15.7706ZM32.6929 26.9766L30.9246 24.6976C30.2203 25.244 29.8083 26.0853 29.8083 26.9766H32.6929ZM32.6929 27.0001L30.9283 29.282C31.7987 29.955 32.9762 30.0744 33.9639 29.5896C34.9516 29.1048 35.5775 28.1003 35.5775 27.0001H32.6929ZM32.6783 26.9883L34.4447 24.7079C33.4049 23.9024 31.9517 23.9023 30.9118 24.7078L32.6783 26.9883ZM32.6646 27.0001H29.78C29.78 28.1003 30.4059 29.1048 31.3936 29.5896C32.3813 30.0744 33.5588 29.955 34.4292 29.282L32.6646 27.0001ZM32.6646 26.9766H35.5492C35.5492 26.0853 35.1371 25.244 34.4329 24.6976L32.6646 26.9766ZM25.6665 15.7706L28.5147 16.2275C28.5825 15.8054 28.7357 15.6743 28.7758 15.6433C28.8366 15.5964 28.9187 15.569 29.0186 15.5794C29.1086 15.5887 29.24 15.6325 29.3771 15.7892C29.5103 15.9415 29.7513 16.3247 29.7985 17.1371L32.6783 16.9698L35.558 16.8024C35.3322 12.9172 32.8633 10.1786 29.6149 9.84102C26.4479 9.51193 23.4075 11.6416 22.8183 15.3136L25.6665 15.7706ZM32.6783 16.9698L35.558 17.1371C35.6052 16.3248 35.8462 15.9416 35.9794 15.7893C36.1165 15.6326 36.2481 15.5887 36.3383 15.5793C36.4385 15.5689 36.5208 15.5964 36.5817 15.6434C36.6218 15.6744 36.775 15.8055 36.8428 16.2275L39.6909 15.7706L42.5391 15.3136C41.9499 11.6413 38.909 9.51198 35.7421 9.84099C32.4937 10.1785 30.0243 12.9168 29.7985 16.8025L32.6783 16.9698ZM39.6909 15.7706L36.8427 16.2273C36.9681 17.009 36.592 18.3785 35.2833 20.2196C34.0563 21.9457 32.3651 23.5798 30.9246 24.6976L32.6929 26.9766L34.4612 29.2556C36.245 27.8715 38.364 25.8433 39.9856 23.5621C41.5255 21.3959 43.0363 18.4134 42.5392 15.3138L39.6909 15.7706ZM32.6929 26.9766H29.8083V27.0001H32.6929H35.5775V26.9766H32.6929ZM32.6929 27.0001L34.4575 24.7181C34.4747 24.7314 34.488 24.7421 34.4952 24.7479C34.499 24.7509 34.5019 24.7533 34.5035 24.7545C34.5048 24.7556 34.5059 24.7565 34.5051 24.7558C34.5048 24.7556 34.5026 24.7538 34.5002 24.7519C34.4976 24.7497 34.4936 24.7465 34.4888 24.7426C34.4794 24.7351 34.4639 24.7227 34.4447 24.7079L32.6783 26.9883L30.9118 29.2688C30.895 29.2558 30.882 29.2454 30.875 29.2398C30.8714 29.2369 30.8686 29.2347 30.8673 29.2335C30.8661 29.2326 30.8651 29.2318 30.8661 29.2326C30.8665 29.2329 30.8688 29.2348 30.8714 29.2369C30.8741 29.2391 30.8783 29.2425 30.8833 29.2465C30.8929 29.2542 30.9087 29.2668 30.9283 29.282L32.6929 27.0001ZM32.6783 26.9883L30.9118 24.7078C30.8826 24.7304 30.8572 24.751 30.8362 24.7684C30.8152 24.7858 30.7974 24.8011 30.7837 24.8129C30.7701 24.8247 30.7592 24.8344 30.7524 24.8405C30.749 24.8436 30.7461 24.8461 30.7443 24.8477C30.7426 24.8492 30.7412 24.8506 30.7411 24.8506C30.7407 24.851 30.7416 24.8502 30.7428 24.8491C30.7441 24.8479 30.7464 24.8458 30.7494 24.8432C30.7552 24.8381 30.7651 24.8292 30.7777 24.8183C30.7904 24.8073 30.8072 24.7929 30.8272 24.7763C30.8473 24.7597 30.8717 24.74 30.9 24.7181L32.6646 27.0001L34.4292 29.282C34.4586 29.2592 34.4842 29.2386 34.5054 29.221C34.5266 29.2034 34.5446 29.1881 34.5584 29.1761C34.5721 29.1642 34.5832 29.1544 34.5901 29.1482C34.5936 29.1451 34.5965 29.1425 34.5983 29.1408C34.6001 29.1392 34.6016 29.1379 34.6017 29.1378C34.6022 29.1373 34.6013 29.1381 34.6002 29.1391C34.599 29.1403 34.5967 29.1423 34.5938 29.1449C34.5882 29.1499 34.5783 29.1586 34.5659 29.1694C34.5534 29.1803 34.5367 29.1946 34.5168 29.211C34.4969 29.2275 34.4727 29.2471 34.4447 29.2688L32.6783 26.9883ZM32.6646 27.0001H35.5492V26.9766H32.6646H29.78V27.0001H32.6646ZM32.6646 26.9766L34.4329 24.6976C32.9924 23.5798 31.3011 21.9457 30.0741 20.2196C28.7654 18.3786 28.3894 17.009 28.5147 16.2274L25.6665 15.7706L22.8183 15.3138C22.3212 18.4134 23.832 21.3959 25.3719 23.5622C26.9934 25.8433 29.1124 27.8716 30.8962 29.2557L32.6646 26.9766Z" fill="#4E56C0" mask="url(#path-2-outside-1_2329_250)"/>
</svg>
