<svg width="87" height="39" viewBox="0 0 87 39" fill="none" xmlns="http://www.w3.org/2000/svg">
<path d="M1.78687 10.8592L3.72839 2.29964C34.3073 9.43261 51.781 9.43261 82.8453 1.82411L84.7869 10.8592C47.898 20.8454 35.7635 19.4188 1.78687 10.8592Z" fill="#F99D9E" stroke="#4E56C0" stroke-width="3"/>
<mask id="path-2-outside-1_2329_250" maskUnits="userSpaceOnUse" x="29.8218" y="12.3856" width="27" height="27" fill="black">
<rect fill="white" x="29.8218" y="12.3856" width="27" height="27"/>
<path d="M43.4181 22.1873C43.8459 14.8575 51.9853 14.6509 52.9338 20.5623C53.7786 25.8292 47.8131 32.3743 43.4377 35.7694V35.8006C43.4312 35.7956 43.4246 35.79 43.4181 35.785C43.4117 35.79 43.4051 35.7956 43.3986 35.8006V35.7694C39.0231 32.3743 33.0577 25.8292 33.9025 20.5623C34.8509 14.6509 42.9904 14.8575 43.4181 22.1873Z"/>
</mask>
<path d="M43.4181 22.1873C43.8459 14.8575 51.9853 14.6509 52.9338 20.5623C53.7786 25.8292 47.8131 32.3743 43.4377 35.7694V35.8006C43.4312 35.7956 43.4246 35.79 43.4181 35.785C43.4117 35.79 43.4051 35.7956 43.3986 35.8006V35.7694C39.0231 32.3743 33.0577 25.8292 33.9025 20.5623C34.8509 14.6509 42.9904 14.8575 43.4181 22.1873Z" fill="#FFE9AD"/>
<path d="M43.4181 22.1873L40.4232 22.3621C40.5158 23.9484 41.8292 25.1874 43.4181 25.1874C45.0071 25.1873 46.3205 23.9484 46.413 22.3621L43.4181 22.1873ZM52.9338 20.5623L55.8959 20.0872L55.8959 20.0871L52.9338 20.5623ZM43.4377 35.7694L41.5986 33.3992C40.8662 33.9675 40.4377 34.8424 40.4377 35.7694H43.4377ZM43.4377 35.8006L41.6025 38.1738C42.5077 38.8738 43.7323 38.9979 44.7595 38.4937C45.7867 37.9896 46.4377 36.9449 46.4377 35.8006H43.4377ZM43.4181 35.785L45.2553 33.4133C44.1738 32.5756 42.6625 32.5756 41.581 33.4133L43.4181 35.785ZM43.3986 35.8006H40.3986C40.3986 36.9449 41.0495 37.9896 42.0768 38.4937C43.104 38.9979 44.3286 38.8738 45.2338 38.1738L43.3986 35.8006ZM43.3986 35.7694H46.3986C46.3986 34.8424 45.9701 33.9675 45.2377 33.3992L43.3986 35.7694ZM33.9025 20.5623L30.9404 20.0871L30.9404 20.0872L33.9025 20.5623ZM43.4181 22.1873L46.413 22.3621C46.4873 21.0897 46.8755 20.3674 47.2097 19.9854C47.548 19.5988 47.9387 19.4298 48.2902 19.3934C48.6521 19.3558 48.9992 19.4543 49.2734 19.6661C49.5261 19.8612 49.8458 20.2535 49.9716 21.0376L52.9338 20.5623L55.8959 20.0871C55.1724 15.578 51.48 13.0303 47.6711 13.4254C43.7777 13.8293 40.7089 17.1163 40.4232 22.0126L43.4181 22.1873ZM52.9338 20.5623L49.9716 21.0375C50.2007 22.4656 49.5106 24.5798 47.6981 27.1297C45.9706 29.5601 43.6078 31.8402 41.5986 33.3992L43.4377 35.7694L45.2767 38.1396C47.643 36.3035 50.4507 33.6135 52.5885 30.6059C54.6414 27.7177 56.5116 23.926 55.8959 20.0872L52.9338 20.5623ZM43.4377 35.7694H40.4377V35.8006H43.4377H46.4377V35.7694H43.4377ZM43.4377 35.8006L45.2729 33.4274C45.2903 33.4409 45.3038 33.4517 45.311 33.4575C45.3148 33.4605 45.3177 33.4629 45.3191 33.464C45.3204 33.4651 45.3213 33.4658 45.3203 33.465C45.3199 33.4646 45.3174 33.4626 45.3147 33.4604C45.3118 33.4581 45.3074 33.4545 45.3022 33.4503C45.292 33.4422 45.2755 33.429 45.2553 33.4133L43.4181 35.785L41.581 38.1567C41.564 38.1435 41.5508 38.133 41.5439 38.1274C41.5402 38.1245 41.5375 38.1223 41.5362 38.1213C41.5351 38.1204 41.5343 38.1197 41.5355 38.1207C41.5361 38.1212 41.5387 38.1232 41.5416 38.1256C41.5446 38.1281 41.5491 38.1317 41.5545 38.136C41.565 38.1445 41.5818 38.1578 41.6025 38.1738L43.4377 35.8006ZM43.4181 35.785L41.581 33.4133C41.5607 33.429 41.5442 33.4422 41.5341 33.4503C41.5289 33.4545 41.5245 33.458 41.5216 33.4604C41.5189 33.4626 41.5165 33.4646 41.516 33.4649C41.515 33.4658 41.5159 33.465 41.5172 33.464C41.5186 33.4629 41.5215 33.4605 41.5252 33.4575C41.5324 33.4517 41.5459 33.4409 41.5634 33.4274L43.3986 35.8006L45.2338 38.1738C45.2545 38.1578 45.2713 38.1444 45.2817 38.1361C45.2871 38.1317 45.2916 38.1281 45.2946 38.1256C45.2975 38.1233 45.3001 38.1212 45.3007 38.1207C45.3019 38.1197 45.3011 38.1204 45.3 38.1213C45.2987 38.1223 45.296 38.1245 45.2924 38.1274C45.2855 38.1329 45.2723 38.1435 45.2553 38.1567L43.4181 35.785ZM43.3986 35.8006H46.3986V35.7694H43.3986H40.3986V35.8006H43.3986ZM43.3986 35.7694L45.2377 33.3992C43.2285 31.8402 40.8657 29.5601 39.1382 27.1297C37.3257 24.5798 36.6356 22.4656 36.8646 21.0375L33.9025 20.5623L30.9404 20.0872C30.3246 23.926 32.1948 27.7177 34.2477 30.6059C36.3856 33.6135 39.1932 36.3035 41.5595 38.1396L43.3986 35.7694ZM33.9025 20.5623L36.8646 21.0376C36.9904 20.2535 37.3101 19.8612 37.5628 19.6661C37.8371 19.4543 38.1842 19.3558 38.546 19.3934C38.8975 19.4298 39.2882 19.5988 39.6265 19.9854C39.9608 20.3674 40.349 21.0897 40.4232 22.3621L43.4181 22.1873L46.413 22.0126C46.1273 17.1163 43.0585 13.8293 39.1652 13.4254C35.3563 13.0303 31.6638 15.578 30.9404 20.0871L33.9025 20.5623Z" fill="#4E56C0" mask="url(#path-2-outside-1_2329_250)"/>
</svg>
