<svg width="123" height="74" viewBox="0 0 123 74" fill="none" xmlns="http://www.w3.org/2000/svg">
<g clip-path="url(#clip0_2513_2)">
<mask id="path-1-outside-1_2513_2" maskUnits="userSpaceOnUse" x="-0.219238" y="0.899054" width="121" height="70" fill="black">
<rect fill="white" x="-0.219238" y="0.899054" width="121" height="70"/>
<path d="M60.9976 4.89905C63.5143 4.89905 65.555 6.97627 65.5552 9.5387C65.5552 11.3954 64.4833 12.9962 62.936 13.7379C64.34 16.109 66.6863 19.9309 71.1245 25.2125C83.8835 40.396 102.293 33.9085 109.543 30.4655C108.649 29.6183 108.088 28.4101 108.088 27.068C108.088 24.5055 110.128 22.4285 112.645 22.4284C115.162 22.4284 117.203 24.5054 117.203 27.068C117.203 29.6305 115.162 31.7076 112.645 31.7076C112.465 31.7076 112.287 31.6952 112.112 31.6744L107.076 58.5778C73.6736 69.5378 53.2383 70.1347 12.895 58.5778L8.7749 31.6862C8.63106 31.7001 8.48483 31.7076 8.3374 31.7076C5.82085 31.7074 3.78084 29.6304 3.78076 27.068C3.78076 24.5056 5.8208 22.4286 8.3374 22.4284C10.8542 22.4284 12.895 24.5054 12.895 27.068C12.895 28.3933 12.3483 29.5878 11.4731 30.4332C18.8391 33.8291 37.5911 40.2605 50.3647 25.2125C54.9593 19.7999 57.3118 15.9045 58.6978 13.5436C57.348 12.7381 56.4409 11.2467 56.4409 9.5387C56.4411 6.9764 58.481 4.89926 60.9976 4.89905Z"/>
</mask>
<path d="M60.9976 4.89905C63.5143 4.89905 65.555 6.97627 65.5552 9.5387C65.5552 11.3954 64.4833 12.9962 62.936 13.7379C64.34 16.109 66.6863 19.9309 71.1245 25.2125C83.8835 40.396 102.293 33.9085 109.543 30.4655C108.649 29.6183 108.088 28.4101 108.088 27.068C108.088 24.5055 110.128 22.4285 112.645 22.4284C115.162 22.4284 117.203 24.5054 117.203 27.068C117.203 29.6305 115.162 31.7076 112.645 31.7076C112.465 31.7076 112.287 31.6952 112.112 31.6744L107.076 58.5778C73.6736 69.5378 53.2383 70.1347 12.895 58.5778L8.7749 31.6862C8.63106 31.7001 8.48483 31.7076 8.3374 31.7076C5.82085 31.7074 3.78084 29.6304 3.78076 27.068C3.78076 24.5056 5.8208 22.4286 8.3374 22.4284C10.8542 22.4284 12.895 24.5054 12.895 27.068C12.895 28.3933 12.3483 29.5878 11.4731 30.4332C18.8391 33.8291 37.5911 40.2605 50.3647 25.2125C54.9593 19.7999 57.3118 15.9045 58.6978 13.5436C57.348 12.7381 56.4409 11.2467 56.4409 9.5387C56.4411 6.9764 58.481 4.89926 60.9976 4.89905Z" fill="#FFE69A"/>
<path d="M60.9976 4.89905V1.80573H60.9973L60.9976 4.89905ZM65.5552 9.5387H68.6485V9.53849L65.5552 9.5387ZM62.936 13.7379L61.5989 10.9485L58.5538 12.4082L60.2743 15.314L62.936 13.7379ZM71.1245 25.2125L68.7563 27.2026V27.2026L71.1245 25.2125ZM109.543 30.4655L110.87 33.2597L114.948 31.3231L111.67 28.2193L109.543 30.4655ZM108.088 27.068H104.995V27.0681L108.088 27.068ZM112.645 22.4284V19.335H112.645L112.645 22.4284ZM117.203 27.068L120.296 27.0681V27.068H117.203ZM112.645 31.7076L112.645 34.801H112.645V31.7076ZM112.112 31.6744L112.477 28.6027L109.604 28.2615L109.071 31.1053L112.112 31.6744ZM107.076 58.5778L108.04 61.5169L109.779 60.9462L110.116 59.1469L107.076 58.5778ZM12.895 58.5778L9.83738 59.0462L10.1376 61.0056L12.0432 61.5515L12.895 58.5778ZM8.7749 31.6862L11.8325 31.2177L11.3894 28.3251L8.4766 28.6073L8.7749 31.6862ZM8.3374 31.7076L8.33708 34.801H8.3374V31.7076ZM3.78076 27.068H0.687442V27.0681L3.78076 27.068ZM8.3374 22.4284V19.335H8.33708L8.3374 22.4284ZM12.895 27.068L15.9883 27.0681V27.068H12.895ZM11.4731 30.4332L9.32384 28.2086L6.07259 31.3497L10.1781 33.2424L11.4731 30.4332ZM50.3647 25.2125L52.723 27.2144L52.723 27.2143L50.3647 25.2125ZM58.6978 13.5436L61.3654 15.1096L62.9202 12.4611L60.2829 10.8873L58.6978 13.5436ZM56.4409 9.5387L53.3476 9.53849V9.5387H56.4409ZM60.9976 4.89905V7.99237C61.7541 7.99237 62.4618 8.63244 62.4619 9.53892L65.5552 9.5387L68.6485 9.53849C68.6482 5.32009 65.2745 1.80573 60.9976 1.80573V4.89905ZM65.5552 9.5387H62.4619C62.4619 10.1817 62.0942 10.7111 61.5989 10.9485L62.936 13.7379L64.2731 16.5273C66.8724 15.2813 68.6485 12.6091 68.6485 9.5387H65.5552ZM62.936 13.7379L60.2743 15.314C61.7335 17.7783 64.1758 21.7516 68.7563 27.2026L71.1245 25.2125L73.4927 23.2225C69.1968 18.1102 66.9465 14.4396 65.5977 12.1619L62.936 13.7379ZM71.1245 25.2125L68.7563 27.2026C75.8512 35.6457 84.6165 38.0871 92.467 37.9165C100.193 37.7487 107.064 35.0673 110.87 33.2597L109.543 30.4655L108.216 27.6712C104.773 29.3067 98.8136 31.5906 92.3326 31.7314C85.9758 31.8695 79.1568 29.9629 73.4927 23.2225L71.1245 25.2125ZM109.543 30.4655L111.67 28.2193C111.372 27.9372 111.182 27.533 111.182 27.0679L108.088 27.068L104.995 27.0681C104.995 29.2872 105.925 31.2993 107.417 32.7116L109.543 30.4655ZM108.088 27.068H111.182C111.182 26.1611 111.889 25.5217 112.645 25.5217L112.645 22.4284L112.645 19.335C108.368 19.3353 104.995 22.8499 104.995 27.068H108.088ZM112.645 22.4284V25.5217C113.402 25.5217 114.109 26.1618 114.109 27.068H117.203H120.296C120.296 22.8491 116.922 19.335 112.645 19.335V22.4284ZM117.203 27.068L114.109 27.0679C114.109 27.9743 113.402 28.6143 112.645 28.6143V31.7076V34.801C116.922 34.801 120.296 31.2868 120.296 27.0681L117.203 27.068ZM112.645 31.7076L112.645 28.6143C112.606 28.6143 112.552 28.6116 112.477 28.6027L112.112 31.6744L111.747 34.7462C112.022 34.7788 112.323 34.8009 112.645 34.801L112.645 31.7076ZM112.112 31.6744L109.071 31.1053L104.035 58.0086L107.076 58.5778L110.116 59.1469L115.152 32.2436L112.112 31.6744ZM107.076 58.5778L106.111 55.6386C89.5765 61.0641 76.457 63.8561 62.5722 63.9284C48.6629 64.0008 33.7876 61.345 13.7469 55.6041L12.895 58.5778L12.0432 61.5515C32.3457 67.3675 47.8598 70.1917 62.6044 70.1149C77.3736 70.038 91.1728 67.0515 108.04 61.5169L107.076 58.5778ZM12.895 58.5778L15.9527 58.1093L11.8325 31.2177L8.7749 31.6862L5.71726 32.1546L9.83738 59.0462L12.895 58.5778ZM8.7749 31.6862L8.4766 28.6073C8.42605 28.6122 8.37952 28.6143 8.3374 28.6143V31.7076V34.801C8.59015 34.801 8.83606 34.788 9.0732 34.7651L8.7749 31.6862ZM8.3374 31.7076L8.33773 28.6143C7.58153 28.6142 6.87411 27.9746 6.87408 27.0679L3.78076 27.068L0.687442 27.0681C0.687578 31.2861 4.06016 34.8005 8.33708 34.801L8.3374 31.7076ZM3.78076 27.068H6.87408C6.87408 26.1614 7.58138 25.5217 8.33773 25.5217L8.3374 22.4284L8.33708 19.335C4.06021 19.3355 0.687442 22.8498 0.687442 27.068H3.78076ZM8.3374 22.4284V25.5217C9.09425 25.5217 9.8017 26.1618 9.8017 27.068H12.895H15.9883C15.9883 22.8491 12.6142 19.335 8.3374 19.335V22.4284ZM12.895 27.068L9.8017 27.0679C9.80168 27.5266 9.61591 27.9264 9.32384 28.2086L11.4731 30.4332L13.6225 32.6579C15.0806 31.2491 15.9883 29.2599 15.9883 27.0681L12.895 27.068ZM11.4731 30.4332L10.1781 33.2424C14.039 35.0223 21.0142 37.6679 28.8261 37.832C36.7508 37.9984 45.609 35.595 52.723 27.2144L50.3647 25.2125L48.0065 23.2107C42.3468 29.8781 35.4422 31.7829 28.956 31.6467C22.357 31.5081 16.2732 29.2399 12.7682 27.6241L11.4731 30.4332ZM50.3647 25.2125L52.723 27.2143C57.4713 21.6205 59.9249 17.5634 61.3654 15.1096L58.6978 13.5436L56.0301 11.9776C54.6986 14.2457 52.4473 17.9792 48.0065 23.2107L50.3647 25.2125ZM58.6978 13.5436L60.2829 10.8873C59.8442 10.6255 59.5342 10.1295 59.5342 9.5387H56.4409H53.3476C53.3476 12.3639 54.8519 14.8508 57.1126 16.1999L58.6978 13.5436ZM56.4409 9.5387L59.5342 9.53892C59.5343 8.63196 60.2419 7.99244 60.9978 7.99237L60.9976 4.89905L60.9973 1.80573C56.7202 1.80609 53.3479 5.32083 53.3476 9.53849L56.4409 9.5387Z" fill="#4E56C0" mask="url(#path-1-outside-1_2513_2)"/>
<path d="M70.9169 43.7894L61.1969 58.2989L50.9363 43.7887L61.1969 29.2785L70.9169 43.7894Z" fill="#8CDDD9" stroke="#4E56C0" stroke-width="3.09332"/>
<path d="M37.412 47.3584L33.284 53.5193L28.9281 47.3584L33.284 41.1974L37.412 47.3584Z" fill="#8CDDD9" stroke="#4E56C0" stroke-width="2.57777"/>
<path d="M93.6466 47.3584L89.5186 53.5193L85.1627 47.3584L89.5186 41.1974L93.6466 47.3584Z" fill="#8CDDD9" stroke="#4E56C0" stroke-width="2.57777"/>
</g>
<defs>
<clipPath id="clip0_2513_2">
<rect width="122.243" height="73.0838" fill="white" transform="translate(0 0.201323) rotate(-0.0943608)"/>
</clipPath>
</defs>
</svg>
