<svg width="300" height="300" viewBox="0 0 300 300" fill="none" xmlns="http://www.w3.org/2000/svg">
<path d="M80.649 188.008C83.261 195.18 96.6125 208.527 104.594 214.027C112.36 214.027 125 229.5 103.5 227.5C75.4314 224.889 69 212.123 69 207.681C69 204.127 73.5302 204.72 75.4717 207.681C65.117 191.181 77.4132 179.124 80.649 188.008Z" fill="#FFEFDE" stroke="#4E56C0" stroke-width="3" stroke-linejoin="round"/>
<path d="M105.096 226.5C103.896 202.9 114.262 180.333 119.596 172L182.096 170C185.596 174.167 193.296 190.3 196.096 221.5C198.896 252.7 179.929 259.5 170.096 259C163.596 263 158.596 260.5 155.096 259C152.296 257.8 150.262 233.5 149.596 221.5C149.429 232.833 148.396 256.2 145.596 259C142.796 261.8 133.429 260.167 129.096 259C121.096 258.5 106.596 256 105.096 226.5Z" fill="#FFEFDE"/>
<path d="M180.727 167H121.727C121.727 167 93.711 214.923 110.727 236.5C133.596 265.5 168.096 268 191.227 236.5C207.473 214.375 180.727 167 180.727 167Z" fill="#FFEFDE"/>
<path d="M125.096 221C126.961 233.032 127.108 257.497 130.771 259.102C135.35 261.107 139.929 262.11 144.508 259.102C148.171 256.695 149.426 232.698 149.596 221" stroke="#4E56C0" stroke-width="3" stroke-linecap="round"/>
<path d="M175.096 221C173.23 233.032 173.084 257.497 169.42 259.102C164.841 261.107 160.262 262.11 155.684 259.102C152.02 256.695 150.765 232.698 150.596 221" stroke="#4E56C0" stroke-width="3" stroke-linecap="round"/>
<path d="M129.096 259C125.096 259.333 115.796 258.1 110.596 250.5C105.396 242.9 105.096 225.667 105.596 218C106.762 205.5 111.096 178.8 119.096 172" stroke="#4E56C0" stroke-width="3" stroke-linecap="round"/>
<path d="M172.596 259C176.596 259.333 185.896 258.1 191.096 250.5C196.296 242.9 196.596 225.667 196.096 218C194.929 205.5 190.596 178.8 182.596 172" stroke="#4E56C0" stroke-width="3" stroke-linecap="round"/>
<path d="M145.596 258.5C147.096 260 152.596 260 154.096 258.5" stroke="#4E56C0" stroke-width="3" stroke-linecap="round"/>
<path d="M150.5 41.5C190.917 41.5 223.5 72.0411 223.5 109.5C223.5 146.959 190.917 177.5 150.5 177.5C110.083 177.5 77.5 146.959 77.5 109.5C77.5 72.0411 110.083 41.5 150.5 41.5Z" fill="#FFEFDE" stroke="#4E56C0" stroke-width="3"/>
<path d="M71.5 81.5C80.3 55.1 95.1667 55.1667 101.5 58.5C80.5 71.5 91.5 113.5 93.5 138C95.5 162.5 81.5 184.5 62 177C42.5 169.5 60.5 114.5 71.5 81.5Z" fill="#A485D9" stroke="#4E56C0" stroke-width="3"/>
<path d="M231 82.5301C222.2 56.1301 207.333 56.1968 201 59.5301C222 72.5301 211 114.53 209 139.03C207 163.53 221 185.53 240.5 178.03C260 170.53 242 115.53 231 82.5301Z" fill="#A485D9" stroke="#4E56C0" stroke-width="3"/>
<path d="M117.718 89.554C112.85 81.3267 105.08 86.8162 101.804 90.5894C97.6911 95.5562 96.529 101.506 98.7183 108.092C100.908 114.678 109.276 108.153 115.784 106.768C122.292 105.383 123.804 99.8381 117.718 89.554Z" fill="#A485D9"/>
<path d="M115.423 201.65C114.168 211.127 123.669 211.611 128.577 210.668C134.879 209.304 139.469 205.343 141.816 198.812C144.164 192.281 133.552 192.241 127.579 189.309C121.607 186.377 116.992 189.804 115.423 201.65Z" fill="#A485D9"/>
<path d="M184.463 83.4203C179.106 79.5613 175.382 83.7638 174.447 87.0229C173.22 91.3043 173.297 92.5705 176.506 96.1323C179.714 99.6942 185.933 97.9983 189.668 95.321C193.403 92.6436 191.161 88.2441 184.463 83.4203Z" fill="#A485D9"/>
<path d="M125.161 77.7586C131.743 80.8713 134.94 75.5694 135.301 71.8485C135.776 66.9604 135.439 65.6029 131.247 62.3824C127.056 59.162 120.651 62.2451 117.137 65.8955C113.622 69.5458 116.934 73.8677 125.161 77.7586Z" fill="#A485D9"/>
<path d="M184.374 163.674C188.947 160.498 186.651 156.356 184.322 154.698C181.263 152.519 180.234 152.225 176.501 153.776C172.767 155.327 172.369 160.748 173.449 164.47C174.529 168.192 178.657 167.645 184.374 163.674Z" fill="#A485D9"/>
<path d="M187.275 206.684C188.032 200.723 183.054 199.572 180.042 200.241C176.086 201.12 175.107 201.732 173.653 205.845C172.199 209.958 176.258 214.194 180.022 216.017C183.785 217.84 186.328 214.135 187.275 206.684Z" fill="#A485D9"/>
<mask id="mask0_2329_122" style="mask-type:alpha" maskUnits="userSpaceOnUse" x="55" y="43" width="194" height="218">
<path d="M151.257 43C170.969 43 188.877 50.1592 202.115 61.8242C208.779 58.9755 222.654 59.951 231.01 84.8438C241.908 117.312 259.741 171.425 240.422 178.804C224.624 184.838 212.471 171.462 209.649 153.205C202.802 161.398 193.992 168.11 183.87 172.736C185.6 175.473 187.842 180.179 190.005 187.059C194.104 197.802 197.824 211.324 196.53 222.834C198.683 252.453 180.278 258.953 170.671 258.468C164.301 262.36 159.386 259.996 155.924 258.516C152.816 258.777 149.696 258.68 146.594 258.231C146.529 258.321 146.465 258.401 146.398 258.468C143.624 261.222 134.345 259.616 130.052 258.468C122.228 257.982 108.129 255.578 106.339 227.595C105.814 227.566 105.266 227.528 104.693 227.476C76.8856 224.907 70.5129 212.347 70.5127 207.977C70.5127 204.48 75.0013 205.063 76.9248 207.977C66.6662 191.743 78.8479 179.88 82.0537 188.621C84.6416 195.677 97.8697 208.809 105.777 214.22C106.039 214.22 106.305 214.239 106.576 214.272C107.106 207.389 108.93 200.207 111.173 193.609C112.426 189.805 113.808 186.312 115.18 183.235C116.874 179.297 118.536 175.88 119.868 173.282C109.763 168.877 100.912 162.411 93.9453 154.468C90.4999 171.539 78.7121 183.57 63.5781 177.79C44.259 170.411 62.0923 116.298 72.9902 83.8301C81.2596 59.1938 94.9358 57.9843 101.677 60.7236C114.779 49.7104 132.172 43 151.257 43Z" fill="#FFEFDE"/>
</mask>
<g mask="url(#mask0_2329_122)">
<path d="M151.437 65.8429C142.637 63.4429 143.437 49.8429 144.937 43.3429C183.937 34.3429 216.437 73.3429 209.937 78.3429C203.437 83.3429 192.437 87.8429 188.437 75.8429C184.437 63.8429 162.437 68.8429 151.437 65.8429Z" fill="#A485D9"/>
</g>
<ellipse cx="111.188" cy="125" rx="15.1875" ry="18" fill="white"/>
<ellipse cx="114" cy="125" rx="12.375" ry="18" fill="#4E56C0"/>
<path d="M114.526 113.087C114.74 112.47 115.564 112.356 115.937 112.892L118.203 116.14C118.35 116.35 118.587 116.477 118.843 116.482L122.803 116.564C123.456 116.577 123.819 117.325 123.425 117.846L121.036 121.005C120.881 121.209 120.834 121.474 120.908 121.719L122.054 125.51C122.243 126.135 121.644 126.711 121.027 126.498L117.284 125.202C117.043 125.118 116.776 125.155 116.566 125.301L113.314 127.563C112.778 127.936 112.045 127.544 112.058 126.891L112.134 122.931C112.139 122.675 112.021 122.433 111.817 122.278L108.661 119.885C108.141 119.49 108.287 118.672 108.912 118.482L112.702 117.331C112.946 117.256 113.141 117.069 113.225 116.828L114.526 113.087Z" fill="white"/>
<path d="M114.643 140.727C109.832 141.116 107.053 136.477 105.756 132.541C105.452 131.616 106.547 131.019 107.286 131.654C112.356 136.01 115.933 135.903 121.072 131.34C121.763 130.727 122.814 131.231 122.606 132.131C121.766 135.774 119.511 140.333 114.643 140.727Z" fill="#A485D9"/>
<circle cx="105.562" cy="126.688" r="1.6875" fill="white"/>
<ellipse cx="190.188" cy="124" rx="15.1875" ry="18" fill="white"/>
<ellipse cx="187.375" cy="124" rx="12.375" ry="18" fill="#4E56C0"/>
<path d="M187.901 110.962C188.115 110.345 188.939 110.231 189.312 110.767L191.578 114.015C191.725 114.225 191.962 114.352 192.218 114.357L196.178 114.439C196.831 114.452 197.194 115.2 196.8 115.721L194.411 118.88C194.256 119.084 194.209 119.349 194.283 119.594L195.429 123.385C195.618 124.01 195.019 124.586 194.402 124.373L190.659 123.077C190.418 122.993 190.151 123.03 189.941 123.176L186.689 125.438C186.153 125.811 185.42 125.419 185.433 124.766L185.509 120.806C185.514 120.55 185.396 120.308 185.192 120.153L182.036 117.76C181.516 117.365 181.662 116.547 182.287 116.357L186.077 115.206C186.321 115.131 186.516 114.944 186.6 114.703L187.901 110.962Z" fill="white"/>
<path d="M188.018 138.602C183.207 138.991 180.428 134.352 179.131 130.416C178.827 129.491 179.922 128.894 180.661 129.529C185.731 133.885 189.308 133.778 194.447 129.215C195.138 128.602 196.189 129.106 195.981 130.006C195.141 133.649 192.886 138.208 188.018 138.602Z" fill="#A485D9"/>
<circle cx="178.938" cy="124.562" r="1.6875" fill="white"/>
<path d="M151.309 148.866C150.558 149.517 149.442 149.517 148.691 148.866L143.663 144.512C142.263 143.3 143.12 141 144.972 141L155.028 141C156.88 141 157.737 143.3 156.337 144.512L151.309 148.866Z" fill="#4E56C0"/>
<path d="M139 150C143 155.333 147 155.333 150 150" stroke="#4E56C0" stroke-width="3" stroke-linecap="round"/>
<path d="M150 150C154 155.333 158 155.333 161 150" stroke="#4E56C0" stroke-width="3" stroke-linecap="round"/>
<path d="M99.5 156C105.5 162 118.7 171.1 131.5 173.5C131.5 162.667 125.1 143.6 99.5 156Z" fill="#A485D9"/>
<path d="M181.5 172.5C179 174 173 176 168.5 177C171.7 191.8 184.5 194 190.5 193C189 186.5 186.5 178.5 181.5 172.5Z" fill="#A485D9"/>
<path d="M147 241C147.99 233.266 148.037 228.856 148.182 221C146.015 221 141.382 222.2 140.182 227C138.982 231.8 143 240 147 241Z" fill="#A485D9"/>
<path d="M117 241C117 235 110.333 231.167 107 230C107.333 233.667 107.5 243 111.5 249.5C115.725 256.366 121.5 256.5 124 257C124 257 124.7 256.1 123.5 250.5C122 243.5 117 248.5 117 241Z" fill="#A485D9"/>
</svg>
