<svg width="66" height="55" viewBox="0 0 66 55" fill="none" xmlns="http://www.w3.org/2000/svg">
<path d="M9.25 2C11.2028 2 12.7861 3.58335 12.7861 5.53613C12.7861 5.66352 12.7778 5.78918 12.7646 5.91309C13.1393 5.77791 13.5435 5.7041 13.9648 5.7041C15.9176 5.70417 17.501 7.2875 17.501 9.24023C17.5009 10.7088 16.6048 11.9678 15.3301 12.502C15.6388 13.0269 15.8164 13.638 15.8164 14.291C15.8164 16.2437 14.2339 17.827 12.2812 17.8271C10.9946 17.8271 9.86859 17.1397 9.25 16.1123C8.63139 17.1395 7.50617 17.8271 6.21973 17.8271C4.26694 17.8271 2.68359 16.2438 2.68359 14.291C2.68363 13.6383 2.86049 13.0267 3.16895 12.502C1.89493 11.9675 1.00009 10.7084 1 9.24023C1 7.28745 2.58335 5.7041 4.53613 5.7041C4.9567 5.70414 5.36024 5.77734 5.73438 5.91211C5.72131 5.78857 5.71485 5.66314 5.71484 5.53613C5.71484 3.58344 7.29734 2.00015 9.25 2Z" fill="#EE90D5"/>
<path d="M9.25 2V1H9.24993L9.25 2ZM12.7861 5.53613L13.7861 5.53622V5.53613H12.7861ZM12.7646 5.91309L11.7702 5.80757L11.6017 7.39573L13.104 6.85374L12.7646 5.91309ZM13.9648 5.7041L13.9649 4.7041H13.9648V5.7041ZM17.501 9.24023L18.501 9.24029V9.24023H17.501ZM15.3301 12.502L14.9436 11.5797L13.8878 12.0221L14.4681 13.0089L15.3301 12.502ZM15.8164 14.291H16.8164V14.291L15.8164 14.291ZM12.2812 17.8271V18.8271H12.2813L12.2812 17.8271ZM9.25 16.1123L10.1067 15.5965L9.25009 14.1738L8.39336 15.5964L9.25 16.1123ZM6.21973 17.8271V18.8271H6.21976L6.21973 17.8271ZM2.68359 14.291L1.68359 14.291V14.291H2.68359ZM3.16895 12.502L4.03105 13.0087L4.61076 12.0224L3.55582 11.5798L3.16895 12.502ZM1 9.24023H0V9.24029L1 9.24023ZM4.53613 5.7041L4.53622 4.7041H4.53613V5.7041ZM5.73438 5.91211L5.39548 6.85293L6.89669 7.39368L6.72883 5.80691L5.73438 5.91211ZM5.71484 5.53613H4.71484V5.53622L5.71484 5.53613ZM9.25 2V3C10.6505 3 11.7861 4.13564 11.7861 5.53613H12.7861H13.7861C13.7861 3.03107 11.7551 1 9.25 1V2ZM12.7861 5.53613L11.7861 5.53605C11.7861 5.62026 11.7806 5.70976 11.7702 5.80757L12.7646 5.91309L13.7591 6.01861C13.775 5.8686 13.7861 5.70679 13.7861 5.53622L12.7861 5.53613ZM12.7646 5.91309L13.104 6.85374C13.3716 6.75721 13.6611 6.7041 13.9648 6.7041V5.7041V4.7041C13.426 4.7041 12.9071 4.79861 12.4253 4.97243L12.7646 5.91309ZM13.9648 5.7041L13.9648 6.7041C15.3653 6.70415 16.501 7.83982 16.501 9.24023H17.501H18.501C18.501 6.73518 16.4698 4.70419 13.9649 4.7041L13.9648 5.7041ZM17.501 9.24023L16.501 9.24018C16.5009 10.2914 15.8602 11.1955 14.9436 11.5797L15.3301 12.502L15.7166 13.4242C17.3494 12.74 18.5009 11.1263 18.501 9.24029L17.501 9.24023ZM15.3301 12.502L14.4681 13.0089C14.6893 13.385 14.8164 13.8218 14.8164 14.2911L15.8164 14.291L16.8164 14.291C16.8164 13.4542 16.5883 12.6688 16.1921 11.995L15.3301 12.502ZM15.8164 14.291H14.8164C14.8164 15.6917 13.6813 16.8271 12.2812 16.8271L12.2812 17.8271L12.2813 18.8271C14.7865 18.827 16.8164 16.7957 16.8164 14.291H15.8164ZM12.2812 17.8271V16.8271C11.3599 16.8271 10.552 16.3361 10.1067 15.5965L9.25 16.1123L8.39331 16.6281C9.18518 17.9433 10.6294 18.8271 12.2812 18.8271V17.8271ZM9.25 16.1123L8.39336 15.5964C7.94783 16.3362 7.14057 16.8271 6.2197 16.8271L6.21973 17.8271L6.21976 18.8271C7.87176 18.8271 9.31494 17.9428 10.1066 16.6282L9.25 16.1123ZM6.21973 17.8271V16.8271C4.81923 16.8271 3.68359 15.6915 3.68359 14.291H2.68359H1.68359C1.68359 16.7961 3.71466 18.8271 6.21973 18.8271V17.8271ZM2.68359 14.291L3.68359 14.2911C3.68362 13.8212 3.81045 13.384 4.03105 13.0087L3.16895 12.502L2.30684 11.9952C1.91053 12.6695 1.68364 13.4554 1.68359 14.291L2.68359 14.291ZM3.16895 12.502L3.55582 11.5798C2.64016 11.1957 2.00006 10.2915 2 9.24018L1 9.24023L0 9.24029C0.000110924 11.1252 1.14971 12.7392 2.78208 13.4241L3.16895 12.502ZM1 9.24023H2C2 7.83974 3.13564 6.7041 4.53613 6.7041V5.7041V4.7041C2.03107 4.7041 0 6.73517 0 9.24023H1ZM4.53613 5.7041L4.53605 6.7041C4.83992 6.70413 5.12889 6.75691 5.39548 6.85293L5.73438 5.91211L6.07327 4.97128C5.59158 4.79778 5.07347 4.70415 4.53622 4.7041L4.53613 5.7041ZM5.73438 5.91211L6.72883 5.80691C6.71958 5.71956 6.71485 5.62925 6.71484 5.53605L5.71484 5.53613L4.71484 5.53622C4.71486 5.69703 4.72303 5.85758 4.73992 6.01731L5.73438 5.91211ZM5.71484 5.53613H6.71484C6.71484 4.13544 7.84993 3.0001 9.25007 3L9.25 2L9.24993 1C6.74476 1.00019 4.71484 3.03144 4.71484 5.53613H5.71484Z" fill="#4E56C0"/>
<path d="M15.9321 18.1515C17.8306 17.6943 19.7406 18.863 20.1978 20.7615C20.2276 20.8854 20.249 21.0095 20.2652 21.133C20.5978 20.9139 20.9735 20.7475 21.3831 20.6489C23.2816 20.1918 25.1917 21.3604 25.6488 23.2589C25.9926 24.6867 25.4161 26.1204 24.3019 26.9382C24.7249 27.3763 25.0406 27.9288 25.1935 28.5637C25.6507 30.4621 24.4828 32.3718 22.5845 32.8292C21.3336 33.1304 20.0779 32.7256 19.236 31.8716C18.8751 33.0151 17.9421 33.947 16.6914 34.2482C14.7929 34.7054 12.8829 33.5368 12.4257 31.6382C12.2729 31.0036 12.3017 30.3677 12.4787 29.7853C11.115 29.5639 9.9502 28.5493 9.60642 27.122C9.14925 25.2235 10.3179 23.3134 12.2164 22.8563C12.6253 22.7578 13.0348 22.7345 13.4301 22.778C13.3884 22.6609 13.3528 22.5405 13.3231 22.417C12.8659 20.5186 14.0337 18.6088 15.9321 18.1515Z" fill="#E1B37A"/>
<path d="M15.9321 18.1515L15.698 17.1793L15.6979 17.1793L15.9321 18.1515ZM20.1978 20.7615L21.1701 20.5275L21.17 20.5274L20.1978 20.7615ZM20.2652 21.133L19.2737 21.2632L19.4817 22.8467L20.8153 21.9681L20.2652 21.133ZM21.3831 20.6489L21.149 19.6767L21.149 19.6767L21.3831 20.6489ZM25.6488 23.2589L26.621 23.0248L26.621 23.0248L25.6488 23.2589ZM24.3019 26.9382L23.7102 26.132L22.7873 26.8093L23.5825 27.6328L24.3019 26.9382ZM25.1935 28.5637L26.1657 28.3296L26.1657 28.3295L25.1935 28.5637ZM22.5845 32.8292L22.8186 33.8014L22.8187 33.8013L22.5845 32.8292ZM19.236 31.8716L19.9481 31.1696L18.7822 29.987L18.2824 31.5706L19.236 31.8716ZM16.6914 34.2482L16.9255 35.2205L16.9256 35.2204L16.6914 34.2482ZM12.4257 31.6382L11.4535 31.8723L11.4535 31.8724L12.4257 31.6382ZM12.4787 29.7853L13.4355 30.0761L13.7682 28.9815L12.639 28.7982L12.4787 29.7853ZM9.60642 27.122L8.63421 27.3561L8.63422 27.3562L9.60642 27.122ZM12.2164 22.8563L11.9824 21.884L11.9823 21.8841L12.2164 22.8563ZM13.4301 22.778L13.3209 23.772L14.9069 23.9462L14.3722 22.4429L13.4301 22.778ZM13.3231 22.417L12.3508 22.6511L12.3509 22.6512L13.3231 22.417ZM15.9321 18.1515L16.1662 19.1237C17.5278 18.7959 18.8977 19.6341 19.2256 20.9956L20.1978 20.7615L21.17 20.5274C20.5836 18.092 18.1334 16.5928 15.698 17.1793L15.9321 18.1515ZM20.1978 20.7615L19.2256 20.9956C19.2453 21.0774 19.2609 21.1657 19.2737 21.2632L20.2652 21.133L21.2567 21.0028C21.237 20.8532 21.21 20.6933 21.1701 20.5275L20.1978 20.7615ZM20.2652 21.133L20.8153 21.9681C21.0529 21.8116 21.3219 21.6922 21.6172 21.6211L21.3831 20.6489L21.149 19.6767C20.6251 19.8028 20.1428 20.0162 19.715 20.298L20.2652 21.133ZM21.3831 20.6489L21.6172 21.6211C22.9788 21.2933 24.3488 22.1315 24.6766 23.493L25.6488 23.2589L26.621 23.0248C26.0346 20.5893 23.5844 19.0903 21.149 19.6767L21.3831 20.6489ZM25.6488 23.2589L24.6766 23.4929C24.9226 24.5149 24.5114 25.544 23.7102 26.132L24.3019 26.9382L24.8936 27.7444C26.3208 26.6969 27.0625 24.8585 26.621 23.0248L25.6488 23.2589ZM24.3019 26.9382L23.5825 27.6328C23.8856 27.9467 24.1115 28.3417 24.2213 28.7978L25.1935 28.5637L26.1657 28.3295C25.9698 27.516 25.5641 26.8058 25.0212 26.2436L24.3019 26.9382ZM25.1935 28.5637L24.2213 28.7978C24.5492 30.1595 23.7115 31.529 22.3503 31.857L22.5845 32.8292L22.8187 33.8013C25.2541 33.2146 26.7521 30.7646 26.1657 28.3296L25.1935 28.5637ZM22.5845 32.8292L22.3504 31.8569C21.4546 32.0726 20.5542 31.7843 19.9481 31.1696L19.236 31.8716L18.5239 32.5737C19.6016 33.6669 21.2127 34.1881 22.8186 33.8014L22.5845 32.8292ZM19.236 31.8716L18.2824 31.5706C18.0224 32.3941 17.3525 33.0604 16.4573 33.276L16.6914 34.2482L16.9256 35.2204C18.5316 34.8336 19.7277 33.6361 20.1896 32.1726L19.236 31.8716ZM16.6914 34.2482L16.4573 33.276C15.0957 33.6039 13.7258 32.7657 13.3979 31.4041L12.4257 31.6382L11.4535 31.8724C12.0399 34.3078 14.4901 35.8069 16.9255 35.2205L16.6914 34.2482ZM12.4257 31.6382L13.3979 31.4042C13.2879 30.9474 13.3089 30.4926 13.4355 30.0761L12.4787 29.7853L11.5219 29.4945C11.2945 30.2428 11.2579 31.0599 11.4535 31.8723L12.4257 31.6382ZM12.4787 29.7853L12.639 28.7982C11.6588 28.6391 10.8248 27.9099 10.5786 26.8878L9.60642 27.122L8.63422 27.3562C9.07561 29.1886 10.5712 30.4887 12.3185 30.7724L12.4787 29.7853ZM9.60642 27.122L10.5786 26.8879C10.2508 25.5263 11.089 24.1563 12.4505 23.8285L12.2164 22.8563L11.9823 21.8841C9.54686 22.4705 8.04774 24.9206 8.63421 27.3561L9.60642 27.122ZM12.2164 22.8563L12.4505 23.8285C12.7459 23.7574 13.0392 23.741 13.3209 23.772L13.4301 22.778L13.5393 21.7839C13.0304 21.728 12.5047 21.7583 11.9824 21.884L12.2164 22.8563ZM13.4301 22.778L14.3722 22.4429C14.3428 22.3601 14.3171 22.2734 14.2952 22.1828L13.3231 22.417L12.3509 22.6512C12.3885 22.8075 12.4341 22.9617 12.4879 23.1131L13.4301 22.778ZM13.3231 22.417L14.2953 22.1829C13.9673 20.8211 14.8051 19.4516 16.1663 19.1237L15.9321 18.1515L15.6979 17.1793C13.2624 17.766 11.7645 20.216 12.3508 22.6511L13.3231 22.417Z" fill="#4E56C0"/>
<path d="M32.5784 28.1732C34.5312 28.1732 36.1145 29.7566 36.1145 31.7094C36.1145 31.8367 36.1062 31.9624 36.093 32.0863C36.4677 31.9512 36.872 31.8773 37.2932 31.8773C39.2459 31.8775 40.8284 33.4608 40.8284 35.4135C40.8283 36.882 39.9331 38.141 38.6584 38.6752C38.9671 39.2001 39.1447 39.8112 39.1448 40.4642C39.1448 42.4169 37.5622 44.0002 35.6096 44.0004C34.323 44.0004 33.197 43.3129 32.5784 42.2855C31.9598 43.3127 30.8345 44.0003 29.5481 44.0004C27.5953 44.0004 26.012 42.417 26.012 40.4642C26.012 39.8115 26.1888 39.2 26.4973 38.6752C25.2233 38.1407 24.3285 36.8816 24.3284 35.4135C24.3284 33.4607 25.9117 31.8773 27.8645 31.8773C28.2851 31.8774 28.6886 31.9506 29.0627 32.0853C29.0497 31.9618 29.0432 31.8364 29.0432 31.7094C29.0432 29.7567 30.6257 28.1734 32.5784 28.1732Z" fill="#F5E499"/>
<path d="M32.5784 28.1732V27.1732H32.5783L32.5784 28.1732ZM36.1145 31.7094L37.1145 31.7094V31.7094H36.1145ZM36.093 32.0863L35.0986 31.9808L34.9301 33.5689L36.4323 33.027L36.093 32.0863ZM37.2932 31.8773L37.2933 30.8773H37.2932V31.8773ZM40.8284 35.4135L41.8284 35.4135V35.4135H40.8284ZM38.6584 38.6752L38.2719 37.7529L37.2162 38.1954L37.7964 39.1821L38.6584 38.6752ZM39.1448 40.4642H40.1448V40.4642L39.1448 40.4642ZM35.6096 44.0004V45.0004H35.6097L35.6096 44.0004ZM32.5784 42.2855L33.4351 41.7697L32.5784 40.347L31.7217 41.7696L32.5784 42.2855ZM29.5481 44.0004V45.0004H29.5482L29.5481 44.0004ZM26.012 40.4642L25.012 40.4642V40.4642H26.012ZM26.4973 38.6752L27.3594 39.1819L27.9392 38.1956L26.8842 37.753L26.4973 38.6752ZM24.3284 35.4135H23.3284V35.4135L24.3284 35.4135ZM27.8645 31.8773L27.8646 30.8773H27.8645V31.8773ZM29.0627 32.0853L28.7238 33.0262L30.2251 33.5669L30.0572 31.9801L29.0627 32.0853ZM29.0432 31.7094H28.0432V31.7094L29.0432 31.7094ZM32.5784 28.1732V29.1732C33.9789 29.1732 35.1145 30.3089 35.1145 31.7094H36.1145H37.1145C37.1145 29.2043 35.0834 27.1732 32.5784 27.1732V28.1732ZM36.1145 31.7094L35.1145 31.7093C35.1145 31.7935 35.109 31.883 35.0986 31.9808L36.093 32.0863L37.0874 32.1918C37.1034 32.0418 37.1145 31.88 37.1145 31.7094L36.1145 31.7094ZM36.093 32.0863L36.4323 33.027C36.6999 32.9305 36.9895 32.8773 37.2932 32.8773V31.8773V30.8773C36.7544 30.8773 36.2354 30.9719 35.7537 31.1456L36.093 32.0863ZM37.2932 31.8773L37.2931 32.8773C38.6933 32.8774 39.8284 34.0128 39.8284 35.4135H40.8284H41.8284C41.8284 32.9088 39.7985 30.8775 37.2933 30.8773L37.2932 31.8773ZM40.8284 35.4135L39.8284 35.4134C39.8283 36.465 39.1881 37.3689 38.2719 37.7529L38.6584 38.6752L39.045 39.5975C40.6781 38.913 41.8283 37.2991 41.8284 35.4135L40.8284 35.4135ZM38.6584 38.6752L37.7964 39.1821C38.0176 39.5582 38.1448 39.9951 38.1448 40.4643L39.1448 40.4642L40.1448 40.4642C40.1447 39.6274 39.9166 38.842 39.5204 38.1683L38.6584 38.6752ZM39.1448 40.4642H38.1448C38.1448 41.8649 37.0097 43.0002 35.6095 43.0004L35.6096 44.0004L35.6097 45.0004C38.1148 45.0001 40.1448 42.9689 40.1448 40.4642H39.1448ZM35.6096 44.0004V43.0004C34.6883 43.0004 33.8804 42.5093 33.4351 41.7697L32.5784 42.2855L31.7217 42.8014C32.5136 44.1165 33.9578 45.0004 35.6096 45.0004V44.0004ZM32.5784 42.2855L31.7217 41.7696C31.2763 42.5093 30.4689 43.0003 29.548 43.0004L29.5481 44.0004L29.5482 45.0004C31.2001 45.0003 32.6433 44.1161 33.435 42.8014L32.5784 42.2855ZM29.5481 44.0004V43.0004C28.1476 43.0004 27.012 41.8647 27.012 40.4642H26.012H25.012C25.012 42.9693 27.043 45.0004 29.5481 45.0004V44.0004ZM26.012 40.4642L27.012 40.4643C27.012 39.9944 27.1388 39.5572 27.3594 39.1819L26.4973 38.6752L25.6352 38.1684C25.2389 38.8427 25.012 39.6286 25.012 40.4642L26.012 40.4642ZM26.4973 38.6752L26.8842 37.753C25.9685 37.3689 25.3284 36.4647 25.3284 35.4134L24.3284 35.4135L23.3284 35.4135C23.3285 37.2984 24.4781 38.9125 26.1104 39.5973L26.4973 38.6752ZM24.3284 35.4135H25.3284C25.3284 34.013 26.464 32.8773 27.8645 32.8773V31.8773V30.8773C25.3594 30.8773 23.3284 32.9084 23.3284 35.4135H24.3284ZM27.8645 31.8773L27.8644 32.8773C28.1683 32.8774 28.4573 32.9301 28.7238 33.0262L29.0627 32.0853L29.4016 31.1445C28.9199 30.971 28.4018 30.8774 27.8646 30.8773L27.8645 31.8773ZM29.0627 32.0853L30.0572 31.9801C30.048 31.8928 30.0432 31.8025 30.0432 31.7093L29.0432 31.7094L28.0432 31.7094C28.0432 31.8703 28.0514 32.0308 28.0683 32.1905L29.0627 32.0853ZM29.0432 31.7094H30.0432C30.0432 30.3087 31.1783 29.1733 32.5784 29.1732L32.5784 28.1732L32.5783 27.1732C30.0731 27.1734 28.0432 29.2047 28.0432 31.7094H29.0432Z" fill="#4E56C0"/>
<path d="M49.3861 18.1921C51.2746 18.6891 52.4028 20.6233 51.9058 22.5118C51.8733 22.635 51.8333 22.7544 51.789 22.8709C52.1858 22.8355 52.5955 22.867 53.0029 22.9743C54.8912 23.4714 56.0186 25.4053 55.5216 27.2937C55.1477 28.7139 53.9616 29.7035 52.5929 29.8957C52.7579 30.4819 52.7741 31.1181 52.6079 31.7496C52.1109 33.638 50.1775 34.7663 48.2891 34.2695C47.0449 33.942 46.1309 32.9906 45.7942 31.8396C44.9345 32.6755 43.6713 33.054 42.4272 32.7267C40.5388 32.2297 39.4106 30.2955 39.9076 28.407C40.0738 27.7757 40.4004 27.2294 40.8323 26.8004C39.7363 25.9592 39.1914 24.5138 39.565 23.094C40.062 21.2056 41.9962 20.0774 43.8847 20.5744C44.2914 20.6815 44.663 20.855 44.9906 21.0805C45.0094 20.9577 45.0341 20.8346 45.0664 20.7117C45.5634 18.8233 47.4977 17.6952 49.3861 18.1921Z" fill="#EE8FD5"/>
<path d="M49.3861 18.1921L49.6407 17.225L49.6406 17.225L49.3861 18.1921ZM51.9058 22.5118L52.8728 22.7664L52.8728 22.7663L51.9058 22.5118ZM51.789 22.8709L50.8542 22.5157L50.2871 24.0087L51.8778 23.8669L51.789 22.8709ZM53.0029 22.9743L53.2575 22.0072L53.2574 22.0072L53.0029 22.9743ZM55.5216 27.2937L56.4886 27.5483L56.4887 27.5482L55.5216 27.2937ZM52.5929 29.8957L52.4539 28.9054L51.3203 29.0646L51.6303 30.1665L52.5929 29.8957ZM52.6079 31.7496L53.575 32.0042L53.575 32.0041L52.6079 31.7496ZM48.2891 34.2695L48.0346 35.2366L48.0347 35.2366L48.2891 34.2695ZM45.7942 31.8396L46.7539 31.5588L46.2876 29.965L45.097 31.1227L45.7942 31.8396ZM42.4272 32.7267L42.1727 33.6938L42.1728 33.6938L42.4272 32.7267ZM39.9076 28.407L38.9405 28.1524L38.9405 28.1525L39.9076 28.407ZM40.8323 26.8004L41.5371 27.5099L42.3487 26.7036L41.4412 26.0071L40.8323 26.8004ZM39.565 23.094L38.5979 22.8395L38.5979 22.8396L39.565 23.094ZM43.8847 20.5744L44.1393 19.6074L44.1392 19.6073L43.8847 20.5744ZM44.9906 21.0805L44.4234 21.9041L45.7375 22.8092L45.979 21.2319L44.9906 21.0805ZM45.0664 20.7117L44.0994 20.4572L44.0993 20.4573L45.0664 20.7117ZM49.3861 18.1921L49.1316 19.1592C50.486 19.5156 51.2952 20.9029 50.9387 22.2573L51.9058 22.5118L52.8728 22.7663C53.5104 20.3438 52.0632 17.8626 49.6407 17.225L49.3861 18.1921ZM51.9058 22.5118L50.9387 22.2572C50.9173 22.3386 50.8892 22.4238 50.8542 22.5157L51.789 22.8709L52.7239 23.226C52.7774 23.085 52.8294 22.9314 52.8728 22.7664L51.9058 22.5118ZM51.789 22.8709L51.8778 23.8669C52.1611 23.8417 52.4546 23.864 52.7484 23.9413L53.0029 22.9743L53.2574 22.0072C52.7364 21.87 52.2104 21.8294 51.7003 21.8748L51.789 22.8709ZM53.0029 22.9743L52.7483 23.9413C54.1023 24.2978 54.911 25.6846 54.5545 27.0392L55.5216 27.2937L56.4887 27.5482C57.1262 25.126 55.6802 22.645 53.2575 22.0072L53.0029 22.9743ZM55.5216 27.2937L54.5545 27.0391C54.2868 28.0561 53.4376 28.7673 52.4539 28.9054L52.5929 29.8957L52.732 30.886C54.4856 30.6398 56.0086 29.3717 56.4886 27.5483L55.5216 27.2937ZM52.5929 29.8957L51.6303 30.1665C51.7485 30.5866 51.7602 31.0414 51.6408 31.4952L52.6079 31.7496L53.575 32.0041C53.7879 31.1949 53.7672 30.3773 53.5556 29.6249L52.5929 29.8957ZM52.6079 31.7496L51.6408 31.4951C51.2843 32.8496 49.8976 33.6587 48.5435 33.3024L48.2891 34.2695L48.0347 35.2366C50.4573 35.874 52.9374 34.4264 53.575 32.0042L52.6079 31.7496ZM48.2891 34.2695L48.5436 33.3025C47.6527 33.0679 46.9964 32.3874 46.7539 31.5588L45.7942 31.8396L44.8344 32.1204C45.2655 33.5938 46.4372 34.8161 48.0346 35.2366L48.2891 34.2695ZM45.7942 31.8396L45.097 31.1227C44.478 31.7246 43.5723 31.994 42.6817 31.7596L42.4272 32.7267L42.1728 33.6938C43.7703 34.1141 45.3911 33.6264 46.4913 32.5566L45.7942 31.8396ZM42.4272 32.7267L42.6818 31.7596C41.3274 31.4032 40.5182 30.0159 40.8747 28.6615L39.9076 28.407L38.9405 28.1525C38.3029 30.575 39.7501 33.0562 42.1727 33.6938L42.4272 32.7267ZM39.9076 28.407L40.8746 28.6616C40.9943 28.2072 41.2282 27.8167 41.5371 27.5099L40.8323 26.8004L40.1276 26.0909C39.5727 26.6421 39.1533 27.3443 38.9405 28.1524L39.9076 28.407ZM40.8323 26.8004L41.4412 26.0071C40.6534 25.4025 40.2646 24.3652 40.5321 23.3485L39.565 23.094L38.5979 22.8396C38.1183 24.6624 38.8192 26.5159 40.2235 27.5937L40.8323 26.8004ZM39.565 23.094L40.5321 23.3486C40.8885 21.9942 42.2758 21.185 43.6302 21.5415L43.8847 20.5744L44.1392 19.6073C41.7167 18.9697 39.2355 20.4169 38.5979 22.8395L39.565 23.094ZM43.8847 20.5744L43.6301 21.5414C43.924 21.6188 44.19 21.7434 44.4234 21.9041L44.9906 21.0805L45.5578 20.257C45.1361 19.9666 44.6589 19.7441 44.1393 19.6074L43.8847 20.5744ZM44.9906 21.0805L45.979 21.2319C45.9931 21.1399 46.0111 21.0514 46.0335 20.9662L45.0664 20.7117L44.0993 20.4573C44.0571 20.6177 44.0256 20.7756 44.0021 20.9292L44.9906 21.0805ZM45.0664 20.7117L46.0335 20.9663C46.3899 19.612 47.7773 18.8028 49.1316 19.1592L49.3861 18.1921L49.6406 17.225C47.2182 16.5876 44.737 18.0346 44.0994 20.4572L45.0664 20.7117Z" fill="#4E56C0"/>
<path d="M55.9066 2C57.8594 2 59.4427 3.58335 59.4427 5.53613C59.4427 5.66353 59.4344 5.78918 59.4213 5.91309C59.7959 5.77791 60.2002 5.7041 60.6215 5.7041C62.5742 5.70419 64.1576 7.28751 64.1576 9.24023C64.1575 10.7088 63.2614 11.9678 61.9867 12.502C62.2954 13.0269 62.473 13.638 62.473 14.291C62.473 16.2437 60.8905 17.827 58.9379 17.8271C57.6513 17.8271 56.5252 17.1397 55.9066 16.1123C55.288 17.1395 54.1628 17.8271 52.8763 17.8271C50.9236 17.8271 49.3402 16.2438 49.3402 14.291C49.3402 13.6383 49.5171 13.0267 49.8256 12.502C48.5515 11.9675 47.6567 10.7084 47.6566 9.24023C47.6566 7.28745 49.24 5.7041 51.1927 5.7041C51.6133 5.70414 52.0169 5.77734 52.391 5.91211C52.3779 5.78857 52.3715 5.66314 52.3715 5.53613C52.3715 3.58347 53.954 2.00019 55.9066 2Z" fill="#F5E499"/>
<path d="M55.9066 2V1H55.9065L55.9066 2ZM59.4427 5.53613L60.4427 5.53622V5.53613H59.4427ZM59.4213 5.91309L58.4268 5.80756L58.2583 7.39572L59.7606 6.85374L59.4213 5.91309ZM60.6215 5.7041L60.6215 4.7041H60.6215V5.7041ZM64.1576 9.24023L65.1576 9.24029V9.24023H64.1576ZM61.9867 12.502L61.6002 11.5797L60.5444 12.0221L61.1247 13.0089L61.9867 12.502ZM62.473 14.291H63.473V14.291L62.473 14.291ZM58.9379 17.8271V18.8271H58.9379L58.9379 17.8271ZM55.9066 16.1123L56.7633 15.5965L55.9067 14.1738L55.05 15.5964L55.9066 16.1123ZM52.8763 17.8271V18.8271H52.8764L52.8763 17.8271ZM49.3402 14.291L48.3402 14.291V14.291H49.3402ZM49.8256 12.502L50.6877 13.0087L51.2674 12.0224L50.2124 11.5798L49.8256 12.502ZM47.6566 9.24023H46.6566V9.24029L47.6566 9.24023ZM51.1927 5.7041L51.1928 4.7041H51.1927V5.7041ZM52.391 5.91211L52.0521 6.85293L53.5533 7.3937L53.3854 5.80691L52.391 5.91211ZM52.3715 5.53613H51.3715V5.53622L52.3715 5.53613ZM55.9066 2V3C57.3071 3 58.4427 4.13564 58.4427 5.53613H59.4427H60.4427C60.4427 3.03107 58.4117 1 55.9066 1V2ZM59.4427 5.53613L58.4427 5.53605C58.4427 5.62027 58.4372 5.70976 58.4268 5.80756L59.4213 5.91309L60.4157 6.01861C60.4316 5.8686 60.4427 5.70679 60.4427 5.53622L59.4427 5.53613ZM59.4213 5.91309L59.7606 6.85374C60.0282 6.75721 60.3177 6.7041 60.6215 6.7041V5.7041V4.7041C60.0827 4.7041 59.5637 4.79862 59.0819 4.97243L59.4213 5.91309ZM60.6215 5.7041L60.6214 6.7041C62.0219 6.70417 63.1576 7.83984 63.1576 9.24023H64.1576H65.1576C65.1576 6.73518 63.1264 4.70422 60.6215 4.7041L60.6215 5.7041ZM64.1576 9.24023L63.1576 9.24018C63.1575 10.2914 62.5168 11.1955 61.6002 11.5797L61.9867 12.502L62.3732 13.4242C64.006 12.74 65.1575 11.1263 65.1576 9.24029L64.1576 9.24023ZM61.9867 12.502L61.1247 13.0089C61.3459 13.385 61.473 13.8218 61.473 14.2911L62.473 14.291L63.473 14.291C63.473 13.4542 63.2449 12.6688 62.8487 11.995L61.9867 12.502ZM62.473 14.291H61.473C61.473 15.6917 60.3379 16.827 58.9378 16.8271L58.9379 17.8271L58.9379 18.8271C61.4431 18.827 63.473 16.7957 63.473 14.291H62.473ZM58.9379 17.8271V16.8271C58.0165 16.8271 57.2086 16.336 56.7633 15.5965L55.9066 16.1123L55.0499 16.6281C55.8418 17.9433 57.286 18.8271 58.9379 18.8271V17.8271ZM55.9066 16.1123L55.05 15.5964C54.6045 16.3362 53.7972 16.8271 52.8763 16.8271L52.8763 17.8271L52.8764 18.8271C54.5284 18.8271 55.9716 17.9428 56.7633 16.6282L55.9066 16.1123ZM52.8763 17.8271V16.8271C51.4758 16.8271 50.3402 15.6915 50.3402 14.291H49.3402H48.3402C48.3402 16.7961 50.3713 18.8271 52.8763 18.8271V17.8271ZM49.3402 14.291L50.3402 14.2911C50.3402 13.8212 50.4671 13.384 50.6877 13.0087L49.8256 12.502L48.9635 11.9952C48.5671 12.6695 48.3403 13.4553 48.3402 14.291L49.3402 14.291ZM49.8256 12.502L50.2124 11.5798C49.2968 11.1957 48.6567 10.2915 48.6566 9.24018L47.6566 9.24023L46.6566 9.24029C46.6567 11.1252 47.8063 12.7393 49.4387 13.4241L49.8256 12.502ZM47.6566 9.24023H48.6566C48.6566 7.83974 49.7923 6.7041 51.1927 6.7041V5.7041V4.7041C48.6877 4.7041 46.6566 6.73517 46.6566 9.24023H47.6566ZM51.1927 5.7041L51.1927 6.7041C51.4965 6.70413 51.7855 6.75691 52.0521 6.85293L52.391 5.91211L52.7299 4.97129C52.2482 4.79777 51.7301 4.70415 51.1928 4.7041L51.1927 5.7041ZM52.391 5.91211L53.3854 5.80691C53.3762 5.71956 53.3715 5.62924 53.3715 5.53605L52.3715 5.53613L51.3715 5.53622C51.3715 5.69703 51.3796 5.85758 51.3965 6.01731L52.391 5.91211ZM52.3715 5.53613H53.3715C53.3715 4.13549 54.5066 3.00013 55.9067 3L55.9066 2L55.9065 1C53.4014 1.00024 51.3715 3.03145 51.3715 5.53613H52.3715Z" fill="#4E56C0"/>
</svg>
