<svg width="149" height="43" viewBox="0 0 149 43" fill="none" xmlns="http://www.w3.org/2000/svg">
<g clip-path="url(#clip0_2363_2)">
<path fill-rule="evenodd" clip-rule="evenodd" d="M17.263 1.1365C26.6009 -0.715856 43.9503 -0.277246 54.0951 2.25759C61.9576 4.22221 71.1487 8.20273 74.8246 8.40505H74.8373C78.4745 8.2062 87.0444 4.28463 94.9066 2.32009C105.051 -0.214585 122.401 -0.653318 131.739 1.199C139.208 2.68082 146.187 3.83142 148.743 4.22146C149.165 6.41496 149.377 11.1924 146.841 12.7527C143.672 14.702 143.094 17.8206 142.921 18.407C142.748 18.992 137.676 35.1752 132.834 38.0525C127.993 40.9286 122.458 42.6838 113.409 42.9763C104.359 43.2687 96.5197 40.7336 92.0814 36.9314C87.6432 33.1292 84.6458 28.6444 82.1673 23.4773C80.3359 19.6592 79.3427 14.8977 77.2103 14.7996C76.8896 14.7849 76.6004 14.7606 76.3412 14.7351C72.6811 14.7326 73.4679 14.6604 71.7914 14.7371C69.6587 14.8347 68.6658 19.5956 66.8343 23.4138C64.3558 28.581 61.3575 33.0667 56.9193 36.8689C52.4808 40.6709 44.6413 43.2053 35.5921 42.9129C26.5429 42.6203 21.0091 40.866 16.1673 37.99C11.3275 35.1151 6.25728 18.942 6.08042 18.3445C5.9075 17.7595 5.33063 14.6392 2.1605 12.6892C-0.37532 11.1293 -0.164483 6.35178 0.258152 4.15798C2.81356 3.768 9.7928 2.61843 17.263 1.1365ZM118.626 2.74783C112.19 2.359 105.765 1.5692 96.7982 3.88357C92.3588 5.02943 88.9858 6.21899 86.7376 7.91091C85.604 8.76421 84.7465 9.7522 84.1839 10.9324C83.6219 12.1118 83.3668 13.4565 83.3968 15.0047C83.4665 18.5983 85.2784 23.0597 87.7816 27.031C90.2873 31.0062 93.5481 34.5889 96.6126 36.3875C102.366 39.7634 108.995 41.6335 119.992 40.1082C125.522 39.3409 129.264 37.4629 131.893 34.8035C134.514 32.1522 135.985 28.7688 137.061 25.0799C137.917 22.1437 138.416 20.006 138.692 18.5232C138.829 17.7822 138.912 17.2006 138.955 16.7625C138.992 16.3867 139.001 16.0915 138.985 15.8855C139.177 14.6453 139.202 12.7227 138.658 10.8562C138.101 8.9481 136.936 7.0508 134.709 6.05642C129.497 3.72857 125.102 3.139 118.626 2.74783ZM52.2025 3.82009C43.2354 1.50569 36.8106 2.29553 30.3744 2.68435C23.8991 3.07553 19.5038 3.66501 14.2914 5.99294C12.0652 6.98732 10.8993 8.88469 10.3431 10.7927C9.79928 12.6591 9.82392 14.582 10.016 15.822C9.99943 16.028 10.0083 16.3236 10.0453 16.699C10.0884 17.1371 10.1712 17.719 10.3089 18.4597C10.5846 19.9425 11.0835 22.0806 11.9398 25.0164C13.0157 28.7052 14.4869 32.0888 17.1078 34.74C19.737 37.3994 23.4788 39.2774 29.0091 40.0447C40.0058 41.5701 46.635 39.7 52.388 36.324C55.4525 34.5256 58.7134 30.9427 61.2191 26.9676C63.7222 22.9963 65.5341 18.5347 65.6039 14.9412C65.6338 13.3932 65.3787 12.0483 64.8167 10.8689C64.2542 9.68877 63.3966 8.70071 62.263 7.84744C60.0149 6.1555 56.6419 4.96596 52.2025 3.82009Z" fill="#4E56C0"/>
</g>
<defs>
<clipPath id="clip0_2363_2">
<rect width="149.001" height="42.9992" fill="white"/>
</clipPath>
</defs>
</svg>
