<svg width="300" height="300" viewBox="0 0 300 300" fill="none" xmlns="http://www.w3.org/2000/svg">
<path d="M80.649 188.008C83.261 195.18 96.6125 208.527 104.594 214.027C112.36 214.027 125 229.5 103.5 227.5C75.4314 224.889 69 212.123 69 207.681C69 204.127 73.5302 204.72 75.4717 207.681C65.117 191.181 77.4132 179.124 80.649 188.008Z" fill="#FBBD76" stroke="#4E56C0" stroke-width="3" stroke-linejoin="round"/>
<path d="M105.096 226.5C103.896 202.9 114.262 180.333 119.596 172L182.096 170C185.596 174.167 193.296 190.3 196.096 221.5C198.896 252.7 179.929 259.5 170.096 259C163.596 263 158.596 260.5 155.096 259C152.296 257.8 150.262 233.5 149.596 221.5C149.429 232.833 148.396 256.2 145.596 259C142.796 261.8 133.429 260.167 129.096 259C121.096 258.5 106.596 256 105.096 226.5Z" fill="#FFDFAD"/>
<path d="M180.727 167H121.727C121.727 167 93.7109 214.923 110.727 236.5C133.596 265.5 168.096 268 191.227 236.5C207.473 214.375 180.727 167 180.727 167Z" fill="#FFDFAD"/>
<path d="M125.096 221C126.961 233.032 127.108 257.497 130.771 259.102C135.35 261.107 139.929 262.11 144.508 259.102C148.171 256.695 149.426 232.698 149.596 221" stroke="#4E56C0" stroke-width="3" stroke-linecap="round"/>
<path d="M175.096 221C173.23 233.032 173.084 257.497 169.42 259.102C164.841 261.107 160.262 262.11 155.684 259.102C152.02 256.695 150.765 232.698 150.596 221" stroke="#4E56C0" stroke-width="3" stroke-linecap="round"/>
<path d="M129.096 259C125.096 259.333 115.796 258.1 110.596 250.5C105.396 242.9 105.096 225.667 105.596 218C106.762 205.5 111.096 178.8 119.096 172" stroke="#4E56C0" stroke-width="3" stroke-linecap="round"/>
<path d="M172.596 259C176.596 259.333 185.896 258.1 191.096 250.5C196.296 242.9 196.596 225.667 196.096 218C194.929 205.5 190.596 178.8 182.596 172" stroke="#4E56C0" stroke-width="3" stroke-linecap="round"/>
<path d="M145.596 258.5C147.096 260 152.596 260 154.096 258.5" stroke="#4E56C0" stroke-width="3" stroke-linecap="round"/>
<path d="M150.5 41.5C190.917 41.5 223.5 72.0411 223.5 109.5C223.5 146.959 190.917 177.5 150.5 177.5C110.083 177.5 77.5 146.959 77.5 109.5C77.5 72.0411 110.083 41.5 150.5 41.5Z" fill="#FFE0AD" stroke="#4E56C0" stroke-width="3"/>
<path d="M71.5 81.5001C80.3 55.1001 95.1667 55.1667 101.5 58.5001C80.5 71.5001 91.5 113.5 93.5 138C95.5 162.5 91 182 71.5 174.5C62.7516 171.135 49.6712 136.21 52 120C54.8621 100.078 65.435 99.6951 71.5 81.5001Z" fill="#FBBD76" stroke="#4E56C0" stroke-width="3"/>
<path d="M231 81.5301C222.2 55.1301 207.333 55.1968 201 58.5301C222 71.5301 211 113.53 209 138.03C207 162.53 211.5 182.03 231 174.53C239.748 171.165 252.829 136.24 250.5 120.03C247.638 100.108 237.065 99.7252 231 81.5301Z" fill="#FBBD76" stroke="#4E56C0" stroke-width="3"/>
<ellipse cx="111.188" cy="125" rx="15.1875" ry="18" fill="white"/>
<ellipse cx="114" cy="125" rx="12.375" ry="18" fill="#4E56C0"/>
<path d="M114.526 113.087C114.74 112.47 115.564 112.356 115.937 112.892L118.203 116.14C118.35 116.35 118.587 116.477 118.843 116.482L122.803 116.564C123.456 116.577 123.819 117.325 123.425 117.846L121.036 121.005C120.881 121.209 120.834 121.474 120.908 121.719L122.054 125.51C122.243 126.135 121.644 126.711 121.027 126.498L117.284 125.202C117.043 125.118 116.776 125.155 116.566 125.301L113.314 127.563C112.778 127.936 112.045 127.544 112.058 126.891L112.134 122.931C112.139 122.675 112.021 122.433 111.817 122.278L108.661 119.885C108.141 119.49 108.287 118.672 108.912 118.482L112.702 117.331C112.946 117.256 113.141 117.069 113.225 116.828L114.526 113.087Z" fill="white"/>
<path d="M114.643 140.727C109.832 141.116 107.053 136.477 105.756 132.541C105.452 131.616 106.547 131.019 107.286 131.654C112.356 136.01 115.933 135.903 121.072 131.34C121.763 130.727 122.814 131.231 122.606 132.131C121.766 135.774 119.511 140.333 114.643 140.727Z" fill="#FBBD76"/>
<circle cx="105.562" cy="126.688" r="1.6875" fill="white"/>
<ellipse cx="190.188" cy="124" rx="15.1875" ry="18" fill="white"/>
<ellipse cx="187.375" cy="124" rx="12.375" ry="18" fill="#4E56C0"/>
<path d="M187.901 110.962C188.115 110.345 188.939 110.231 189.312 110.767L191.578 114.015C191.725 114.225 191.962 114.352 192.218 114.357L196.178 114.439C196.831 114.452 197.194 115.2 196.8 115.721L194.411 118.88C194.256 119.084 194.209 119.349 194.283 119.594L195.429 123.385C195.618 124.01 195.019 124.586 194.402 124.373L190.659 123.077C190.418 122.993 190.151 123.03 189.941 123.176L186.689 125.438C186.153 125.811 185.42 125.419 185.433 124.766L185.509 120.806C185.514 120.55 185.396 120.308 185.192 120.153L182.036 117.76C181.516 117.365 181.662 116.547 182.287 116.357L186.077 115.206C186.321 115.131 186.516 114.944 186.6 114.703L187.901 110.962Z" fill="white"/>
<path d="M188.018 138.602C183.207 138.991 180.428 134.352 179.131 130.416C178.827 129.491 179.922 128.894 180.661 129.529C185.731 133.885 189.308 133.778 194.447 129.215C195.138 128.602 196.189 129.106 195.981 130.006C195.141 133.649 192.886 138.208 188.018 138.602Z" fill="#FBBD76"/>
<circle cx="178.938" cy="124.562" r="1.6875" fill="white"/>
<path d="M152.684 147.676C151.143 149.01 148.857 149.01 147.316 147.676L143.591 144.449C140.721 141.964 142.479 137.25 146.275 137.25L153.725 137.25C157.521 137.25 159.279 141.964 156.409 144.449L152.684 147.676Z" fill="#4E56C0"/>
<path d="M139 150C143 155.333 147 155.333 150 150" stroke="#4E56C0" stroke-width="3" stroke-linecap="round"/>
<path d="M150 150C154 155.333 158 155.333 161 150" stroke="#4E56C0" stroke-width="3" stroke-linecap="round"/>
</svg>
