<svg width="563" height="134" viewBox="0 0 563 134" fill="none" xmlns="http://www.w3.org/2000/svg">
<g filter="url(#filter0_d_2484_2)">
<g filter="url(#filter1_d_2484_2)">
<mask id="path-1-outside-1_2484_2" maskUnits="userSpaceOnUse" x="15" y="9" width="535" height="104" fill="black">
<rect fill="white" x="15" y="9" width="535" height="104"/>
<path d="M262.756 13.0146C271.357 13.1637 279.616 14.4745 286.076 18.2773C287.117 18.8753 288.13 19.5385 289.099 20.2666C293.314 16.0602 298.732 14.1525 304.33 14.1523H328.811C336.663 14.1524 344.186 15.8769 350.594 20.0977C354.811 16.1012 360.124 14.3438 365.538 14.3438H400.002C405.072 14.3438 411.121 15.5099 415.9 19.9766C416.237 20.2909 416.556 20.613 416.86 20.9404C419.88 18.8067 423.251 17.2245 426.834 16.1221C432.318 14.4347 438.172 13.6719 444.282 13.6719L445.411 13.6797C451.036 13.7533 456.367 14.3845 461.279 15.7314C466.303 17.1089 471.203 19.3282 475.179 22.9287C478.794 19.7601 483.06 17.5429 487.678 16.1221C493.162 14.4347 499.015 13.6719 505.126 13.6719L506.255 13.6797C511.88 13.7533 517.211 14.3845 522.123 15.7314C527.275 17.1442 532.297 19.4434 536.325 23.209C540.927 27.4457 543.526 33.0977 543.526 39.4961C543.526 44.8414 542.007 50.5409 537.684 55.0957C537.648 55.1338 537.614 55.1733 537.578 55.2109C537.548 55.2427 537.515 55.2732 537.484 55.3047C538.56 56.3567 539.565 57.4986 540.484 58.7354C544.283 63.8434 545.639 69.8462 545.639 75.6885C545.639 82.4459 544.019 89.1436 539.783 94.792C539.761 94.8214 539.736 94.8541 539.71 94.8887C535.772 100.03 530.482 103.502 524.483 105.564C519.197 107.382 513.441 108.221 507.396 108.318L506.183 108.328C501.808 108.328 497.43 107.898 493.061 107.055L493.06 107.054C493.053 107.052 493.044 107.051 493.036 107.05C493.001 107.043 492.92 107.027 492.82 107.006C488.725 106.128 484.804 104.887 481.091 103.25L480.351 102.917C480.214 102.854 480.094 102.796 480.075 102.786C478.124 101.831 476.253 100.736 474.494 99.4873C471.317 102.19 467.636 104.191 463.64 105.564C458.353 107.382 452.597 108.221 446.552 108.318L445.339 108.328C440.964 108.328 436.586 107.898 432.217 107.055L432.216 107.054C432.209 107.052 432.201 107.051 432.192 107.05C432.157 107.043 432.076 107.027 431.977 107.006C427.881 106.128 423.961 104.887 420.247 103.25L419.507 102.917C419.37 102.854 419.251 102.796 419.231 102.786C418.362 102.36 417.508 101.906 416.673 101.424C416.645 101.45 416.618 101.475 416.59 101.501C416.589 101.502 416.588 101.503 416.587 101.504C416.558 101.532 416.521 101.566 416.479 101.606C416.469 101.615 416.459 101.623 416.449 101.632L416.45 101.633C416.448 101.635 416.446 101.636 416.444 101.638C416.409 101.67 416.37 101.707 416.327 101.745C416.286 101.781 416.243 101.815 416.202 101.851C411.055 106.406 404.41 107.689 398.578 107.833L397.41 107.848H380.226C376.362 107.848 372.571 107.493 368.874 106.755C368.881 106.756 368.888 106.758 368.896 106.76C368.88 106.757 368.865 106.754 368.849 106.751C368.832 106.748 368.815 106.745 368.798 106.741C364.849 105.933 361.128 104.434 357.762 102.193L357.724 102.231C353.206 106.438 347.616 107.946 342.372 108.036L341.866 108.04C336.116 108.04 330.217 106.221 325.654 101.501C325.598 101.443 325.553 101.394 325.533 101.373C325.524 101.363 325.515 101.353 325.514 101.352L325.52 101.357C324.837 100.627 324.217 99.8687 323.655 99.0859C322.932 100.132 322.089 101.139 321.107 102.086C316.812 106.227 311.46 107.932 306.186 108.035L305.675 108.04C301.41 108.04 296.917 107.073 292.959 104.483C289.292 106.902 285.137 107.955 281.029 108.035L280.52 108.04C276.362 108.04 271.987 107.121 268.104 104.677C263.332 107.476 257.931 108.616 252.487 108.616H251.623C244.063 108.616 237.002 106.389 230.984 101.728C230.976 101.721 230.961 101.709 230.942 101.695C230.93 101.686 230.916 101.676 230.901 101.664C230.874 101.643 230.84 101.617 230.803 101.587C227.724 99.1347 225.119 96.2607 222.947 93.0508C221.443 96.2993 219.459 99.3325 216.858 101.934C216.792 102 216.732 102.056 216.718 102.07C211.998 106.638 206.033 108.228 200.463 108.323L199.925 108.328C194.216 108.328 188.601 106.821 183.914 103.247C179.591 106.736 174.326 108.208 169.096 108.321L168.437 108.328C162.989 108.328 157.245 107.059 152.402 103.361C149.289 105.766 145.578 107.167 141.884 107.803L141.199 107.912C141.159 107.918 141.072 107.93 140.969 107.943C135.683 108.616 130.217 108.093 125.115 105.643C125.115 105.642 125.113 105.642 125.112 105.642C125.109 105.64 125.102 105.637 125.092 105.632C125.078 105.626 125.06 105.617 125.039 105.607L125.051 105.612L124.977 105.577L124.976 105.576C124.945 105.562 124.91 105.546 124.871 105.526L124.87 105.525C120.935 103.558 117.925 100.607 115.985 96.9844C114.096 100.539 111.174 103.481 107.296 105.47C102.137 108.115 96.5629 108.615 91.2822 107.943C91.2297 107.937 91.1361 107.925 91.0254 107.908C83.6914 106.814 76.5194 102.842 73.2734 94.5654C73.2854 94.5958 73.2942 94.6193 73.2988 94.6309C73.3012 94.6367 73.3032 94.6412 73.3037 94.6426L73.3027 94.6406C73.301 94.6362 73.2934 94.6177 73.2842 94.5947C73.2747 94.5709 73.2607 94.5352 73.2441 94.4922C72.084 91.4757 71.6192 88.3988 71.6445 85.3623C69.458 85.6972 67.2354 85.8643 64.9844 85.8643H63.7363C63.7363 91.2042 62.2818 97.1868 57.6279 101.835C57.5965 101.867 57.5663 101.901 57.5342 101.934C53.2901 106.178 47.9278 107.93 42.6475 108.035L42.1367 108.04H42.04C36.7992 108.04 31.3074 106.587 26.8086 102.623L26.376 102.231C26.3101 102.17 26.258 102.119 26.2363 102.098C26.2302 102.092 26.2242 102.087 26.2207 102.084C26.2198 102.083 26.2195 102.082 26.2188 102.081C26.2168 102.079 26.2148 102.078 26.2139 102.077L26.2158 102.078C21.369 97.3994 19.8643 91.2976 19.8643 85.8643V72.3281C19.8643 65.1033 20.8423 57.8866 23.9844 51.8896C20.4179 47.433 19.1015 42.145 19.0029 37.1416C19.002 37.0928 19.001 37.044 19.001 36.9951L19 36.2549C18.9999 36.209 19.0003 36.163 19.001 36.1172C19.0834 30.9346 20.6204 25.642 24.4482 21.2471L24.5068 21.1797L24.5547 21.126L24.5918 21.085C28.9072 16.3073 34.651 14.1523 40.6006 14.1523H65.8486C74.8091 14.1524 83.1279 16.9201 89.707 23.1689L89.8066 23.2607L89.8799 23.3311C89.8682 23.3198 89.8593 23.3103 89.8555 23.3066C89.8591 23.3101 89.8708 23.3216 89.8838 23.334C89.8973 23.3469 89.9166 23.3656 89.9395 23.3877C90.7605 24.1681 91.5189 24.9845 92.2207 25.833C94.634 22.32 97.727 19.3468 101.531 17.1729L101.602 17.1338L101.644 17.1104L101.657 17.1025C106.184 14.5877 111.169 13.6719 116.028 13.6719L116.709 13.6777C123.224 13.7937 129.929 15.5992 135.151 20.5264C137.699 18.2287 140.751 16.6992 143.91 15.8193C143.938 15.8115 143.967 15.8044 143.995 15.7969L144.345 15.7031L144.828 15.5781C149.847 14.3295 155.35 14.5396 160.516 17.2744L161.046 17.5654C162.381 18.323 163.572 19.199 164.631 20.165C167.328 17.8253 170.544 16.3375 173.81 15.5312L174.261 15.4238C179.747 14.1245 186.436 14.3889 192.08 18.9307C193.634 20.1444 194.966 21.5106 196.093 22.9883C196.117 22.9597 196.14 22.9309 196.164 22.9023C200.802 17.2992 207.227 14.7277 214.036 14.7275L214.631 14.7334C220.76 14.8607 227.064 16.9779 231.65 22.4404C231.661 22.4524 231.671 22.4646 231.682 22.4766C231.689 22.485 231.696 22.4935 231.703 22.502C231.752 22.5593 231.798 22.6172 231.846 22.6748C235.342 19.9237 239.216 17.747 243.437 16.1777C249.065 14.0456 254.958 13 261.031 13L262.756 13.0146ZM369.14 106.804L369.194 106.812C369.18 106.809 369.158 106.806 369.132 106.802C369.135 106.802 369.137 106.803 369.14 106.804ZM416.515 101.569C416.509 101.575 416.505 101.581 416.499 101.586C416.502 101.583 416.506 101.58 416.509 101.577C416.529 101.558 416.547 101.541 416.563 101.525C416.547 101.54 416.531 101.555 416.515 101.569Z"/>
</mask>
<path d="M262.756 13.0146C271.357 13.1637 279.616 14.4745 286.076 18.2773C287.117 18.8753 288.13 19.5385 289.099 20.2666C293.314 16.0602 298.732 14.1525 304.33 14.1523H328.811C336.663 14.1524 344.186 15.8769 350.594 20.0977C354.811 16.1012 360.124 14.3438 365.538 14.3438H400.002C405.072 14.3438 411.121 15.5099 415.9 19.9766C416.237 20.2909 416.556 20.613 416.86 20.9404C419.88 18.8067 423.251 17.2245 426.834 16.1221C432.318 14.4347 438.172 13.6719 444.282 13.6719L445.411 13.6797C451.036 13.7533 456.367 14.3845 461.279 15.7314C466.303 17.1089 471.203 19.3282 475.179 22.9287C478.794 19.7601 483.06 17.5429 487.678 16.1221C493.162 14.4347 499.015 13.6719 505.126 13.6719L506.255 13.6797C511.88 13.7533 517.211 14.3845 522.123 15.7314C527.275 17.1442 532.297 19.4434 536.325 23.209C540.927 27.4457 543.526 33.0977 543.526 39.4961C543.526 44.8414 542.007 50.5409 537.684 55.0957C537.648 55.1338 537.614 55.1733 537.578 55.2109C537.548 55.2427 537.515 55.2732 537.484 55.3047C538.56 56.3567 539.565 57.4986 540.484 58.7354C544.283 63.8434 545.639 69.8462 545.639 75.6885C545.639 82.4459 544.019 89.1436 539.783 94.792C539.761 94.8214 539.736 94.8541 539.71 94.8887C535.772 100.03 530.482 103.502 524.483 105.564C519.197 107.382 513.441 108.221 507.396 108.318L506.183 108.328C501.808 108.328 497.43 107.898 493.061 107.055L493.06 107.054C493.053 107.052 493.044 107.051 493.036 107.05C493.001 107.043 492.92 107.027 492.82 107.006C488.725 106.128 484.804 104.887 481.091 103.25L480.351 102.917C480.214 102.854 480.094 102.796 480.075 102.786C478.124 101.831 476.253 100.736 474.494 99.4873C471.317 102.19 467.636 104.191 463.64 105.564C458.353 107.382 452.597 108.221 446.552 108.318L445.339 108.328C440.964 108.328 436.586 107.898 432.217 107.055L432.216 107.054C432.209 107.052 432.201 107.051 432.192 107.05C432.157 107.043 432.076 107.027 431.977 107.006C427.881 106.128 423.961 104.887 420.247 103.25L419.507 102.917C419.37 102.854 419.251 102.796 419.231 102.786C418.362 102.36 417.508 101.906 416.673 101.424C416.645 101.45 416.618 101.475 416.59 101.501C416.589 101.502 416.588 101.503 416.587 101.504C416.558 101.532 416.521 101.566 416.479 101.606C416.469 101.615 416.459 101.623 416.449 101.632L416.45 101.633C416.448 101.635 416.446 101.636 416.444 101.638C416.409 101.67 416.37 101.707 416.327 101.745C416.286 101.781 416.243 101.815 416.202 101.851C411.055 106.406 404.41 107.689 398.578 107.833L397.41 107.848H380.226C376.362 107.848 372.571 107.493 368.874 106.755C368.881 106.756 368.888 106.758 368.896 106.76C368.88 106.757 368.865 106.754 368.849 106.751C368.832 106.748 368.815 106.745 368.798 106.741C364.849 105.933 361.128 104.434 357.762 102.193L357.724 102.231C353.206 106.438 347.616 107.946 342.372 108.036L341.866 108.04C336.116 108.04 330.217 106.221 325.654 101.501C325.598 101.443 325.553 101.394 325.533 101.373C325.524 101.363 325.515 101.353 325.514 101.352L325.52 101.357C324.837 100.627 324.217 99.8687 323.655 99.0859C322.932 100.132 322.089 101.139 321.107 102.086C316.812 106.227 311.46 107.932 306.186 108.035L305.675 108.04C301.41 108.04 296.917 107.073 292.959 104.483C289.292 106.902 285.137 107.955 281.029 108.035L280.52 108.04C276.362 108.04 271.987 107.121 268.104 104.677C263.332 107.476 257.931 108.616 252.487 108.616H251.623C244.063 108.616 237.002 106.389 230.984 101.728C230.976 101.721 230.961 101.709 230.942 101.695C230.93 101.686 230.916 101.676 230.901 101.664C230.874 101.643 230.84 101.617 230.803 101.587C227.724 99.1347 225.119 96.2607 222.947 93.0508C221.443 96.2993 219.459 99.3325 216.858 101.934C216.792 102 216.732 102.056 216.718 102.07C211.998 106.638 206.033 108.228 200.463 108.323L199.925 108.328C194.216 108.328 188.601 106.821 183.914 103.247C179.591 106.736 174.326 108.208 169.096 108.321L168.437 108.328C162.989 108.328 157.245 107.059 152.402 103.361C149.289 105.766 145.578 107.167 141.884 107.803L141.199 107.912C141.159 107.918 141.072 107.93 140.969 107.943C135.683 108.616 130.217 108.093 125.115 105.643C125.115 105.642 125.113 105.642 125.112 105.642C125.109 105.64 125.102 105.637 125.092 105.632C125.078 105.626 125.06 105.617 125.039 105.607L125.051 105.612L124.977 105.577L124.976 105.576C124.945 105.562 124.91 105.546 124.871 105.526L124.87 105.525C120.935 103.558 117.925 100.607 115.985 96.9844C114.096 100.539 111.174 103.481 107.296 105.47C102.137 108.115 96.5629 108.615 91.2822 107.943C91.2297 107.937 91.1361 107.925 91.0254 107.908C83.6914 106.814 76.5194 102.842 73.2734 94.5654C73.2854 94.5958 73.2942 94.6193 73.2988 94.6309C73.3012 94.6367 73.3032 94.6412 73.3037 94.6426L73.3027 94.6406C73.301 94.6362 73.2934 94.6177 73.2842 94.5947C73.2747 94.5709 73.2607 94.5352 73.2441 94.4922C72.084 91.4757 71.6192 88.3988 71.6445 85.3623C69.458 85.6972 67.2354 85.8643 64.9844 85.8643H63.7363C63.7363 91.2042 62.2818 97.1868 57.6279 101.835C57.5965 101.867 57.5663 101.901 57.5342 101.934C53.2901 106.178 47.9278 107.93 42.6475 108.035L42.1367 108.04H42.04C36.7992 108.04 31.3074 106.587 26.8086 102.623L26.376 102.231C26.3101 102.17 26.258 102.119 26.2363 102.098C26.2302 102.092 26.2242 102.087 26.2207 102.084C26.2198 102.083 26.2195 102.082 26.2188 102.081C26.2168 102.079 26.2148 102.078 26.2139 102.077L26.2158 102.078C21.369 97.3994 19.8643 91.2976 19.8643 85.8643V72.3281C19.8643 65.1033 20.8423 57.8866 23.9844 51.8896C20.4179 47.433 19.1015 42.145 19.0029 37.1416C19.002 37.0928 19.001 37.044 19.001 36.9951L19 36.2549C18.9999 36.209 19.0003 36.163 19.001 36.1172C19.0834 30.9346 20.6204 25.642 24.4482 21.2471L24.5068 21.1797L24.5547 21.126L24.5918 21.085C28.9072 16.3073 34.651 14.1523 40.6006 14.1523H65.8486C74.8091 14.1524 83.1279 16.9201 89.707 23.1689L89.8066 23.2607L89.8799 23.3311C89.8682 23.3198 89.8593 23.3103 89.8555 23.3066C89.8591 23.3101 89.8708 23.3216 89.8838 23.334C89.8973 23.3469 89.9166 23.3656 89.9395 23.3877C90.7605 24.1681 91.5189 24.9845 92.2207 25.833C94.634 22.32 97.727 19.3468 101.531 17.1729L101.602 17.1338L101.644 17.1104L101.657 17.1025C106.184 14.5877 111.169 13.6719 116.028 13.6719L116.709 13.6777C123.224 13.7937 129.929 15.5992 135.151 20.5264C137.699 18.2287 140.751 16.6992 143.91 15.8193C143.938 15.8115 143.967 15.8044 143.995 15.7969L144.345 15.7031L144.828 15.5781C149.847 14.3295 155.35 14.5396 160.516 17.2744L161.046 17.5654C162.381 18.323 163.572 19.199 164.631 20.165C167.328 17.8253 170.544 16.3375 173.81 15.5312L174.261 15.4238C179.747 14.1245 186.436 14.3889 192.08 18.9307C193.634 20.1444 194.966 21.5106 196.093 22.9883C196.117 22.9597 196.14 22.9309 196.164 22.9023C200.802 17.2992 207.227 14.7277 214.036 14.7275L214.631 14.7334C220.76 14.8607 227.064 16.9779 231.65 22.4404C231.661 22.4524 231.671 22.4646 231.682 22.4766C231.689 22.485 231.696 22.4935 231.703 22.502C231.752 22.5593 231.798 22.6172 231.846 22.6748C235.342 19.9237 239.216 17.747 243.437 16.1777C249.065 14.0456 254.958 13 261.031 13L262.756 13.0146ZM369.14 106.804L369.194 106.812C369.18 106.809 369.158 106.806 369.132 106.802C369.135 106.802 369.137 106.803 369.14 106.804ZM416.515 101.569C416.509 101.575 416.505 101.581 416.499 101.586C416.502 101.583 416.506 101.58 416.509 101.577C416.529 101.558 416.547 101.541 416.563 101.525C416.547 101.54 416.531 101.555 416.515 101.569Z" fill="#F5F5F5"/>
<path d="M262.756 13.0146C271.357 13.1637 279.616 14.4745 286.076 18.2773C287.117 18.8753 288.13 19.5385 289.099 20.2666C293.314 16.0602 298.732 14.1525 304.33 14.1523H328.811C336.663 14.1524 344.186 15.8769 350.594 20.0977C354.811 16.1012 360.124 14.3438 365.538 14.3438H400.002C405.072 14.3438 411.121 15.5099 415.9 19.9766C416.237 20.2909 416.556 20.613 416.86 20.9404C419.88 18.8067 423.251 17.2245 426.834 16.1221C432.318 14.4347 438.172 13.6719 444.282 13.6719L445.411 13.6797C451.036 13.7533 456.367 14.3845 461.279 15.7314C466.303 17.1089 471.203 19.3282 475.179 22.9287C478.794 19.7601 483.06 17.5429 487.678 16.1221C493.162 14.4347 499.015 13.6719 505.126 13.6719L506.255 13.6797C511.88 13.7533 517.211 14.3845 522.123 15.7314C527.275 17.1442 532.297 19.4434 536.325 23.209C540.927 27.4457 543.526 33.0977 543.526 39.4961C543.526 44.8414 542.007 50.5409 537.684 55.0957C537.648 55.1338 537.614 55.1733 537.578 55.2109C537.548 55.2427 537.515 55.2732 537.484 55.3047C538.56 56.3567 539.565 57.4986 540.484 58.7354C544.283 63.8434 545.639 69.8462 545.639 75.6885C545.639 82.4459 544.019 89.1436 539.783 94.792C539.761 94.8214 539.736 94.8541 539.71 94.8887C535.772 100.03 530.482 103.502 524.483 105.564C519.197 107.382 513.441 108.221 507.396 108.318L506.183 108.328C501.808 108.328 497.43 107.898 493.061 107.055L493.06 107.054C493.053 107.052 493.044 107.051 493.036 107.05C493.001 107.043 492.92 107.027 492.82 107.006C488.725 106.128 484.804 104.887 481.091 103.25L480.351 102.917C480.214 102.854 480.094 102.796 480.075 102.786C478.124 101.831 476.253 100.736 474.494 99.4873C471.317 102.19 467.636 104.191 463.64 105.564C458.353 107.382 452.597 108.221 446.552 108.318L445.339 108.328C440.964 108.328 436.586 107.898 432.217 107.055L432.216 107.054C432.209 107.052 432.201 107.051 432.192 107.05C432.157 107.043 432.076 107.027 431.977 107.006C427.881 106.128 423.961 104.887 420.247 103.25L419.507 102.917C419.37 102.854 419.251 102.796 419.231 102.786C418.362 102.36 417.508 101.906 416.673 101.424C416.645 101.45 416.618 101.475 416.59 101.501C416.589 101.502 416.588 101.503 416.587 101.504C416.558 101.532 416.521 101.566 416.479 101.606C416.469 101.615 416.459 101.623 416.449 101.632L416.45 101.633C416.448 101.635 416.446 101.636 416.444 101.638C416.409 101.67 416.37 101.707 416.327 101.745C416.286 101.781 416.243 101.815 416.202 101.851C411.055 106.406 404.41 107.689 398.578 107.833L397.41 107.848H380.226C376.362 107.848 372.571 107.493 368.874 106.755C368.881 106.756 368.888 106.758 368.896 106.76C368.88 106.757 368.865 106.754 368.849 106.751C368.832 106.748 368.815 106.745 368.798 106.741C364.849 105.933 361.128 104.434 357.762 102.193L357.724 102.231C353.206 106.438 347.616 107.946 342.372 108.036L341.866 108.04C336.116 108.04 330.217 106.221 325.654 101.501C325.598 101.443 325.553 101.394 325.533 101.373C325.524 101.363 325.515 101.353 325.514 101.352L325.52 101.357C324.837 100.627 324.217 99.8687 323.655 99.0859C322.932 100.132 322.089 101.139 321.107 102.086C316.812 106.227 311.46 107.932 306.186 108.035L305.675 108.04C301.41 108.04 296.917 107.073 292.959 104.483C289.292 106.902 285.137 107.955 281.029 108.035L280.52 108.04C276.362 108.04 271.987 107.121 268.104 104.677C263.332 107.476 257.931 108.616 252.487 108.616H251.623C244.063 108.616 237.002 106.389 230.984 101.728C230.976 101.721 230.961 101.709 230.942 101.695C230.93 101.686 230.916 101.676 230.901 101.664C230.874 101.643 230.84 101.617 230.803 101.587C227.724 99.1347 225.119 96.2607 222.947 93.0508C221.443 96.2993 219.459 99.3325 216.858 101.934C216.792 102 216.732 102.056 216.718 102.07C211.998 106.638 206.033 108.228 200.463 108.323L199.925 108.328C194.216 108.328 188.601 106.821 183.914 103.247C179.591 106.736 174.326 108.208 169.096 108.321L168.437 108.328C162.989 108.328 157.245 107.059 152.402 103.361C149.289 105.766 145.578 107.167 141.884 107.803L141.199 107.912C141.159 107.918 141.072 107.93 140.969 107.943C135.683 108.616 130.217 108.093 125.115 105.643C125.115 105.642 125.113 105.642 125.112 105.642C125.109 105.64 125.102 105.637 125.092 105.632C125.078 105.626 125.06 105.617 125.039 105.607L125.051 105.612L124.977 105.577L124.976 105.576C124.945 105.562 124.91 105.546 124.871 105.526L124.87 105.525C120.935 103.558 117.925 100.607 115.985 96.9844C114.096 100.539 111.174 103.481 107.296 105.47C102.137 108.115 96.5629 108.615 91.2822 107.943C91.2297 107.937 91.1361 107.925 91.0254 107.908C83.6914 106.814 76.5194 102.842 73.2734 94.5654C73.2854 94.5958 73.2942 94.6193 73.2988 94.6309C73.3012 94.6367 73.3032 94.6412 73.3037 94.6426L73.3027 94.6406C73.301 94.6362 73.2934 94.6177 73.2842 94.5947C73.2747 94.5709 73.2607 94.5352 73.2441 94.4922C72.084 91.4757 71.6192 88.3988 71.6445 85.3623C69.458 85.6972 67.2354 85.8643 64.9844 85.8643H63.7363C63.7363 91.2042 62.2818 97.1868 57.6279 101.835C57.5965 101.867 57.5663 101.901 57.5342 101.934C53.2901 106.178 47.9278 107.93 42.6475 108.035L42.1367 108.04H42.04C36.7992 108.04 31.3074 106.587 26.8086 102.623L26.376 102.231C26.3101 102.17 26.258 102.119 26.2363 102.098C26.2302 102.092 26.2242 102.087 26.2207 102.084C26.2198 102.083 26.2195 102.082 26.2188 102.081C26.2168 102.079 26.2148 102.078 26.2139 102.077L26.2158 102.078C21.369 97.3994 19.8643 91.2976 19.8643 85.8643V72.3281C19.8643 65.1033 20.8423 57.8866 23.9844 51.8896C20.4179 47.433 19.1015 42.145 19.0029 37.1416C19.002 37.0928 19.001 37.044 19.001 36.9951L19 36.2549C18.9999 36.209 19.0003 36.163 19.001 36.1172C19.0834 30.9346 20.6204 25.642 24.4482 21.2471L24.5068 21.1797L24.5547 21.126L24.5918 21.085C28.9072 16.3073 34.651 14.1523 40.6006 14.1523H65.8486C74.8091 14.1524 83.1279 16.9201 89.707 23.1689L89.8066 23.2607L89.8799 23.3311C89.8682 23.3198 89.8593 23.3103 89.8555 23.3066C89.8591 23.3101 89.8708 23.3216 89.8838 23.334C89.8973 23.3469 89.9166 23.3656 89.9395 23.3877C90.7605 24.1681 91.5189 24.9845 92.2207 25.833C94.634 22.32 97.727 19.3468 101.531 17.1729L101.602 17.1338L101.644 17.1104L101.657 17.1025C106.184 14.5877 111.169 13.6719 116.028 13.6719L116.709 13.6777C123.224 13.7937 129.929 15.5992 135.151 20.5264C137.699 18.2287 140.751 16.6992 143.91 15.8193C143.938 15.8115 143.967 15.8044 143.995 15.7969L144.345 15.7031L144.828 15.5781C149.847 14.3295 155.35 14.5396 160.516 17.2744L161.046 17.5654C162.381 18.323 163.572 19.199 164.631 20.165C167.328 17.8253 170.544 16.3375 173.81 15.5312L174.261 15.4238C179.747 14.1245 186.436 14.3889 192.08 18.9307C193.634 20.1444 194.966 21.5106 196.093 22.9883C196.117 22.9597 196.14 22.9309 196.164 22.9023C200.802 17.2992 207.227 14.7277 214.036 14.7275L214.631 14.7334C220.76 14.8607 227.064 16.9779 231.65 22.4404C231.661 22.4524 231.671 22.4646 231.682 22.4766C231.689 22.485 231.696 22.4935 231.703 22.502C231.752 22.5593 231.798 22.6172 231.846 22.6748C235.342 19.9237 239.216 17.747 243.437 16.1777C249.065 14.0456 254.958 13 261.031 13L262.756 13.0146ZM369.14 106.804L369.194 106.812C369.18 106.809 369.158 106.806 369.132 106.802C369.135 106.802 369.137 106.803 369.14 106.804ZM416.515 101.569C416.509 101.575 416.505 101.581 416.499 101.586C416.502 101.583 416.506 101.58 416.509 101.577C416.529 101.558 416.547 101.541 416.563 101.525C416.547 101.54 416.531 101.555 416.515 101.569Z" stroke="#4E56C0" stroke-width="8" mask="url(#path-1-outside-1_2484_2)"/>
</g>
<path d="M261.031 21C269.795 21 276.988 22.2109 282.018 25.1719C287.038 28.0299 290.279 32.253 290.279 37.8643C290.279 41.5176 289.318 44.8891 287.317 47.8359C287.303 47.858 287.289 47.8805 287.274 47.9023L287.273 47.9014C286.316 49.3391 285.143 50.4592 283.804 51.2793C286.65 51.9537 289.15 53.3377 290.931 55.7344C291.862 56.9319 292.571 58.2856 293.094 59.7617C293.609 57.9844 294.267 56.3609 295.086 54.9082L295.113 54.8604C296.095 53.1725 297.206 51.6456 298.452 50.2988C296.951 49.6365 295.583 48.6818 294.395 47.4053C294.362 47.3707 294.331 47.3355 294.3 47.2998C291.889 44.5178 290.791 40.9695 290.638 37.0605C290.637 37.0352 290.635 37.0098 290.635 36.9844C290.555 32.9795 291.653 29.3314 294.258 26.4473C296.89 23.5333 300.383 22.1524 304.33 22.1523H328.811C336.307 22.1524 342.791 23.9816 347.894 28.002C349.683 29.4117 351.138 31.0718 352.289 32.9453C352.781 30.5657 353.801 28.3918 355.461 26.5479L355.51 26.4951C358.154 23.6623 361.634 22.3438 365.538 22.3438H400.002C403.978 22.3438 407.705 23.2672 410.438 25.8213C413.221 28.423 414.274 32.0558 414.274 35.9443C414.274 36.0773 414.268 36.2097 414.266 36.3418C415.015 34.4412 416.067 32.6909 417.447 31.1211C420.449 27.6457 424.432 25.2314 429.187 23.7686C433.788 22.3528 438.832 21.6719 444.282 21.6719C449.794 21.6719 454.772 22.2421 459.164 23.4463C463.537 24.6452 467.268 26.4624 470.064 29.0947C472.663 31.4871 474.213 34.4505 474.591 37.8428C475.338 35.3568 476.555 33.0959 478.291 31.1211C481.293 27.6457 485.276 25.2314 490.03 23.7686C494.631 22.3528 499.676 21.6719 505.126 21.6719C510.638 21.6719 515.616 22.2421 520.008 23.4463C524.38 24.6452 528.111 26.4624 530.908 29.0947C533.921 31.8682 535.526 35.4092 535.526 39.4961C535.526 43.3849 534.434 46.943 531.814 49.6611L531.815 49.6621C529.266 52.3093 525.913 53.4804 522.215 53.4805C519.897 53.4805 517.54 53.0802 515.165 52.3379C515.154 52.3343 515.142 52.3308 515.131 52.3271C513.231 51.7144 511.197 51.1284 509.026 50.5703C508.982 50.5589 508.938 50.5461 508.894 50.5332C507.177 50.0282 505.293 49.7566 503.224 49.7393C504.28 50.0505 505.54 50.3964 507.02 50.7734L512.367 52.0156L512.419 52.0283C517.026 53.1633 521.148 54.5513 524.755 56.2158C528.582 57.982 531.744 60.3878 534.064 63.5088C536.567 66.8748 537.639 71.0518 537.639 75.6885C537.639 81.1845 536.33 86.062 533.383 89.9922C533.375 90.003 533.367 90.0137 533.358 90.0244C530.51 93.7434 526.613 96.3729 521.883 97.999C517.273 99.5838 512.015 100.328 506.183 100.328C502.335 100.328 498.465 99.9497 494.576 99.1992C494.55 99.1941 494.523 99.1893 494.496 99.1836C490.651 98.3596 487.042 97.1839 483.684 95.6445C483.653 95.6305 483.622 95.6154 483.592 95.6006C480.222 93.9516 477.351 91.9083 475.091 89.4141C475.077 89.399 475.063 89.3835 475.05 89.3682C474.633 88.8943 474.252 88.4039 473.903 87.9004C473.495 88.6237 473.042 89.3223 472.539 89.9922C472.531 90.003 472.523 90.0137 472.515 90.0244C469.666 93.7434 465.77 96.3729 461.039 97.999C456.429 99.5838 451.171 100.328 445.339 100.328C441.491 100.328 437.621 99.9497 433.732 99.1992C433.706 99.1941 433.679 99.1893 433.652 99.1836C429.807 98.3596 426.198 97.1839 422.84 95.6445C422.809 95.6305 422.778 95.6154 422.748 95.6006C419.668 94.0932 417.005 92.2555 414.844 90.0459C414.078 92.2034 412.837 94.1282 411.052 95.7275L411.053 95.7285C411.048 95.733 411.042 95.7367 411.037 95.7412C411.028 95.749 411.02 95.7578 411.012 95.7656L411.011 95.7646C407.678 98.7841 402.822 99.8476 397.41 99.8477H380.226C376.844 99.8476 373.573 99.5372 370.418 98.9062C370.412 98.9051 370.406 98.9045 370.4 98.9033C367.055 98.219 364.016 96.9068 361.345 94.9424C361.309 94.9161 361.273 94.8898 361.238 94.8623C359.175 93.237 357.503 91.1624 356.171 88.7354C355.684 91.6794 354.471 94.3232 352.275 96.3721L352.272 96.376C349.482 98.9738 345.841 100.04 341.866 100.04C337.813 100.04 334.163 98.7921 331.406 95.9404C331.391 95.9247 331.376 95.9085 331.361 95.8926C328.756 93.1074 327.476 89.5941 327.311 85.668C327.075 80.6581 325.831 78.1247 324.507 76.9365C324.48 76.9127 324.454 76.8888 324.428 76.8643C323.243 75.7416 321.658 74.9452 319.467 74.6416V85.8643C319.467 89.8985 318.365 93.6171 315.555 96.3271C312.883 98.903 309.452 100.04 305.675 100.04C301.785 100.04 298.224 98.9484 295.506 96.3271C294.404 95.2644 293.566 94.046 292.953 92.7148C292.34 94.046 291.502 95.2644 290.4 96.3271C287.729 98.9031 284.297 100.04 280.52 100.04C276.63 100.04 273.069 98.9484 270.351 96.3271C269.624 95.6268 269.013 94.8583 268.505 94.0352C268.043 94.5987 267.54 95.1332 266.992 95.6338C266.98 95.6445 266.969 95.6554 266.957 95.666C263.11 99.0946 258.142 100.616 252.487 100.616H251.623C245.678 100.616 240.349 98.8855 235.82 95.3545C235.809 95.346 235.798 95.3377 235.787 95.3291C231.384 91.8216 228.088 87.1148 225.823 81.3818C225.821 81.3767 225.819 81.3714 225.817 81.3662C224.176 77.1596 223.155 72.6133 222.719 67.751L220.566 75.1709L220.565 75.1699C219.331 79.4558 218.091 83.3448 216.842 86.8301C215.542 90.5701 213.699 93.7786 211.201 96.2764C211.186 96.2918 211.17 96.3071 211.154 96.3223C208.209 99.1724 204.267 100.328 199.925 100.328C194.612 100.328 189.991 98.6332 186.594 94.8877C185.478 93.6573 184.495 92.2062 183.628 90.5625C182.907 92.1029 182.106 93.4682 181.21 94.6357C178.163 98.6064 173.642 100.328 168.437 100.328C163.89 100.328 159.789 99.2037 156.617 96.4854C154.664 94.8114 153.044 92.7632 151.723 90.4023C151.629 90.7547 151.524 91.1035 151.406 91.4482L151.407 91.4492C151.407 91.4509 151.406 91.4524 151.405 91.4541C151.401 91.4668 151.397 91.4795 151.393 91.4922L151.392 91.4912C149.677 96.577 145.372 99.2121 140.035 99.9971C140.01 100.001 139.984 100.005 139.958 100.008C135.833 100.533 131.946 100.076 128.483 98.3867C128.472 98.3811 128.46 98.3759 128.448 98.3701C124.754 96.5228 122.45 93.388 121.706 89.3359C121.265 87.1328 121.117 84.9573 121.515 82.9678L121.556 82.7822C121.632 82.4768 121.708 82.1812 121.783 81.8965H110.123C110.2 82.2415 110.277 82.599 110.351 82.9678C110.736 84.8961 110.643 87.0241 110.278 89.21C110.276 89.224 110.273 89.2379 110.271 89.252C109.551 93.3013 107.308 96.4731 103.646 98.3516C100.263 100.086 96.3997 100.531 92.292 100.008C92.2635 100.004 92.2345 100 92.2061 99.9961C86.8942 99.2032 82.6535 96.5729 80.7207 91.6445C80.7175 91.6364 80.7141 91.6283 80.7109 91.6201C78.9524 87.0478 79.4869 81.7887 81.4424 76.2715L82.7627 72.5195C81.2468 73.7209 79.5679 74.7055 77.7256 75.4561C73.753 77.0745 69.4919 77.8643 64.9844 77.8643H55.7363V85.8643C55.7363 89.8734 54.6478 93.5698 51.876 96.2754L51.877 96.2764C49.2661 98.8872 45.8736 100.04 42.1367 100.04H42.04C38.1439 100.04 34.5885 98.9467 31.8271 96.376C31.8101 96.3601 31.7931 96.3433 31.7764 96.3271C28.966 93.6171 27.8643 89.8985 27.8643 85.8643V72.3281C27.8643 65.2551 28.9127 59.2721 31.4795 54.8604C32.4543 53.185 33.5565 51.6686 34.791 50.3291C33.2628 49.6658 31.8717 48.7013 30.665 47.4053C30.6327 47.3706 30.6004 47.3356 30.5693 47.2998C28.1362 44.4922 27.0783 40.9112 27.001 36.9844L27 36.2441C27.0585 32.566 28.1228 29.208 30.4805 26.501L30.5283 26.4473C33.1604 23.5332 36.653 22.1523 40.6006 22.1523H65.8486C73.1577 22.1524 79.4419 24.3843 84.3271 29.0898C84.3288 29.0914 84.3313 29.0932 84.333 29.0947C84.3468 29.1081 84.3612 29.1214 84.375 29.1348C88.973 33.4734 91.1998 39.7382 91.6484 47.2754L94.1113 40.2803C95.335 36.7488 96.763 33.6238 98.4238 30.9521L98.4648 30.8877C100.315 28.0358 102.655 25.7447 105.5 24.1191L105.542 24.0957C108.587 22.4041 112.147 21.6719 116.028 21.6719C121.85 21.6719 126.922 23.2857 130.475 27.1689C130.486 27.181 130.498 27.193 130.509 27.2051C132.881 29.7613 134.844 32.9586 136.461 36.6992C136.405 34.5433 136.804 32.428 137.703 30.3984C139.273 26.7882 142.298 24.573 146.057 23.5264L146.423 23.4287C150.005 22.4651 153.554 22.641 156.772 24.3447C160.128 26.1215 162.183 29.1724 163.175 32.8721L171.809 64.4365C172.427 66.6536 173.002 68.0969 173.462 68.9531C173.469 68.952 173.476 68.9514 173.482 68.9502C173.457 68.0293 173.238 66.5446 172.642 64.3564C172.639 64.3454 172.636 64.3343 172.633 64.3232L166.488 40.9951L166.485 40.9824C165.497 37.1809 165.497 33.4535 166.989 30.0957L167.01 30.0498C168.686 26.4012 171.86 24.2527 175.728 23.2979L176.104 23.209C180.063 22.2716 184 22.6431 187.157 25.2354C189.928 27.3989 191.687 30.3862 192.569 33.9033L200.335 64.4863L200.487 65.0469C200.887 66.4712 201.258 67.4635 201.556 68.1289C201.448 66.9516 201.282 65.4924 201.048 63.7363C201.047 63.7302 201.046 63.7239 201.045 63.7178C200.471 59.2564 199.965 55.6148 199.524 52.7832C199.52 52.7545 199.516 52.7251 199.512 52.6963C199.128 49.8166 198.808 47.4169 198.552 45.4971C198.546 45.4537 198.54 45.4098 198.536 45.3662C198.334 43.34 198.229 41.445 198.229 39.6885C198.229 35.2732 199.549 31.3045 202.311 28.0225C205.264 24.4426 209.329 22.7276 214.036 22.7275C218.627 22.7275 222.7 24.1942 225.558 27.623C227.789 30.2466 228.928 33.5171 229.258 37.1514C230.609 35.099 232.136 33.2276 233.848 31.5508C237.438 28.032 241.589 25.3928 246.271 23.6592C250.963 21.8818 255.892 21 261.031 21ZM380.482 73.916C382.849 72.6343 385.202 71.5411 387.543 70.6445C386.869 70.4927 386.191 70.3245 385.51 70.1387C383.793 69.6704 382.117 69.2332 380.482 68.8281V73.916ZM259.592 50.792C255.285 50.792 253.044 51.9899 251.822 53.5449C250.282 55.5942 249.384 58.3073 249.384 61.96C249.384 64.9459 249.978 67.0144 250.861 68.4375C251.918 70.0336 253.242 71.1704 254.871 71.9307C256.743 72.7082 258.874 73.1279 261.319 73.1279C262.13 73.1279 262.907 73.0469 263.655 72.8877C262.031 72.3711 260.545 71.4765 259.313 70.1152C259.293 70.0925 259.272 70.0701 259.252 70.0469C257.305 67.792 256.455 65.0197 256.455 62.0557C256.455 59.0978 257.304 56.3141 259.313 54.0928C260.698 52.5625 262.404 51.6218 264.267 51.1455C262.901 50.9168 261.348 50.792 259.592 50.792ZM412.91 42.3896C412.349 43.5608 411.605 44.6492 410.659 45.6309C408.23 48.1538 404.884 49.2172 401.266 49.4111C402.964 49.869 404.533 50.6323 405.859 51.8105C408.401 53.9456 409.57 56.8835 409.57 60.1357C409.57 63.4274 408.422 66.412 405.9 68.6182L405.891 68.626C405.709 68.7843 405.521 68.9345 405.33 69.0781C407.645 69.7829 409.714 70.9568 411.416 72.71C411.496 72.7906 411.575 72.8712 411.652 72.9531C412.411 71.1407 413.532 69.4977 415.043 68.0732C418.048 65.24 421.716 63.8367 425.829 64.0117C427.41 64.0587 428.976 64.2698 430.527 64.6377C429.607 64.3312 428.708 64.0198 427.834 63.6992C427.816 63.6925 427.797 63.6857 427.779 63.6787C423.522 62.0469 419.929 59.8339 417.185 56.9326C417.159 56.9058 417.134 56.879 417.109 56.8516C414.132 53.5241 412.827 49.2626 412.827 44.4883C412.827 43.7773 412.855 43.0773 412.91 42.3896ZM355.749 47.5586C355.697 51.5769 354.982 55.2336 353.412 58.373C353.406 58.3852 353.4 58.3971 353.394 58.4092C351.874 61.3714 349.849 63.8239 347.258 65.6006C348.863 66.7717 350.315 68.1808 351.607 69.8213C352.039 70.3579 352.439 70.9151 352.809 71.4902C352.88 66.9404 353.535 62.8235 354.878 59.2197C356.177 55.7324 357.79 52.7289 359.803 50.3623C358.306 49.7243 356.941 48.7981 355.749 47.5586ZM434.179 65.8027L437.737 67.1406C438.922 67.5828 440.114 68.0245 441.314 68.4668L441.705 68.6035C443.658 69.2611 445.569 69.5762 447.451 69.5762C447.837 69.5762 448.186 69.5638 448.5 69.5479C447.837 69.2885 447.049 69.0478 446.116 68.8438C446.084 68.8367 446.052 68.8291 446.02 68.8213L441.345 67.6758C438.757 67.0628 436.298 66.4104 433.969 65.7197C434.039 65.7472 434.109 65.7747 434.179 65.8027ZM495.022 65.8027L498.581 67.1406C499.765 67.5828 500.958 68.0245 502.158 68.4668L502.549 68.6035C504.502 69.2611 506.413 69.5762 508.295 69.5762C508.681 69.5762 509.03 69.5638 509.344 69.5479C508.681 69.2885 507.893 69.0478 506.96 68.8438C506.928 68.8367 506.895 68.8291 506.863 68.8213L502.188 67.6758C499.6 67.0628 497.141 66.4104 494.812 65.7197C494.882 65.7472 494.953 65.7747 495.022 65.8027ZM473.685 45.3604C473.083 46.9428 472.193 48.393 470.971 49.6611L470.972 49.6621C468.423 52.3093 465.069 53.4804 461.371 53.4805C459.053 53.4805 456.697 53.0802 454.321 52.3379C454.31 52.3343 454.298 52.3308 454.287 52.3271C452.387 51.7144 450.353 51.1284 448.183 50.5703C448.138 50.5589 448.094 50.5461 448.05 50.5332C446.333 50.0282 444.449 49.7566 442.38 49.7393C443.436 50.0505 444.697 50.3964 446.176 50.7734L451.523 52.0156L451.575 52.0283C456.182 53.1633 460.305 54.5513 463.911 56.2158C467.738 57.982 470.9 60.3878 473.221 63.5088C474.296 64.9554 475.106 66.5524 475.682 68.2705C475.749 68.2045 475.818 68.1384 475.887 68.0732C478.892 65.24 482.56 63.8367 486.673 64.0117C488.254 64.0587 489.82 64.2698 491.371 64.6377C490.45 64.3312 489.552 64.0198 488.678 63.6992C488.66 63.6925 488.641 63.6857 488.623 63.6787C484.366 62.0469 480.773 59.8339 478.028 56.9326C478.003 56.9058 477.978 56.879 477.953 56.8516C475.158 53.728 473.836 49.7815 473.685 45.3604ZM114.463 60.4561H117.562L115.997 55.5518L114.463 60.4561ZM318.986 55.2725H327.658C329.866 55.2725 330.549 54.7557 330.686 54.6191C330.965 54.3395 331.339 53.7713 331.339 52.3604C331.339 50.8469 330.944 50.2635 330.686 50.0049C330.549 49.8684 329.866 49.3516 327.658 49.3516H318.986V55.2725ZM54.4883 54.792H63.1602C65.2273 54.792 65.9566 54.3376 66.1533 54.168C66.4619 53.8211 66.8408 53.1275 66.8408 51.5918C66.8408 49.9778 66.4271 49.3794 66.1885 49.1406C66.052 49.0041 65.3678 48.4883 63.1602 48.4883H54.4883V54.792ZM380.578 49.5762V51.7236C382.183 51.3217 383.821 50.8898 385.491 50.4258C385.497 50.4241 385.504 50.4225 385.51 50.4209C386.97 50.0227 388.411 49.6979 389.834 49.4482H380.582C380.581 49.4886 380.578 49.5313 380.578 49.5762Z" fill="#4E56C0"/>
<g filter="url(#filter2_ii_2484_2)">
<path d="M51.7365 73.864V85.864C51.7365 89.192 50.8405 91.72 49.0485 93.448C47.3205 95.176 45.0165 96.04 42.1365 96.04H42.0405C38.9045 96.04 36.4085 95.176 34.5525 93.448C32.7605 91.72 31.8645 89.192 31.8645 85.864V72.328C31.8645 65.544 32.8885 60.392 34.9365 56.872C36.9845 53.352 39.5765 50.824 42.7125 49.288L42.2325 47.464H40.6005C37.6565 47.464 35.3205 46.536 33.5925 44.68C31.9285 42.76 31.0645 40.168 31.0005 36.904C30.9365 33.704 31.7685 31.112 33.4965 29.128C35.2885 27.144 37.6565 26.152 40.6005 26.152H65.8485C72.3125 26.152 77.5605 28.104 81.5925 32.008C85.6885 35.848 87.7365 41.928 87.7365 50.248C87.7365 56.264 86.6805 61 84.5685 64.456C82.4565 67.912 79.6725 70.344 76.2165 71.752C72.7605 73.16 69.0165 73.864 64.9845 73.864H51.7365ZM50.4885 55.336C50.4885 56.744 50.7445 57.672 51.2565 58.12C51.8325 58.568 52.8245 58.792 54.2325 58.792H63.1605C65.8485 58.792 67.8005 58.184 69.0165 56.968C70.2325 55.688 70.8405 53.896 70.8405 51.592C70.8405 49.288 70.2325 47.528 69.0165 46.312C67.8005 45.096 65.8485 44.488 63.1605 44.488H54.2325C52.8245 44.488 51.8325 44.68 51.2565 45.064C50.7445 45.448 50.4885 46.376 50.4885 47.848V55.336Z" fill="white"/>
<path d="M51.7365 73.864V85.864C51.7365 89.192 50.8405 91.72 49.0485 93.448C47.3205 95.176 45.0165 96.04 42.1365 96.04H42.0405C38.9045 96.04 36.4085 95.176 34.5525 93.448C32.7605 91.72 31.8645 89.192 31.8645 85.864V72.328C31.8645 65.544 32.8885 60.392 34.9365 56.872C36.9845 53.352 39.5765 50.824 42.7125 49.288L42.2325 47.464H40.6005C37.6565 47.464 35.3205 46.536 33.5925 44.68C31.9285 42.76 31.0645 40.168 31.0005 36.904C30.9365 33.704 31.7685 31.112 33.4965 29.128C35.2885 27.144 37.6565 26.152 40.6005 26.152H65.8485C72.3125 26.152 77.5605 28.104 81.5925 32.008C85.6885 35.848 87.7365 41.928 87.7365 50.248C87.7365 56.264 86.6805 61 84.5685 64.456C82.4565 67.912 79.6725 70.344 76.2165 71.752C72.7605 73.16 69.0165 73.864 64.9845 73.864H51.7365ZM50.4885 55.336C50.4885 56.744 50.7445 57.672 51.2565 58.12C51.8325 58.568 52.8245 58.792 54.2325 58.792H63.1605C65.8485 58.792 67.8005 58.184 69.0165 56.968C70.2325 55.688 70.8405 53.896 70.8405 51.592C70.8405 49.288 70.2325 47.528 69.0165 46.312C67.8005 45.096 65.8485 44.488 63.1605 44.488H54.2325C52.8245 44.488 51.8325 44.68 51.2565 45.064C50.7445 45.448 50.4885 46.376 50.4885 47.848V55.336Z" fill="url(#paint0_linear_2484_2)"/>
<path d="M92.7967 96.04C88.5087 95.4 85.7247 93.448 84.4447 90.184C83.1647 86.856 83.4207 82.664 85.2127 77.608L97.8848 41.608C99.0368 38.28 100.349 35.432 101.821 33.064C103.357 30.696 105.245 28.872 107.485 27.592C109.789 26.312 112.637 25.672 116.029 25.672C121.149 25.672 124.989 27.08 127.549 29.896C130.173 32.712 132.349 36.616 134.077 41.608L146.653 77.608C148.445 82.664 148.765 86.856 147.613 90.184C146.525 93.448 143.805 95.4 139.453 96.04C135.933 96.488 132.861 96.072 130.237 94.792C127.677 93.512 126.141 91.432 125.629 88.552C125.245 86.632 125.181 85.032 125.437 83.752C125.757 82.472 126.045 81.448 126.301 80.68C126.493 80.04 126.493 79.432 126.301 78.856C126.173 78.216 125.693 77.896 124.861 77.896H107.005C106.173 77.896 105.661 78.216 105.469 78.856C105.341 79.432 105.405 80.04 105.661 80.68C105.917 81.448 106.173 82.472 106.429 83.752C106.685 85.032 106.653 86.632 106.333 88.552C105.821 91.432 104.317 93.512 101.821 94.792C99.3247 96.072 96.3167 96.488 92.7967 96.04ZM123.037 64.456L118.045 48.808C117.917 48.168 117.693 47.688 117.373 47.368C117.117 46.984 116.669 46.792 116.029 46.792C115.389 46.792 114.909 46.984 114.589 47.368C114.333 47.688 114.109 48.168 113.917 48.808L109.021 64.456H123.037Z" fill="white"/>
<path d="M92.7967 96.04C88.5087 95.4 85.7247 93.448 84.4447 90.184C83.1647 86.856 83.4207 82.664 85.2127 77.608L97.8848 41.608C99.0368 38.28 100.349 35.432 101.821 33.064C103.357 30.696 105.245 28.872 107.485 27.592C109.789 26.312 112.637 25.672 116.029 25.672C121.149 25.672 124.989 27.08 127.549 29.896C130.173 32.712 132.349 36.616 134.077 41.608L146.653 77.608C148.445 82.664 148.765 86.856 147.613 90.184C146.525 93.448 143.805 95.4 139.453 96.04C135.933 96.488 132.861 96.072 130.237 94.792C127.677 93.512 126.141 91.432 125.629 88.552C125.245 86.632 125.181 85.032 125.437 83.752C125.757 82.472 126.045 81.448 126.301 80.68C126.493 80.04 126.493 79.432 126.301 78.856C126.173 78.216 125.693 77.896 124.861 77.896H107.005C106.173 77.896 105.661 78.216 105.469 78.856C105.341 79.432 105.405 80.04 105.661 80.68C105.917 81.448 106.173 82.472 106.429 83.752C106.685 85.032 106.653 86.632 106.333 88.552C105.821 91.432 104.317 93.512 101.821 94.792C99.3247 96.072 96.3167 96.488 92.7967 96.04ZM123.037 64.456L118.045 48.808C117.917 48.168 117.693 47.688 117.373 47.368C117.117 46.984 116.669 46.792 116.029 46.792C115.389 46.792 114.909 46.984 114.589 47.368C114.333 47.688 114.109 48.168 113.917 48.808L109.021 64.456H123.037Z" fill="url(#paint1_linear_2484_2)"/>
<path d="M168.436 96.328C164.532 96.328 161.461 95.368 159.221 93.448C156.981 91.528 155.188 88.904 153.844 85.576C152.564 82.184 151.349 78.344 150.197 74.056L140.884 39.496C140.18 36.808 140.341 34.312 141.365 32.008C142.389 29.64 144.404 28.072 147.412 27.304C150.228 26.536 152.724 26.728 154.9 27.88C157.076 29.032 158.548 31.048 159.316 33.928L167.956 65.512C168.724 68.264 169.525 70.28 170.357 71.56C171.253 72.84 172.661 73.256 174.581 72.808C176.373 72.36 177.332 71.368 177.46 69.832C177.588 68.296 177.269 66.12 176.501 63.304L170.357 39.976C169.525 36.776 169.621 34.024 170.645 31.72C171.733 29.352 173.844 27.816 176.98 27.112C180.18 26.344 182.741 26.76 184.661 28.36C186.645 29.896 187.989 32.072 188.693 34.888L196.469 65.512C197.301 68.648 198.196 70.76 199.156 71.848C200.18 72.936 201.493 73.256 203.092 72.808C204.884 72.296 205.748 71.304 205.684 69.832C205.62 68.296 205.396 66.088 205.012 63.208C204.436 58.728 203.925 55.048 203.477 52.168C203.093 49.288 202.772 46.888 202.516 44.968C202.324 43.048 202.229 41.288 202.229 39.688C202.229 36.104 203.284 33.064 205.396 30.568C207.508 28.008 210.389 26.728 214.036 26.728C217.749 26.728 220.564 27.88 222.484 30.184C224.404 32.424 225.365 35.528 225.365 39.496C225.365 42.056 224.981 44.744 224.213 47.56C223.509 50.376 222.804 53.032 222.1 55.528L216.725 74.056C215.509 78.28 214.293 82.088 213.077 85.48C211.925 88.808 210.356 91.464 208.372 93.448C206.389 95.368 203.573 96.328 199.924 96.328C195.508 96.328 192.053 94.952 189.557 92.2C187.061 89.448 185.141 84.936 183.797 78.664H183.124C181.844 84.936 180.148 89.448 178.036 92.2C175.924 94.952 172.724 96.328 168.436 96.328Z" fill="white"/>
<path d="M168.436 96.328C164.532 96.328 161.461 95.368 159.221 93.448C156.981 91.528 155.188 88.904 153.844 85.576C152.564 82.184 151.349 78.344 150.197 74.056L140.884 39.496C140.18 36.808 140.341 34.312 141.365 32.008C142.389 29.64 144.404 28.072 147.412 27.304C150.228 26.536 152.724 26.728 154.9 27.88C157.076 29.032 158.548 31.048 159.316 33.928L167.956 65.512C168.724 68.264 169.525 70.28 170.357 71.56C171.253 72.84 172.661 73.256 174.581 72.808C176.373 72.36 177.332 71.368 177.46 69.832C177.588 68.296 177.269 66.12 176.501 63.304L170.357 39.976C169.525 36.776 169.621 34.024 170.645 31.72C171.733 29.352 173.844 27.816 176.98 27.112C180.18 26.344 182.741 26.76 184.661 28.36C186.645 29.896 187.989 32.072 188.693 34.888L196.469 65.512C197.301 68.648 198.196 70.76 199.156 71.848C200.18 72.936 201.493 73.256 203.092 72.808C204.884 72.296 205.748 71.304 205.684 69.832C205.62 68.296 205.396 66.088 205.012 63.208C204.436 58.728 203.925 55.048 203.477 52.168C203.093 49.288 202.772 46.888 202.516 44.968C202.324 43.048 202.229 41.288 202.229 39.688C202.229 36.104 203.284 33.064 205.396 30.568C207.508 28.008 210.389 26.728 214.036 26.728C217.749 26.728 220.564 27.88 222.484 30.184C224.404 32.424 225.365 35.528 225.365 39.496C225.365 42.056 224.981 44.744 224.213 47.56C223.509 50.376 222.804 53.032 222.1 55.528L216.725 74.056C215.509 78.28 214.293 82.088 213.077 85.48C211.925 88.808 210.356 91.464 208.372 93.448C206.389 95.368 203.573 96.328 199.924 96.328C195.508 96.328 192.053 94.952 189.557 92.2C187.061 89.448 185.141 84.936 183.797 78.664H183.124C181.844 84.936 180.148 89.448 178.036 92.2C175.924 94.952 172.724 96.328 168.436 96.328Z" fill="url(#paint2_linear_2484_2)"/>
<path d="M251.624 96.616C246.504 96.616 242.055 95.144 238.279 92.2C234.503 89.192 231.592 85.096 229.544 79.912C227.496 74.664 226.471 68.744 226.471 62.152C226.471 56.008 227.368 50.632 229.16 46.024C231.016 41.352 233.512 37.48 236.648 34.408C239.848 31.272 243.528 28.936 247.688 27.4C251.912 25.8 256.359 25 261.031 25C269.607 25 275.944 26.216 280.04 28.648C284.2 31.016 286.279 34.088 286.279 37.864C286.279 40.808 285.511 43.4 283.975 45.64C282.503 47.88 280.264 49 277.256 49C275.208 49 273.256 48.808 271.4 48.424C269.608 48.04 267.751 47.688 265.831 47.368C263.975 46.984 261.896 46.792 259.592 46.792C254.536 46.792 250.888 48.232 248.648 51.112C246.472 53.992 245.383 57.608 245.383 61.96C245.383 65.48 246.087 68.36 247.495 70.6C248.967 72.84 250.887 74.504 253.255 75.592C255.687 76.616 258.376 77.128 261.32 77.128C263.752 77.128 266.023 76.584 268.135 75.496C270.247 74.408 271.591 72.392 272.167 69.448H267.464C265.223 69.448 263.495 68.776 262.279 67.432C261.063 66.024 260.456 64.232 260.456 62.056C260.456 59.88 261.063 58.12 262.279 56.776C263.495 55.432 265.223 54.76 267.464 54.76H278.984C283.144 54.76 286.056 55.88 287.72 58.12C289.448 60.296 290.311 63.56 290.311 67.912V85.864C290.311 89.192 289.416 91.72 287.624 93.448C285.832 95.176 283.464 96.04 280.52 96.04C277.384 96.04 274.92 95.176 273.128 93.448C271.336 91.72 270.439 89.192 270.439 85.864V79.912H268.712C268.712 85.736 267.24 89.992 264.296 92.68C261.352 95.304 257.416 96.616 252.488 96.616H251.624Z" fill="white"/>
<path d="M251.624 96.616C246.504 96.616 242.055 95.144 238.279 92.2C234.503 89.192 231.592 85.096 229.544 79.912C227.496 74.664 226.471 68.744 226.471 62.152C226.471 56.008 227.368 50.632 229.16 46.024C231.016 41.352 233.512 37.48 236.648 34.408C239.848 31.272 243.528 28.936 247.688 27.4C251.912 25.8 256.359 25 261.031 25C269.607 25 275.944 26.216 280.04 28.648C284.2 31.016 286.279 34.088 286.279 37.864C286.279 40.808 285.511 43.4 283.975 45.64C282.503 47.88 280.264 49 277.256 49C275.208 49 273.256 48.808 271.4 48.424C269.608 48.04 267.751 47.688 265.831 47.368C263.975 46.984 261.896 46.792 259.592 46.792C254.536 46.792 250.888 48.232 248.648 51.112C246.472 53.992 245.383 57.608 245.383 61.96C245.383 65.48 246.087 68.36 247.495 70.6C248.967 72.84 250.887 74.504 253.255 75.592C255.687 76.616 258.376 77.128 261.32 77.128C263.752 77.128 266.023 76.584 268.135 75.496C270.247 74.408 271.591 72.392 272.167 69.448H267.464C265.223 69.448 263.495 68.776 262.279 67.432C261.063 66.024 260.456 64.232 260.456 62.056C260.456 59.88 261.063 58.12 262.279 56.776C263.495 55.432 265.223 54.76 267.464 54.76H278.984C283.144 54.76 286.056 55.88 287.72 58.12C289.448 60.296 290.311 63.56 290.311 67.912V85.864C290.311 89.192 289.416 91.72 287.624 93.448C285.832 95.176 283.464 96.04 280.52 96.04C277.384 96.04 274.92 95.176 273.128 93.448C271.336 91.72 270.439 89.192 270.439 85.864V79.912H268.712C268.712 85.736 267.24 89.992 264.296 92.68C261.352 95.304 257.416 96.616 252.488 96.616H251.624Z" fill="url(#paint3_linear_2484_2)"/>
<path d="M341.867 96.04C338.667 96.04 336.139 95.08 334.283 93.16C332.427 91.176 331.434 88.616 331.306 85.48C331.05 80.04 329.674 76.2 327.178 73.96C324.746 71.656 321.483 70.504 317.387 70.504H315.466V85.864C315.466 89.192 314.571 91.72 312.779 93.448C310.987 95.176 308.618 96.04 305.674 96.04C302.538 96.04 300.075 95.176 298.283 93.448C296.491 91.72 295.595 89.192 295.595 85.864V72.328C295.595 65.544 296.586 60.392 298.57 56.872C300.618 53.352 303.21 50.824 306.346 49.288L305.866 47.464H304.331C301.387 47.464 299.051 46.536 297.323 44.68C295.659 42.76 294.762 40.168 294.634 36.904C294.57 33.704 295.435 31.112 297.227 29.128C299.019 27.144 301.387 26.152 304.331 26.152H328.81C335.658 26.152 341.195 27.816 345.419 31.144C349.643 34.472 351.755 39.784 351.755 47.08C351.755 50.856 351.115 54.024 349.835 56.584C348.555 59.08 346.923 61 344.939 62.344C342.955 63.688 340.875 64.488 338.699 64.744V65.992C342.667 66.952 345.931 69.064 348.491 72.328C351.115 75.592 352.427 79.976 352.427 85.48C352.427 89 351.467 91.656 349.547 93.448C347.691 95.176 345.131 96.04 341.867 96.04ZM314.987 55.816C314.987 57.224 315.242 58.152 315.754 58.6C316.266 59.048 317.226 59.272 318.634 59.272H327.659C330.347 59.272 332.298 58.664 333.514 57.448C334.73 56.232 335.339 54.536 335.339 52.36C335.339 50.12 334.73 48.392 333.514 47.176C332.298 45.96 330.347 45.352 327.659 45.352H318.634C317.226 45.352 316.266 45.544 315.754 45.928C315.242 46.312 314.987 47.24 314.987 48.712V55.816Z" fill="white"/>
<path d="M341.867 96.04C338.667 96.04 336.139 95.08 334.283 93.16C332.427 91.176 331.434 88.616 331.306 85.48C331.05 80.04 329.674 76.2 327.178 73.96C324.746 71.656 321.483 70.504 317.387 70.504H315.466V85.864C315.466 89.192 314.571 91.72 312.779 93.448C310.987 95.176 308.618 96.04 305.674 96.04C302.538 96.04 300.075 95.176 298.283 93.448C296.491 91.72 295.595 89.192 295.595 85.864V72.328C295.595 65.544 296.586 60.392 298.57 56.872C300.618 53.352 303.21 50.824 306.346 49.288L305.866 47.464H304.331C301.387 47.464 299.051 46.536 297.323 44.68C295.659 42.76 294.762 40.168 294.634 36.904C294.57 33.704 295.435 31.112 297.227 29.128C299.019 27.144 301.387 26.152 304.331 26.152H328.81C335.658 26.152 341.195 27.816 345.419 31.144C349.643 34.472 351.755 39.784 351.755 47.08C351.755 50.856 351.115 54.024 349.835 56.584C348.555 59.08 346.923 61 344.939 62.344C342.955 63.688 340.875 64.488 338.699 64.744V65.992C342.667 66.952 345.931 69.064 348.491 72.328C351.115 75.592 352.427 79.976 352.427 85.48C352.427 89 351.467 91.656 349.547 93.448C347.691 95.176 345.131 96.04 341.867 96.04ZM314.987 55.816C314.987 57.224 315.242 58.152 315.754 58.6C316.266 59.048 317.226 59.272 318.634 59.272H327.659C330.347 59.272 332.298 58.664 333.514 57.448C334.73 56.232 335.339 54.536 335.339 52.36C335.339 50.12 334.73 48.392 333.514 47.176C332.298 45.96 330.347 45.352 327.659 45.352H318.634C317.226 45.352 316.266 45.544 315.754 45.928C315.242 46.312 314.987 47.24 314.987 48.712V55.816Z" fill="url(#paint4_linear_2484_2)"/>
<path d="M380.226 95.848C377.09 95.848 374.082 95.56 371.202 94.984C368.386 94.408 365.89 93.32 363.714 91.72C361.602 90.056 359.906 87.688 358.626 84.616C357.41 81.48 356.802 77.384 356.802 72.328C356.802 67.784 357.41 63.88 358.626 60.616C359.842 57.352 361.282 54.76 362.946 52.84C364.674 50.92 366.242 49.736 367.65 49.288L367.17 47.464H365.538C362.594 47.464 360.258 46.536 358.53 44.68C356.866 42.76 356.002 40.168 355.938 36.904C355.874 33.704 356.706 31.144 358.434 29.224C360.226 27.304 362.594 26.344 365.538 26.344H400.002C406.85 26.344 410.274 29.544 410.274 35.944C410.274 38.824 409.442 41.128 407.778 42.856C406.114 44.584 403.522 45.448 400.002 45.448H380.13C377.762 45.448 376.578 46.824 376.578 49.576V56.776C379.778 56.072 383.106 55.24 386.562 54.28C390.082 53.32 393.41 52.84 396.546 52.84C399.554 52.84 401.794 53.512 403.266 54.856C404.802 56.136 405.57 57.896 405.57 60.136C405.57 62.44 404.802 64.264 403.266 65.608C401.794 66.888 399.554 67.56 396.546 67.624C393.41 67.688 390.082 67.24 386.562 66.28C383.042 65.32 379.682 64.488 376.482 63.784V76.36C376.482 77.576 376.802 78.44 377.442 78.952C378.146 79.4 379.234 79.208 380.706 78.376C383.906 76.52 387.042 75.048 390.114 73.96C393.186 72.808 396.194 72.232 399.138 72.232C403.298 72.232 406.434 73.32 408.546 75.496C410.722 77.672 411.81 80.52 411.81 84.04C411.81 87.816 410.658 90.728 408.354 92.776C406.114 94.824 402.466 95.848 397.41 95.848H380.226Z" fill="white"/>
<path d="M380.226 95.848C377.09 95.848 374.082 95.56 371.202 94.984C368.386 94.408 365.89 93.32 363.714 91.72C361.602 90.056 359.906 87.688 358.626 84.616C357.41 81.48 356.802 77.384 356.802 72.328C356.802 67.784 357.41 63.88 358.626 60.616C359.842 57.352 361.282 54.76 362.946 52.84C364.674 50.92 366.242 49.736 367.65 49.288L367.17 47.464H365.538C362.594 47.464 360.258 46.536 358.53 44.68C356.866 42.76 356.002 40.168 355.938 36.904C355.874 33.704 356.706 31.144 358.434 29.224C360.226 27.304 362.594 26.344 365.538 26.344H400.002C406.85 26.344 410.274 29.544 410.274 35.944C410.274 38.824 409.442 41.128 407.778 42.856C406.114 44.584 403.522 45.448 400.002 45.448H380.13C377.762 45.448 376.578 46.824 376.578 49.576V56.776C379.778 56.072 383.106 55.24 386.562 54.28C390.082 53.32 393.41 52.84 396.546 52.84C399.554 52.84 401.794 53.512 403.266 54.856C404.802 56.136 405.57 57.896 405.57 60.136C405.57 62.44 404.802 64.264 403.266 65.608C401.794 66.888 399.554 67.56 396.546 67.624C393.41 67.688 390.082 67.24 386.562 66.28C383.042 65.32 379.682 64.488 376.482 63.784V76.36C376.482 77.576 376.802 78.44 377.442 78.952C378.146 79.4 379.234 79.208 380.706 78.376C383.906 76.52 387.042 75.048 390.114 73.96C393.186 72.808 396.194 72.232 399.138 72.232C403.298 72.232 406.434 73.32 408.546 75.496C410.722 77.672 411.81 80.52 411.81 84.04C411.81 87.816 410.658 90.728 408.354 92.776C406.114 94.824 402.466 95.848 397.41 95.848H380.226Z" fill="url(#paint5_linear_2484_2)"/>
<path d="M445.339 96.328C441.755 96.328 438.139 95.976 434.491 95.272C430.907 94.504 427.579 93.416 424.507 92.008C421.499 90.536 419.067 88.776 417.211 86.728C415.355 84.616 414.427 82.184 414.427 79.432C414.427 75.912 415.547 73.096 417.787 70.984C420.027 68.872 422.651 67.88 425.659 68.008C428.027 68.072 430.395 68.584 432.763 69.544C435.131 70.44 437.531 71.336 439.963 72.232C442.459 73.128 444.955 73.576 447.451 73.576C449.947 73.576 451.675 73.256 452.635 72.616C453.595 71.976 454.075 71.112 454.075 70.024C454.075 68.744 453.403 67.688 452.059 66.856C450.715 66.024 449.019 65.384 446.971 64.936L442.267 63.784C437.403 62.632 433.051 61.352 429.211 59.944C425.371 58.472 422.331 56.552 420.091 54.184C417.915 51.752 416.827 48.52 416.827 44.488C416.827 40.072 418.043 36.488 420.475 33.736C422.907 30.92 426.203 28.872 430.363 27.592C434.523 26.312 439.163 25.672 444.283 25.672C449.531 25.672 454.139 26.216 458.107 27.304C462.075 28.392 465.147 29.96 467.323 32.008C469.563 34.056 470.683 36.552 470.683 39.496C470.683 42.632 469.819 45.096 468.091 46.888C466.427 48.616 464.187 49.48 461.371 49.48C459.515 49.48 457.563 49.16 455.515 48.52C453.531 47.88 451.419 47.272 449.179 46.696C447.003 46.056 444.667 45.736 442.171 45.736C439.931 45.736 438.235 46.088 437.083 46.792C435.931 47.432 435.355 48.296 435.355 49.384C435.355 50.728 436.123 51.72 437.659 52.36C439.195 53 441.723 53.768 445.243 54.664L450.619 55.912C455.035 57 458.907 58.312 462.235 59.848C465.563 61.384 468.155 63.4 470.011 65.896C471.867 68.392 472.795 71.656 472.795 75.688C472.795 80.552 471.643 84.52 469.339 87.592C467.035 90.6 463.835 92.808 459.739 94.216C455.643 95.624 450.843 96.328 445.339 96.328Z" fill="white"/>
<path d="M445.339 96.328C441.755 96.328 438.139 95.976 434.491 95.272C430.907 94.504 427.579 93.416 424.507 92.008C421.499 90.536 419.067 88.776 417.211 86.728C415.355 84.616 414.427 82.184 414.427 79.432C414.427 75.912 415.547 73.096 417.787 70.984C420.027 68.872 422.651 67.88 425.659 68.008C428.027 68.072 430.395 68.584 432.763 69.544C435.131 70.44 437.531 71.336 439.963 72.232C442.459 73.128 444.955 73.576 447.451 73.576C449.947 73.576 451.675 73.256 452.635 72.616C453.595 71.976 454.075 71.112 454.075 70.024C454.075 68.744 453.403 67.688 452.059 66.856C450.715 66.024 449.019 65.384 446.971 64.936L442.267 63.784C437.403 62.632 433.051 61.352 429.211 59.944C425.371 58.472 422.331 56.552 420.091 54.184C417.915 51.752 416.827 48.52 416.827 44.488C416.827 40.072 418.043 36.488 420.475 33.736C422.907 30.92 426.203 28.872 430.363 27.592C434.523 26.312 439.163 25.672 444.283 25.672C449.531 25.672 454.139 26.216 458.107 27.304C462.075 28.392 465.147 29.96 467.323 32.008C469.563 34.056 470.683 36.552 470.683 39.496C470.683 42.632 469.819 45.096 468.091 46.888C466.427 48.616 464.187 49.48 461.371 49.48C459.515 49.48 457.563 49.16 455.515 48.52C453.531 47.88 451.419 47.272 449.179 46.696C447.003 46.056 444.667 45.736 442.171 45.736C439.931 45.736 438.235 46.088 437.083 46.792C435.931 47.432 435.355 48.296 435.355 49.384C435.355 50.728 436.123 51.72 437.659 52.36C439.195 53 441.723 53.768 445.243 54.664L450.619 55.912C455.035 57 458.907 58.312 462.235 59.848C465.563 61.384 468.155 63.4 470.011 65.896C471.867 68.392 472.795 71.656 472.795 75.688C472.795 80.552 471.643 84.52 469.339 87.592C467.035 90.6 463.835 92.808 459.739 94.216C455.643 95.624 450.843 96.328 445.339 96.328Z" fill="url(#paint6_linear_2484_2)"/>
<path d="M506.182 96.328C502.598 96.328 498.983 95.976 495.335 95.272C491.751 94.504 488.422 93.416 485.35 92.008C482.342 90.536 479.911 88.776 478.055 86.728C476.199 84.616 475.271 82.184 475.271 79.432C475.271 75.912 476.39 73.096 478.63 70.984C480.87 68.872 483.495 67.88 486.503 68.008C488.871 68.072 491.239 68.584 493.607 69.544C495.975 70.44 498.374 71.336 500.806 72.232C503.302 73.128 505.798 73.576 508.294 73.576C510.79 73.576 512.518 73.256 513.478 72.616C514.438 71.976 514.918 71.112 514.918 70.024C514.918 68.744 514.246 67.688 512.902 66.856C511.558 66.024 509.863 65.384 507.815 64.936L503.111 63.784C498.247 62.632 493.895 61.352 490.055 59.944C486.215 58.472 483.175 56.552 480.935 54.184C478.759 51.752 477.671 48.52 477.671 44.488C477.671 40.072 478.887 36.488 481.319 33.736C483.751 30.92 487.047 28.872 491.207 27.592C495.367 26.312 500.006 25.672 505.126 25.672C510.374 25.672 514.983 26.216 518.951 27.304C522.919 28.392 525.991 29.96 528.167 32.008C530.407 34.056 531.526 36.552 531.526 39.496C531.526 42.632 530.663 45.096 528.935 46.888C527.271 48.616 525.031 49.48 522.215 49.48C520.359 49.48 518.406 49.16 516.358 48.52C514.374 47.88 512.262 47.272 510.022 46.696C507.846 46.056 505.51 45.736 503.014 45.736C500.774 45.736 499.079 46.088 497.927 46.792C496.775 47.432 496.198 48.296 496.198 49.384C496.198 50.728 496.967 51.72 498.503 52.36C500.039 53 502.566 53.768 506.086 54.664L511.462 55.912C515.878 57 519.75 58.312 523.078 59.848C526.406 61.384 528.998 63.4 530.854 65.896C532.71 68.392 533.638 71.656 533.638 75.688C533.638 80.552 532.486 84.52 530.182 87.592C527.878 90.6 524.678 92.808 520.582 94.216C516.486 95.624 511.686 96.328 506.182 96.328Z" fill="white"/>
<path d="M506.182 96.328C502.598 96.328 498.983 95.976 495.335 95.272C491.751 94.504 488.422 93.416 485.35 92.008C482.342 90.536 479.911 88.776 478.055 86.728C476.199 84.616 475.271 82.184 475.271 79.432C475.271 75.912 476.39 73.096 478.63 70.984C480.87 68.872 483.495 67.88 486.503 68.008C488.871 68.072 491.239 68.584 493.607 69.544C495.975 70.44 498.374 71.336 500.806 72.232C503.302 73.128 505.798 73.576 508.294 73.576C510.79 73.576 512.518 73.256 513.478 72.616C514.438 71.976 514.918 71.112 514.918 70.024C514.918 68.744 514.246 67.688 512.902 66.856C511.558 66.024 509.863 65.384 507.815 64.936L503.111 63.784C498.247 62.632 493.895 61.352 490.055 59.944C486.215 58.472 483.175 56.552 480.935 54.184C478.759 51.752 477.671 48.52 477.671 44.488C477.671 40.072 478.887 36.488 481.319 33.736C483.751 30.92 487.047 28.872 491.207 27.592C495.367 26.312 500.006 25.672 505.126 25.672C510.374 25.672 514.983 26.216 518.951 27.304C522.919 28.392 525.991 29.96 528.167 32.008C530.407 34.056 531.526 36.552 531.526 39.496C531.526 42.632 530.663 45.096 528.935 46.888C527.271 48.616 525.031 49.48 522.215 49.48C520.359 49.48 518.406 49.16 516.358 48.52C514.374 47.88 512.262 47.272 510.022 46.696C507.846 46.056 505.51 45.736 503.014 45.736C500.774 45.736 499.079 46.088 497.927 46.792C496.775 47.432 496.198 48.296 496.198 49.384C496.198 50.728 496.967 51.72 498.503 52.36C500.039 53 502.566 53.768 506.086 54.664L511.462 55.912C515.878 57 519.75 58.312 523.078 59.848C526.406 61.384 528.998 63.4 530.854 65.896C532.71 68.392 533.638 71.656 533.638 75.688C533.638 80.552 532.486 84.52 530.182 87.592C527.878 90.6 524.678 92.808 520.582 94.216C516.486 95.624 511.686 96.328 506.182 96.328Z" fill="url(#paint7_linear_2484_2)"/>
</g>
<path d="M65.1843 35.0566L65.4235 35.0791L65.6618 35.1113C68.0917 35.4931 69.5606 37.2796 70.2624 38.7549C70.7971 39.8791 71.0672 41.1344 71.1052 42.4013C71.382 42.4337 71.6625 42.4848 71.945 42.5605L72.3327 42.6787L72.7126 42.8222C74.5616 43.5952 75.6741 45.154 76.1735 46.6591C76.7047 48.2599 76.6474 50.0134 76.0993 51.6084C75.5511 53.2034 74.5189 54.6208 73.1198 55.5576C72.7755 55.7881 72.3949 55.9949 71.987 56.167C72.0201 56.5457 72.0387 56.9271 72.0388 57.3105C72.0388 58.2905 71.8394 59.4419 71.1589 60.5136C70.4497 61.6303 69.4418 62.3085 68.4538 62.667C66.7535 63.2838 65.0041 62.9945 64.0759 62.8047C62.9976 62.5841 61.8824 62.2261 61.1764 62.0088C60.8924 61.9213 60.6722 61.8567 60.4958 61.8076C60.3606 61.8495 60.1932 61.904 59.9811 61.9756C59.3746 62.1803 58.3244 62.555 57.3268 62.7841C56.4909 62.9762 54.7044 63.3287 52.9489 62.6054C51.9171 62.1802 50.9855 61.4196 50.3708 60.3164C49.7962 59.2852 49.6393 58.2096 49.6393 57.3105C49.6393 56.9755 49.655 56.6421 49.6804 56.3105C49.6089 56.2824 49.5379 56.2547 49.4684 56.2246C47.9247 55.5546 46.6545 54.3465 45.8278 52.8769C45.0012 51.4073 44.6274 49.6922 44.861 48.0215C45.0954 46.3458 46.0072 44.484 47.9255 43.4131L48.2858 43.2275C48.6821 43.04 49.0829 42.9052 49.4821 42.8134C49.4406 41.5502 49.6317 40.2837 50.0925 39.1308C50.7185 37.5647 52.1394 35.6165 54.6882 35.1552C57.1344 34.7127 59.0878 35.9182 60.2448 37.1162C61.3123 35.979 63.0063 34.8921 65.1843 35.0566Z" fill="#4E56C0"/>
<path d="M68.0389 57.3108C68.0389 60.9334 62.1313 57.7436 60.4698 57.7436C58.8083 57.7436 53.6392 60.9334 53.6392 57.3108C53.6392 52.6835 57.2705 47.9982 60.839 47.9982C64.4076 47.9982 68.0389 52.6835 68.0389 57.3108Z" fill="#F5F5F5"/>
<path d="M67.0667 43.4766C66.8003 45.7541 65.426 47.4659 63.9972 47.3C62.5684 47.134 61.6262 45.1532 61.8927 42.8757C62.1592 40.5982 63.5334 38.8864 64.9622 39.0524C66.391 39.2183 67.3332 41.1991 67.0667 43.4766Z" fill="#F5F5F5"/>
<path d="M58.7078 42.7125C59.1191 44.9685 58.3051 47.005 56.8898 47.261C55.4745 47.5171 53.9938 45.8958 53.5826 43.6398C53.1713 41.3838 53.9853 39.3473 55.4006 39.0912C56.8159 38.8352 58.2966 40.4565 58.7078 42.7125Z" fill="#F5F5F5"/>
<path d="M53.6006 48.5227C54.4746 50.0766 54.2235 51.872 53.0398 52.5328C51.8561 53.1936 50.188 52.4696 49.3141 50.9157C48.4401 49.3618 48.6911 47.5664 49.8748 46.9056C51.0585 46.2448 52.7266 46.9688 53.6006 48.5227Z" fill="#F5F5F5"/>
<path d="M67.668 48.7227C67.0888 50.4079 67.6599 52.129 68.9436 52.5669C70.2273 53.0048 71.7375 51.9938 72.3167 50.3086C72.8959 48.6235 72.3248 46.9023 71.0411 46.4644C69.7574 46.0265 68.2472 47.0375 67.668 48.7227Z" fill="#F5F5F5"/>
</g>
<defs>
<filter id="filter0_d_2484_2" x="0" y="0" width="563" height="142" filterUnits="userSpaceOnUse" color-interpolation-filters="sRGB">
<feFlood flood-opacity="0" result="BackgroundImageFix"/>
<feColorMatrix in="SourceAlpha" type="matrix" values="0 0 0 0 0 0 0 0 0 0 0 0 0 0 0 0 0 0 127 0" result="hardAlpha"/>
<feOffset dy="8"/>
<feComposite in2="hardAlpha" operator="out"/>
<feColorMatrix type="matrix" values="0 0 0 0 0.305882 0 0 0 0 0.337255 0 0 0 0 0.752941 0 0 0 1 0"/>
<feBlend mode="normal" in2="BackgroundImageFix" result="effect1_dropShadow_2484_2"/>
<feBlend mode="normal" in="SourceGraphic" in2="effect1_dropShadow_2484_2" result="shape"/>
</filter>
<filter id="filter1_d_2484_2" x="15" y="9" width="534.639" height="111.616" filterUnits="userSpaceOnUse" color-interpolation-filters="sRGB">
<feFlood flood-opacity="0" result="BackgroundImageFix"/>
<feColorMatrix in="SourceAlpha" type="matrix" values="0 0 0 0 0 0 0 0 0 0 0 0 0 0 0 0 0 0 127 0" result="hardAlpha"/>
<feOffset dy="8"/>
<feComposite in2="hardAlpha" operator="out"/>
<feColorMatrix type="matrix" values="0 0 0 0 0.305882 0 0 0 0 0.337255 0 0 0 0 0.752941 0 0 0 1 0"/>
<feBlend mode="normal" in2="BackgroundImageFix" result="effect1_dropShadow_2484_2"/>
<feBlend mode="normal" in="SourceGraphic" in2="effect1_dropShadow_2484_2" result="shape"/>
</filter>
<filter id="filter2_ii_2484_2" x="30.9971" y="25" width="502.641" height="71.616" filterUnits="userSpaceOnUse" color-interpolation-filters="sRGB">
<feFlood flood-opacity="0" result="BackgroundImageFix"/>
<feBlend mode="normal" in="SourceGraphic" in2="BackgroundImageFix" result="shape"/>
<feColorMatrix in="SourceAlpha" type="matrix" values="0 0 0 0 0 0 0 0 0 0 0 0 0 0 0 0 0 0 127 0" result="hardAlpha"/>
<feOffset dx="2"/>
<feComposite in2="hardAlpha" operator="arithmetic" k2="-1" k3="1"/>
<feColorMatrix type="matrix" values="0 0 0 0 0.94902 0 0 0 0 0.486275 0 0 0 0 0.698039 0 0 0 0.5 0"/>
<feBlend mode="plus-lighter" in2="shape" result="effect1_innerShadow_2484_2"/>
<feColorMatrix in="SourceAlpha" type="matrix" values="0 0 0 0 0 0 0 0 0 0 0 0 0 0 0 0 0 0 127 0" result="hardAlpha"/>
<feOffset dx="-2"/>
<feComposite in2="hardAlpha" operator="arithmetic" k2="-1" k3="1"/>
<feColorMatrix type="matrix" values="0 0 0 0 0.94902 0 0 0 0 0.486275 0 0 0 0 0.698039 0 0 0 0.5 0"/>
<feBlend mode="plus-darker" in2="effect1_innerShadow_2484_2" result="effect2_innerShadow_2484_2"/>
</filter>
<linearGradient id="paint0_linear_2484_2" x1="282.793" y1="96.04" x2="282.793" y2="26.04" gradientUnits="userSpaceOnUse">
<stop stop-color="#F5D4E8"/>
<stop offset="0.447115" stop-color="#F27CB2"/>
<stop offset="0.576923" stop-color="#F5E5EF"/>
<stop offset="0.673077" stop-color="#F5F5F5"/>
</linearGradient>
<linearGradient id="paint1_linear_2484_2" x1="282.793" y1="96.04" x2="282.793" y2="26.04" gradientUnits="userSpaceOnUse">
<stop stop-color="#F5D4E8"/>
<stop offset="0.447115" stop-color="#F27CB2"/>
<stop offset="0.576923" stop-color="#F5E5EF"/>
<stop offset="0.673077" stop-color="#F5F5F5"/>
</linearGradient>
<linearGradient id="paint2_linear_2484_2" x1="282.793" y1="96.04" x2="282.793" y2="26.04" gradientUnits="userSpaceOnUse">
<stop stop-color="#F5D4E8"/>
<stop offset="0.447115" stop-color="#F27CB2"/>
<stop offset="0.576923" stop-color="#F5E5EF"/>
<stop offset="0.673077" stop-color="#F5F5F5"/>
</linearGradient>
<linearGradient id="paint3_linear_2484_2" x1="282.793" y1="96.04" x2="282.793" y2="26.04" gradientUnits="userSpaceOnUse">
<stop stop-color="#F5D4E8"/>
<stop offset="0.447115" stop-color="#F27CB2"/>
<stop offset="0.576923" stop-color="#F5E5EF"/>
<stop offset="0.673077" stop-color="#F5F5F5"/>
</linearGradient>
<linearGradient id="paint4_linear_2484_2" x1="282.793" y1="96.04" x2="282.793" y2="26.04" gradientUnits="userSpaceOnUse">
<stop stop-color="#F5D4E8"/>
<stop offset="0.447115" stop-color="#F27CB2"/>
<stop offset="0.576923" stop-color="#F5E5EF"/>
<stop offset="0.673077" stop-color="#F5F5F5"/>
</linearGradient>
<linearGradient id="paint5_linear_2484_2" x1="282.793" y1="96.04" x2="282.793" y2="26.04" gradientUnits="userSpaceOnUse">
<stop stop-color="#F5D4E8"/>
<stop offset="0.447115" stop-color="#F27CB2"/>
<stop offset="0.576923" stop-color="#F5E5EF"/>
<stop offset="0.673077" stop-color="#F5F5F5"/>
</linearGradient>
<linearGradient id="paint6_linear_2484_2" x1="282.793" y1="96.04" x2="282.793" y2="26.04" gradientUnits="userSpaceOnUse">
<stop stop-color="#F5D4E8"/>
<stop offset="0.447115" stop-color="#F27CB2"/>
<stop offset="0.576923" stop-color="#F5E5EF"/>
<stop offset="0.673077" stop-color="#F5F5F5"/>
</linearGradient>
<linearGradient id="paint7_linear_2484_2" x1="282.793" y1="96.04" x2="282.793" y2="26.04" gradientUnits="userSpaceOnUse">
<stop stop-color="#F5D4E8"/>
<stop offset="0.447115" stop-color="#F27CB2"/>
<stop offset="0.576923" stop-color="#F5E5EF"/>
<stop offset="0.673077" stop-color="#F5F5F5"/>
</linearGradient>
</defs>
</svg>
