<svg width="66" height="55" viewBox="0 0 66 55" fill="none" xmlns="http://www.w3.org/2000/svg">
<g clip-path="url(#clip0_2336_292)">
<rect x="26.5" y="5.5" width="13" height="11" rx="1.5" fill="#97A5FF" stroke="#4E56C0" stroke-width="3"/>
<path d="M17 20C11 24.4 3.16667 8.5 0 0C12.293 2.57507 19.5283 3.31331 33 3.5C30.1667 7.16667 23 15.6 17 20Z" fill="white" stroke="#4E56C0" stroke-width="3"/>
<path d="M49 20C55 24.4 62.8333 8.5 66 0C53.707 2.57507 46.4717 3.31331 33 3.5C35.8333 7.16667 43 15.6 49 20Z" fill="white" stroke="#4E56C0" stroke-width="3"/>
<path d="M21 42.5L27.5 15H39L45 42.5L33.5 54.5L21 42.5Z" fill="#97A5FF" stroke="#4E56C0" stroke-width="3"/>
</g>
<defs>
<clipPath id="clip0_2336_292">
<rect width="66" height="54.5" fill="white"/>
</clipPath>
</defs>
</svg>
