<svg width="300" height="300" viewBox="0 0 300 300" fill="none" xmlns="http://www.w3.org/2000/svg">
<path d="M61 212.5C59.5 198 76.5 194.5 73.5 206C67.9246 227.372 90.2621 228.136 100 226.826V235.723C68.8875 239.183 61.7229 219.488 61 212.5Z" fill="#F9C597" stroke="#4E56C0" stroke-width="3" stroke-linecap="round"/>
<path d="M99.5 226.5C98.3 202.9 108.667 180.333 114 172L176.5 170C180 174.167 187.7 190.3 190.5 221.5C193.3 252.7 174.333 259.5 164.5 259C158 263 153 260.5 149.5 259C146.7 257.8 144.667 233.5 144 221.5C143.833 232.833 142.8 256.2 140 259C137.2 261.8 127.833 260.167 123.5 259C115.5 258.5 101 256 99.5 226.5Z" fill="#F9C597"/>
<path d="M175.131 167H116.131C116.131 167 88.1151 214.923 105.131 236.5C128 265.5 162.5 268 185.631 236.5C201.877 214.375 175.131 167 175.131 167Z" fill="#F9C597"/>
<path d="M119.5 221C121.365 233.032 121.512 257.497 125.175 259.102C129.754 261.107 134.333 262.11 138.912 259.102C142.575 256.695 143.83 232.698 144 221" stroke="#4E56C0" stroke-width="3" stroke-linecap="round"/>
<path d="M169.5 221C167.635 233.032 167.488 257.497 163.825 259.102C159.246 261.107 154.667 262.11 150.088 259.102C146.425 256.695 145.17 232.698 145 221" stroke="#4E56C0" stroke-width="3" stroke-linecap="round"/>
<path d="M123.5 259C119.5 259.333 110.2 258.1 105 250.5C99.8 242.9 99.5 225.667 100 218C101.167 205.5 105.5 178.8 113.5 172" stroke="#4E56C0" stroke-width="3" stroke-linecap="round"/>
<path d="M167 259C171 259.333 180.3 258.1 185.5 250.5C190.7 242.9 191 225.667 190.5 218C189.333 205.5 185 178.8 177 172" stroke="#4E56C0" stroke-width="3" stroke-linecap="round"/>
<path d="M140 258.5C141.5 260 147 260 148.5 258.5" stroke="#4E56C0" stroke-width="3" stroke-linecap="round"/>
<mask id="path-9-outside-1_2471_287" maskUnits="userSpaceOnUse" x="64" y="14" width="162" height="164" fill="black">
<rect fill="white" x="64" y="14" width="162" height="164"/>
<path fill-rule="evenodd" clip-rule="evenodd" d="M202.926 19.5796C205.883 16.4387 211.163 18.2654 211.547 22.5621L217.93 94.0152C217.942 94.1511 217.947 94.2862 217.948 94.4195C221.212 100.917 223 107.964 223 115.327C223 147.875 188.078 174.26 145 174.26C101.922 174.26 67 147.875 67 115.327C67.0001 107.683 68.9252 100.378 72.4307 93.6763L78.7842 22.5621C79.168 18.2654 84.4483 16.4387 87.4053 19.5796L124.081 58.5377C130.738 57.1407 137.754 56.3941 145 56.3941C152.346 56.3941 159.455 57.1619 166.194 58.5962L202.926 19.5796Z"/>
</mask>
<path fill-rule="evenodd" clip-rule="evenodd" d="M202.926 19.5796C205.883 16.4387 211.163 18.2654 211.547 22.5621L217.93 94.0152C217.942 94.1511 217.947 94.2862 217.948 94.4195C221.212 100.917 223 107.964 223 115.327C223 147.875 188.078 174.26 145 174.26C101.922 174.26 67 147.875 67 115.327C67.0001 107.683 68.9252 100.378 72.4307 93.6763L78.7842 22.5621C79.168 18.2654 84.4483 16.4387 87.4053 19.5796L124.081 58.5377C130.738 57.1407 137.754 56.3941 145 56.3941C152.346 56.3941 159.455 57.1619 166.194 58.5962L202.926 19.5796Z" fill="#F9C597"/>
<path d="M202.926 19.5796L205.11 21.636V21.636L202.926 19.5796ZM211.547 22.5621L214.535 22.2951V22.2951L211.547 22.5621ZM217.93 94.0152L214.942 94.2821V94.2821L217.93 94.0152ZM217.948 94.4195L214.948 94.4532L214.956 95.1465L215.267 95.7661L217.948 94.4195ZM223 115.327H226V115.327L223 115.327ZM67 115.327L64 115.327V115.327H67ZM72.4307 93.6763L75.089 95.0667L75.3656 94.5378L75.4188 93.9433L72.4307 93.6763ZM78.7842 22.5621L81.7723 22.829L81.7723 22.829L78.7842 22.5621ZM87.4053 19.5796L89.5896 17.5233L89.5896 17.5233L87.4053 19.5796ZM124.081 58.5377L121.897 60.594L123.05 61.8193L124.697 61.4737L124.081 58.5377ZM166.194 58.5962L165.57 61.5305L167.221 61.882L168.379 60.6526L166.194 58.5962ZM202.926 19.5796L205.11 21.636C206.293 20.3795 208.405 21.1105 208.559 22.829L211.547 22.5621L214.535 22.2951C213.921 15.4202 205.472 12.4979 200.741 17.5233L202.926 19.5796ZM211.547 22.5621L208.559 22.829L214.942 94.2821L217.93 94.0152L220.918 93.7483L214.535 22.2951L211.547 22.5621ZM217.93 94.0152L214.942 94.2821C214.945 94.3161 214.947 94.3687 214.948 94.4532L217.948 94.4195L220.948 94.3858C220.946 94.2036 220.939 93.9861 220.918 93.7483L217.93 94.0152ZM217.948 94.4195L215.267 95.7661C218.335 101.873 220 108.461 220 115.327L223 115.327L226 115.327C226 107.467 224.09 99.9617 220.629 93.0728L217.948 94.4195ZM223 115.327H220C220 130.454 211.892 144.371 198.346 154.605C184.798 164.841 165.948 171.26 145 171.26V174.26V177.26C167.131 177.26 187.28 170.486 201.963 159.393C216.647 148.298 226 132.747 226 115.327H223ZM145 174.26V171.26C124.052 171.26 105.202 164.841 91.6542 154.605C78.1082 144.371 70 130.454 70 115.327H67H64C64 132.747 73.3527 148.298 88.0372 159.393C102.72 170.486 122.869 177.26 145 177.26V174.26ZM67 115.327L70 115.327C70.0001 108.199 71.7928 101.369 75.089 95.0667L72.4307 93.6763L69.7723 92.2859C66.0576 99.3881 64.0001 107.167 64 115.327L67 115.327ZM72.4307 93.6763L75.4188 93.9433L81.7723 22.829L78.7842 22.5621L75.7961 22.2951L69.4426 93.4094L72.4307 93.6763ZM78.7842 22.5621L81.7723 22.829C81.9258 21.1105 84.0381 20.3795 85.2209 21.636L87.4053 19.5796L89.5896 17.5233C84.8586 12.4979 76.4102 15.4202 75.7961 22.2951L78.7842 22.5621ZM87.4053 19.5796L85.2209 21.636L121.897 60.594L124.081 58.5377L126.265 56.4813L89.5896 17.5233L87.4053 19.5796ZM124.081 58.5377L124.697 61.4737C131.151 60.1196 137.959 59.3941 145 59.3941V56.3941V53.3941C137.548 53.3941 130.326 54.1619 123.465 55.6016L124.081 58.5377ZM145 56.3941V59.3941C152.138 59.3941 159.037 60.1401 165.57 61.5305L166.194 58.5962L166.819 55.662C159.873 54.1836 152.555 53.3941 145 53.3941V56.3941ZM166.194 58.5962L168.379 60.6526L205.11 21.636L202.926 19.5796L200.741 17.5233L164.01 56.5399L166.194 58.5962Z" fill="#4E56C0" mask="url(#path-9-outside-1_2471_287)"/>
<ellipse cx="105.188" cy="126" rx="15.1875" ry="18" fill="white"/>
<ellipse cx="108" cy="126" rx="12.375" ry="18" fill="#4E56C0"/>
<path d="M108.526 114.087C108.74 113.47 109.564 113.356 109.937 113.892L112.203 117.14C112.35 117.35 112.587 117.477 112.843 117.482L116.803 117.564C117.456 117.577 117.819 118.325 117.425 118.846L115.036 122.005C114.881 122.209 114.834 122.474 114.908 122.719L116.054 126.51C116.243 127.135 115.644 127.711 115.027 127.498L111.284 126.202C111.043 126.118 110.776 126.155 110.566 126.301L107.314 128.563C106.778 128.936 106.045 128.544 106.058 127.891L106.134 123.931C106.139 123.675 106.021 123.433 105.817 123.278L102.661 120.885C102.141 120.49 102.287 119.672 102.912 119.482L106.702 118.331C106.946 118.256 107.141 118.069 107.225 117.828L108.526 114.087Z" fill="white"/>
<path d="M108.643 141.727C103.832 142.116 101.053 137.477 99.7565 133.541C99.4516 132.616 100.547 132.019 101.286 132.654C106.356 137.01 109.933 136.903 115.072 132.34C115.763 131.727 116.814 132.231 116.606 133.131C115.766 136.774 113.511 141.333 108.643 141.727Z" fill="#EE9C7B"/>
<circle cx="99.5625" cy="127.688" r="1.6875" fill="white"/>
<ellipse cx="184.188" cy="125" rx="15.1875" ry="18" fill="white"/>
<ellipse cx="181.375" cy="125" rx="12.375" ry="18" fill="#4E56C0"/>
<path d="M181.901 111.962C182.115 111.345 182.939 111.231 183.312 111.767L185.578 115.015C185.725 115.225 185.962 115.352 186.218 115.357L190.178 115.439C190.831 115.452 191.194 116.2 190.8 116.721L188.411 119.88C188.256 120.084 188.209 120.349 188.283 120.594L189.429 124.385C189.618 125.01 189.019 125.586 188.402 125.373L184.659 124.077C184.418 123.993 184.151 124.03 183.941 124.176L180.689 126.438C180.153 126.811 179.42 126.419 179.433 125.766L179.509 121.806C179.514 121.55 179.396 121.308 179.192 121.153L176.036 118.76C175.516 118.365 175.662 117.547 176.287 117.357L180.077 116.206C180.321 116.131 180.516 115.944 180.6 115.703L181.901 111.962Z" fill="white"/>
<path d="M182.018 139.602C177.207 139.991 174.428 135.352 173.131 131.416C172.827 130.491 173.922 129.894 174.661 130.529C179.731 134.885 183.308 134.778 188.447 130.215C189.138 129.602 190.189 130.106 189.981 131.006C189.141 134.649 186.886 139.208 182.018 139.602Z" fill="#EE9C7B"/>
<circle cx="172.938" cy="125.562" r="1.6875" fill="white"/>
<ellipse cx="145" cy="144" rx="6" ry="3" fill="#4E56C0"/>
<path d="M134 147C138 152.333 142 152.333 145 147" stroke="#4E56C0" stroke-width="3" stroke-linecap="round"/>
<path d="M145 147C149 152.333 153 152.333 156 147" stroke="#4E56C0" stroke-width="3" stroke-linecap="round"/>
<line x1="64.6558" y1="138.674" x2="79.5649" y2="140.323" stroke="#4E56C0" stroke-width="3" stroke-linecap="round"/>
<line x1="67.0238" y1="150.147" x2="81.4322" y2="145.976" stroke="#4E56C0" stroke-width="3" stroke-linecap="round"/>
<line x1="1.5" y1="-1.5" x2="16.5" y2="-1.5" transform="matrix(-0.993942 0.109908 0.109908 0.993942 226.29 140)" stroke="#4E56C0" stroke-width="3" stroke-linecap="round"/>
<line x1="1.5" y1="-1.5" x2="16.5" y2="-1.5" transform="matrix(-0.960565 -0.278055 -0.278055 0.960565 223.29 152.005)" stroke="#4E56C0" stroke-width="3" stroke-linecap="round"/>
<path d="M82 80L85 29L116 61C98.8373 65.3033 91.3694 69.4437 82 80Z" fill="#EE9C7B"/>
<path d="M208 80L205 29L174 61C191.163 65.3033 198.631 69.4437 208 80Z" fill="#EE9C7B"/>
<path d="M141.037 56.4305C136.416 56.2078 129.118 57.2866 125.945 58.1888C125.414 58.3395 125.165 58.9149 125.368 59.4274L137.861 90.8732C138.254 91.8643 139.719 91.633 139.788 90.5688L141.937 57.4639C141.972 56.9263 141.575 56.4564 141.037 56.4305Z" fill="#EE9C7B"/>
<path d="M148.963 56.4297C153.584 56.207 160.882 57.2859 164.055 58.188C164.586 58.3388 164.835 58.9142 164.632 59.4266L152.139 90.8725C151.746 91.8636 150.281 91.6323 150.212 90.5681L148.063 57.4632C148.028 56.9256 148.425 56.4556 148.963 56.4297Z" fill="#EE9C7B"/>
<path d="M97.7468 162.114C95.7049 161.043 92.0523 158.958 89.9246 156.979C89.4333 156.522 89.6285 155.749 90.2515 155.5L105.793 149.283C106.723 148.911 107.562 149.987 106.974 150.798L98.9979 161.813C98.7107 162.209 98.1804 162.341 97.7468 162.114Z" fill="#EE9C7B"/>
<path d="M190.753 163.114C192.795 162.043 196.448 159.958 198.575 157.979C199.067 157.522 198.872 156.749 198.248 156.5L182.707 150.283C181.777 149.911 180.938 150.987 181.526 151.798L189.502 162.813C189.789 163.209 190.32 163.341 190.753 163.114Z" fill="#EE9C7B"/>
<path d="M108.158 184.404C107.347 186.653 106.298 190.199 105.772 192.569C105.62 193.255 106.237 193.83 106.921 193.672L121.708 190.26C122.679 190.036 122.761 188.686 121.825 188.345L109.41 183.831C108.903 183.647 108.341 183.897 108.158 184.404Z" fill="#EE9C7B"/>
<path d="M104.733 197.522C104.142 199.839 103.439 203.469 103.144 205.879C103.059 206.576 103.728 207.089 104.394 206.866L118.784 202.045C119.728 201.729 119.68 200.377 118.716 200.129L105.924 196.831C105.401 196.696 104.866 196.999 104.733 197.522Z" fill="#EE9C7B"/>
<path d="M185.688 197.522C186.279 199.839 186.981 203.469 187.276 205.879C187.362 206.576 186.693 207.089 186.026 206.866L171.637 202.045C170.692 201.729 170.74 200.377 171.705 200.129L184.496 196.831C185.019 196.696 185.554 196.999 185.688 197.522Z" fill="#EE9C7B"/>
<path d="M182.242 183.904C183.053 186.153 184.102 189.699 184.628 192.069C184.78 192.755 184.163 193.33 183.479 193.172L168.692 189.76C167.722 189.536 167.639 188.186 168.575 187.845L180.99 183.331C181.497 183.147 182.059 183.397 182.242 183.904Z" fill="#EE9C7B"/>
</svg>
