<svg width="300" height="300" viewBox="0 0 300 300" fill="none" xmlns="http://www.w3.org/2000/svg">
<path d="M103.189 248.5C101.589 246.9 110.523 242.833 115.189 241L133.689 246.5C134.523 248.833 135.689 253.9 133.689 255.5C132.189 256.7 127.189 252.167 125.189 249.5C123.189 251.5 120.089 256.4 117.689 258C115.289 259.6 115.689 252.5 115.189 248.5C111.856 249.167 104.789 250.1 103.189 248.5Z" fill="#F9C597" stroke="#4E56C0" stroke-width="3"/>
<path d="M196.604 247.5C198.204 245.9 189.271 241.833 184.604 240L166.104 245.5C165.271 247.833 164.104 252.9 166.104 254.5C167.604 255.7 172.604 251.167 174.604 248.5C176.604 250.5 179.704 255.4 182.104 257C184.504 258.6 184.104 251.5 184.604 247.5C187.938 248.167 195.004 249.1 196.604 247.5Z" fill="#F9C597" stroke="#4E56C0" stroke-width="3"/>
<path d="M150 126.5C188.569 126.5 219.5 153.985 219.5 187.5C219.5 221.015 188.569 248.5 150 248.5C111.431 248.5 80.5 221.015 80.5 187.5C80.5 153.985 111.431 126.5 150 126.5Z" fill="#FFD1E5" stroke="#4E56C0" stroke-width="3"/>
<path d="M91.4932 147.569C97.451 148.191 105.111 149.575 109.873 151.752C111.101 152.313 112.069 152.897 112.75 153.486C113.434 154.079 113.736 154.594 113.828 155.01C113.981 155.702 113.675 157.105 110.535 159.264L110.104 159.561L109.95 160.062C108.541 164.673 107.325 171.791 105.986 179.388C104.636 187.047 103.148 195.272 101.192 202.284C100.215 205.788 99.132 208.948 97.9102 211.559C96.6801 214.187 95.3571 216.154 93.9512 217.375C92.5919 218.555 91.1935 219.015 89.6318 218.759C87.9867 218.489 85.9352 217.388 83.4365 214.931C71.7264 203.413 70.7772 189.948 74.3027 177.535C77.7526 165.39 85.4758 154.366 91.4932 147.569Z" fill="#FFD1E5" stroke="#4E56C0" stroke-width="3"/>
<path d="M209.869 147.569C203.911 148.191 196.251 149.575 191.489 151.752C190.261 152.313 189.293 152.897 188.612 153.486C187.928 154.079 187.626 154.594 187.534 155.01C187.381 155.702 187.687 157.105 190.827 159.264L191.259 159.561L191.412 160.062C192.821 164.673 194.037 171.791 195.376 179.388C196.726 187.047 198.214 195.272 200.17 202.284C201.147 205.788 202.23 208.948 203.452 211.559C204.682 214.187 206.005 216.154 207.411 217.375C208.77 218.555 210.169 219.015 211.73 218.759C213.376 218.489 215.427 217.388 217.926 214.931C229.636 203.413 230.585 189.948 227.06 177.535C223.61 165.39 215.886 154.366 209.869 147.569Z" fill="#FFD1E5" stroke="#4E56C0" stroke-width="3"/>
<path d="M150 47.5C169.081 47.5 186.451 57.2321 199.089 71.3076C211.734 85.392 219.5 103.672 219.5 120.5C219.5 137.155 211.527 148.307 198.729 155.382C185.826 162.514 167.996 165.5 148.5 165.5C129.001 165.5 111.94 162.513 99.8037 155.4C87.7828 148.355 80.5 137.219 80.5 120.5C80.5 103.672 88.2655 85.392 100.911 71.3076C113.549 57.2321 130.919 47.5 150 47.5Z" fill="#FFD1E5" stroke="#4E56C0" stroke-width="3"/>
<ellipse cx="110.188" cy="125" rx="15.1875" ry="18" fill="white"/>
<ellipse cx="113" cy="125" rx="12.375" ry="18" fill="#4E56C0"/>
<path d="M113.526 113.087C113.74 112.47 114.564 112.356 114.937 112.892L117.203 116.14C117.35 116.35 117.587 116.477 117.843 116.482L121.803 116.564C122.456 116.577 122.819 117.325 122.425 117.846L120.036 121.005C119.881 121.209 119.834 121.474 119.908 121.719L121.054 125.51C121.243 126.135 120.644 126.711 120.027 126.498L116.284 125.202C116.043 125.118 115.776 125.155 115.566 125.301L112.314 127.563C111.778 127.936 111.045 127.544 111.058 126.891L111.134 122.931C111.139 122.675 111.021 122.433 110.817 122.278L107.661 119.885C107.141 119.49 107.287 118.672 107.912 118.482L111.702 117.331C111.946 117.256 112.141 117.069 112.225 116.828L113.526 113.087Z" fill="white"/>
<path d="M113.643 140.727C108.832 141.116 106.053 136.477 104.756 132.541C104.452 131.616 105.547 131.019 106.286 131.654C111.356 136.01 114.933 135.903 120.072 131.34C120.763 130.727 121.814 131.231 121.606 132.131C120.766 135.774 118.511 140.333 113.643 140.727Z" fill="#D685D9"/>
<circle cx="104.562" cy="126.688" r="1.6875" fill="white"/>
<ellipse cx="189.188" cy="124" rx="15.1875" ry="18" fill="white"/>
<ellipse cx="186.375" cy="124" rx="12.375" ry="18" fill="#4E56C0"/>
<path d="M186.901 110.962C187.115 110.345 187.939 110.231 188.312 110.767L190.578 114.015C190.725 114.225 190.962 114.352 191.218 114.357L195.178 114.439C195.831 114.452 196.194 115.2 195.8 115.721L193.411 118.88C193.256 119.084 193.209 119.349 193.283 119.594L194.429 123.385C194.618 124.01 194.019 124.586 193.402 124.373L189.659 123.077C189.418 122.993 189.151 123.03 188.941 123.176L185.689 125.438C185.153 125.811 184.42 125.419 184.433 124.766L184.509 120.806C184.514 120.55 184.396 120.308 184.192 120.153L181.036 117.76C180.516 117.365 180.662 116.547 181.287 116.357L185.077 115.206C185.321 115.131 185.516 114.944 185.6 114.703L186.901 110.962Z" fill="white"/>
<path d="M187.018 138.602C182.207 138.991 179.428 134.352 178.131 130.416C177.827 129.491 178.922 128.894 179.661 129.529C184.731 133.885 188.308 133.778 193.447 129.215C194.138 128.602 195.189 129.106 194.981 130.006C194.141 133.649 191.886 138.208 187.018 138.602Z" fill="#D685D9"/>
<circle cx="177.938" cy="124.562" r="1.6875" fill="white"/>
<path d="M149.543 136.243L133.768 144.623C133.04 145.01 133.066 146.062 133.812 146.412L149.587 153.806C149.849 153.929 150.152 153.932 150.417 153.815L167.069 146.42C167.841 146.077 167.867 144.992 167.113 144.613L150.462 136.233C150.172 136.087 149.83 136.09 149.543 136.243Z" fill="#F9C597" stroke="#4E56C0" stroke-width="2.5"/>
<path d="M134 145.5C146.808 148.55 154.035 148.49 167 145.5" stroke="#4E56C0" stroke-width="2.5"/>
<path d="M134.5 69C136.167 71.6667 137 75 142.5 75C149.648 75 161 63.5 150.5 63.5C140 63.5 153 75 159.5 75C165.09 75 166.5 70.3333 166 68" stroke="#4E56C0" stroke-width="3" stroke-linecap="round"/>
</svg>
