<svg width="98" height="61" viewBox="0 0 98 61" fill="none" xmlns="http://www.w3.org/2000/svg">
<g clip-path="url(#clip0_2329_224)">
<path d="M7.04795 3.50559L40.7533 19.5063C42.1464 20.1677 43.0353 21.5711 43.0379 23.1132L43.0616 37.5378C43.0642 39.0938 42.1642 40.51 40.7545 41.1685L7.13618 56.8724C4.18939 58.2489 0.918999 55.7199 1.50985 52.5216L5.41697 31.372C5.50507 30.8951 5.50571 30.4061 5.41886 29.929L1.39719 7.83542C0.813545 4.62907 4.10382 2.10793 7.04795 3.50559Z" fill="#EBB5CD" stroke="#4E56C0" stroke-width="3"/>
<path d="M89.963 3.36903L56.3105 19.4807C54.9196 20.1467 54.0353 21.5529 54.0379 23.0951L54.0616 37.5197C54.0642 39.0757 54.9688 40.4889 56.3807 41.1428L90.0505 56.7358C93.0018 58.1026 96.2639 55.5629 95.6625 52.3665L91.6857 31.2299C91.5961 30.7533 91.5938 30.2643 91.6791 29.7869L95.628 7.68023C96.2011 4.47197 92.9025 1.96169 89.963 3.36903Z" fill="#EBB5CD" stroke="#4E56C0" stroke-width="3"/>
<path d="M55.8253 18.5678C56.9972 23.2285 57.5528 26.911 57.5502 30.5611C57.5474 34.2118 56.9862 37.8977 55.857 42.5678L41.1696 42.592C40.1135 37.9306 39.5712 34.2444 39.5502 30.5888C39.5291 26.9338 40.0297 23.2476 41.1173 18.5921L55.8253 18.5678Z" fill="#EBB5CD" stroke="#4E56C0" stroke-width="3"/>
<line x1="24.5745" y1="24.0587" x2="38.3374" y2="27.7221" stroke="#4E56C0" stroke-width="3" stroke-linecap="round"/>
<line x1="1.5" y1="-1.5" x2="15.7421" y2="-1.5" transform="matrix(0.965498 -0.260409 -0.260409 -0.965498 22.7539 34.1223)" stroke="#4E56C0" stroke-width="3" stroke-linecap="round"/>
<line x1="1.5" y1="-1.5" x2="15.7421" y2="-1.5" transform="matrix(-0.965498 0.260409 0.260409 0.965498 74.6957 25.0368)" stroke="#4E56C0" stroke-width="3" stroke-linecap="round"/>
<line x1="72.8752" y1="35.1004" x2="59.1123" y2="31.437" stroke="#4E56C0" stroke-width="3" stroke-linecap="round"/>
</g>
<defs>
<clipPath id="clip0_2329_224">
<rect width="97" height="60" fill="white" transform="translate(0 0.159752) rotate(-0.0943608)"/>
</clipPath>
</defs>
</svg>
