<svg width="332" height="114" viewBox="0 0 332 114" fill="none" xmlns="http://www.w3.org/2000/svg">
<mask id="path-1-inside-1_2418_207" fill="white">
<path d="M332 79.4994H331.988C330.988 98.2909 257.057 113.46 166 113.46C74.9432 113.46 1.01154 98.2909 0.0117188 79.4994H0V34.7328H332V79.4994Z"/>
</mask>
<path d="M332 79.4994H331.988C330.988 98.2909 257.057 113.46 166 113.46C74.9432 113.46 1.01154 98.2909 0.0117188 79.4994H0V34.7328H332V79.4994Z" fill="#CAD2F5"/>
<path d="M332 79.4994V82.4994H335V79.4994H332ZM331.988 79.4994V76.4994H329.144L328.993 79.34L331.988 79.4994ZM0.0117188 79.4994L3.00748 79.34L2.85634 76.4994H0.0117188V79.4994ZM0 79.4994H-3V82.4994H0V79.4994ZM0 34.7328V31.7328H-3V34.7328H0ZM332 34.7328H335V31.7328H332V34.7328ZM332 79.4994V76.4994H331.988V79.4994V82.4994H332V79.4994ZM331.988 79.4994L328.993 79.34C328.922 80.6655 328.197 82.2893 326.221 84.1944C324.246 86.0993 321.234 88.0687 317.141 90.0273C308.965 93.9395 297.056 97.538 282.164 100.588C252.424 106.678 211.388 110.46 166 110.46V113.46V116.46C211.669 116.46 253.127 112.658 283.367 106.466C298.465 103.374 310.917 99.6568 319.731 95.4396C324.132 93.3335 327.771 91.0347 330.386 88.5134C333.001 85.992 334.805 83.0311 334.984 79.6588L331.988 79.4994ZM166 113.46V110.46C120.612 110.46 79.5758 106.678 49.8363 100.588C34.9439 97.538 23.035 93.9395 14.8592 90.0273C10.7661 88.0687 7.75427 86.0993 5.77877 84.1944C3.80325 82.2893 3.07801 80.6655 3.00748 79.34L0.0117188 79.4994L-2.98404 79.6588C-2.80462 83.0311 -1.00078 85.992 1.6139 88.5134C4.2286 91.0347 7.86813 93.3335 12.2694 95.4396C21.0826 99.6568 33.5351 103.374 48.6327 106.466C78.8732 112.658 120.331 116.46 166 116.46V113.46ZM0.0117188 79.4994V76.4994H0V79.4994V82.4994H0.0117188V79.4994ZM0 79.4994H3V34.7328H0H-3V79.4994H0ZM0 34.7328V37.7328H332V34.7328V31.7328H0V34.7328ZM332 34.7328H329V79.4994H332H335V34.7328H332Z" fill="#4E56C0" mask="url(#path-1-inside-1_2418_207)"/>
<path d="M166 1.5C211.769 1.5 253.163 5.33999 283.076 11.5293C298.045 14.6265 310.06 18.2962 318.296 22.3252C322.417 24.3411 325.514 26.4098 327.561 28.4795C329.603 30.5447 330.5 32.5023 330.5 34.3467C330.5 36.1911 329.603 38.1486 327.561 40.2139C325.514 42.2837 322.417 44.3531 318.296 46.3691C310.06 50.3982 298.045 54.0679 283.076 57.165C253.163 63.3543 211.769 67.1934 166 67.1934C120.231 67.1934 78.837 63.3543 48.9238 57.165C33.9551 54.0679 21.9403 50.3982 13.7041 46.3691C9.58294 44.3531 6.4865 42.2837 4.43945 40.2139C2.39695 38.1486 1.5 36.1911 1.5 34.3467C1.50006 32.5023 2.39702 30.5447 4.43945 28.4795C6.48646 26.4098 9.58318 24.3411 13.7041 22.3252C21.9402 18.2962 33.9551 14.6265 48.9238 11.5293C78.837 5.33999 120.231 1.5 166 1.5Z" fill="white" stroke="#4E56C0" stroke-width="3"/>
</svg>
