<svg width="149" height="54" viewBox="0 0 149 54" fill="none" xmlns="http://www.w3.org/2000/svg">
<g clip-path="url(#clip0_2513_67)">
<path d="M67 19.2289C73.3473 17.5958 76.7774 17.5849 82.8725 19.2289V24.5357C76.6866 21.86 73.1656 21.865 67 24.5357V19.2289Z" fill="#4E56C0"/>
<path d="M32.6241 2.79102C33.8212 0.356285 37.2924 0.356278 38.4894 2.79102L45.5128 17.0791C45.5873 17.2304 45.738 17.3295 45.9064 17.3389L63.9015 18.3359C67.0193 18.5086 68.1426 22.5374 65.5636 24.2979L52.339 33.3232C52.17 33.4386 52.0961 33.6511 52.1564 33.8467L56.4581 47.8174C57.3091 50.5806 54.4165 53.0059 51.8439 51.6865L35.7697 43.4434C35.6359 43.3748 35.4776 43.3748 35.3439 43.4434L19.2697 51.6865C16.697 53.0059 13.8044 50.5806 14.6554 47.8174L18.9572 33.8467C19.0174 33.6511 18.9436 33.4386 18.7745 33.3232L5.54993 24.2979C2.97095 22.5374 4.09418 18.5086 7.21204 18.3359L25.2072 17.3389C25.3755 17.3295 25.5263 17.2304 25.6007 17.0791L32.6241 2.79102Z" fill="#F27474" stroke="#4E56C0" stroke-width="2.80103"/>
<path d="M33.3213 15.3702C33.9451 13.7993 36.1684 13.7993 36.7923 15.3702L39.5282 22.2596C39.8106 22.9708 40.4985 23.4377 41.2637 23.4377H49.1842C51.0822 23.4377 51.7698 25.9404 50.1384 26.9102L44.418 30.3107C43.6292 30.7796 43.2979 31.7522 43.6366 32.605L45.9642 38.466C46.622 40.1225 44.8066 41.6711 43.2745 40.7604L36.0109 36.4426C35.4229 36.093 34.6907 36.093 34.1026 36.4426L26.839 40.7604C25.307 41.6711 23.4915 40.1225 24.1494 38.466L26.4769 32.605C26.8156 31.7522 26.4844 30.7796 25.6955 30.3107L19.9751 26.9102C18.3437 25.9404 19.0314 23.4377 20.9293 23.4377H28.8498C29.6151 23.4377 30.3029 22.9708 30.5853 22.2596L33.3213 15.3702Z" fill="#4E56C0"/>
<path d="M111.624 2.79102C112.821 0.356285 116.292 0.356278 117.49 2.79102L124.513 17.0791C124.587 17.2304 124.738 17.3295 124.906 17.3389L142.902 18.3359C146.019 18.5086 147.143 22.5374 144.564 24.2979L131.339 33.3232C131.17 33.4386 131.096 33.6511 131.156 33.8467L135.458 47.8174C136.309 50.5806 133.417 53.0059 130.844 51.6865L114.77 43.4434C114.636 43.3748 114.478 43.3748 114.344 43.4434L98.2698 51.6865C95.6971 53.0059 92.8046 50.5806 93.6555 47.8174L97.9573 33.8467C98.0175 33.6511 97.9437 33.4386 97.7747 33.3232L84.55 24.2979C81.9711 22.5374 83.0943 18.5086 86.2122 18.3359L104.207 17.3389C104.376 17.3295 104.526 17.2304 104.601 17.0791L111.624 2.79102Z" fill="#F27474" stroke="#4E56C0" stroke-width="2.80103"/>
<path d="M112.321 15.3702C112.945 13.7993 115.169 13.7993 115.792 15.3702L118.528 22.2596C118.811 22.9708 119.499 23.4377 120.264 23.4377H128.184C130.082 23.4377 130.77 25.9404 129.139 26.9102L123.418 30.3107C122.629 30.7796 122.298 31.7522 122.637 32.605L124.964 38.466C125.622 40.1225 123.807 41.6711 122.275 40.7604L115.011 36.4426C114.423 36.093 113.691 36.093 113.103 36.4426L105.839 40.7604C104.307 41.6711 102.492 40.1225 103.149 38.466L105.477 32.605C105.816 31.7522 105.484 30.7796 104.696 30.3107L98.9753 26.9102C97.3438 25.9404 98.0315 23.4377 99.9294 23.4377H107.85C108.615 23.4377 109.303 22.9708 109.585 22.2596L112.321 15.3702Z" fill="#4E56C0"/>
</g>
<defs>
<clipPath id="clip0_2513_67">
<rect width="149" height="54" fill="white"/>
</clipPath>
</defs>
</svg>
