<svg width="300" height="300" viewBox="0 0 300 300" fill="none" xmlns="http://www.w3.org/2000/svg">
<path d="M87.1486 219.423C91.1226 227.224 98.8795 228.649 105 227.826V236.723C91.65 241.804 82.3344 234 78.5 224.5C74.6656 215 67.601 206.199 59.5 217C56.5 221 62 230 55.5 231.5C49.1664 232.962 48 218 53.5 211.5C61.6514 201.867 77 199.5 87.1486 219.423Z" fill="#FFEFDE" stroke="#4E56C0" stroke-width="3" stroke-linecap="round"/>
<path d="M104.5 227.5C103.3 203.9 113.667 181.333 119 173L181.5 171C185 175.167 192.7 191.3 195.5 222.5C198.3 253.7 179.333 260.5 169.5 260C163 264 158 261.5 154.5 260C151.7 258.8 149.667 234.5 149 222.5C148.833 233.833 147.8 257.2 145 260C142.2 262.8 132.833 261.167 128.5 260C120.5 259.5 106 257 104.5 227.5Z" fill="#FFEFDE"/>
<path d="M180.131 168H121.131C121.131 168 93.1151 215.923 110.131 237.5C133 266.5 167.5 269 190.631 237.5C206.877 215.375 180.131 168 180.131 168Z" fill="#FFEFDE"/>
<path d="M124.5 222C126.365 234.032 126.512 258.497 130.175 260.102C134.754 262.107 139.333 263.11 143.912 260.102C147.575 257.695 148.83 233.698 149 222" stroke="#4E56C0" stroke-width="3" stroke-linecap="round"/>
<path d="M174.5 222C172.635 234.032 172.488 258.497 168.825 260.102C164.246 262.107 159.667 263.11 155.088 260.102C151.425 257.695 150.17 233.698 150 222" stroke="#4E56C0" stroke-width="3" stroke-linecap="round"/>
<path d="M128.5 260C124.5 260.333 115.2 259.1 110 251.5C104.8 243.9 104.5 226.667 105 219C106.167 206.5 110.5 179.8 118.5 173" stroke="#4E56C0" stroke-width="3" stroke-linecap="round"/>
<path d="M172 260C176 260.333 185.3 259.1 190.5 251.5C195.7 243.9 196 226.667 195.5 219C194.333 206.5 190 179.8 182 173" stroke="#4E56C0" stroke-width="3" stroke-linecap="round"/>
<path d="M145 259.5C146.5 261 152 261 153.5 259.5" stroke="#4E56C0" stroke-width="3" stroke-linecap="round"/>
<mask id="path-9-outside-1_2471_339" maskUnits="userSpaceOnUse" x="69" y="14.9995" width="162" height="164" fill="black">
<rect fill="white" x="69" y="14.9995" width="162" height="164"/>
<path fill-rule="evenodd" clip-rule="evenodd" d="M207.926 20.5791C210.883 17.4382 216.163 19.265 216.547 23.5615L222.93 95.0156C222.942 95.1513 222.947 95.2858 222.948 95.4189C226.213 101.917 228 108.964 228 116.327C228 148.875 193.078 175.261 150 175.261C106.922 175.261 72.0001 148.875 72 116.327C72 108.683 73.9252 101.379 77.4307 94.6767L83.7842 23.5615C84.1683 19.265 89.4484 17.4382 92.4053 20.5791L129.081 59.5371C135.738 58.1402 142.754 57.3935 150 57.3935C157.346 57.3935 164.455 58.1613 171.194 59.5957L207.926 20.5791Z"/>
</mask>
<path fill-rule="evenodd" clip-rule="evenodd" d="M207.926 20.5791C210.883 17.4382 216.163 19.265 216.547 23.5615L222.93 95.0156C222.942 95.1513 222.947 95.2858 222.948 95.4189C226.213 101.917 228 108.964 228 116.327C228 148.875 193.078 175.261 150 175.261C106.922 175.261 72.0001 148.875 72 116.327C72 108.683 73.9252 101.379 77.4307 94.6767L83.7842 23.5615C84.1683 19.265 89.4484 17.4382 92.4053 20.5791L129.081 59.5371C135.738 58.1402 142.754 57.3935 150 57.3935C157.346 57.3935 164.455 58.1613 171.194 59.5957L207.926 20.5791Z" fill="#FFEFDE"/>
<path d="M207.926 20.5791L210.11 22.6355V22.6354L207.926 20.5791ZM216.547 23.5615L219.535 23.2946L219.535 23.2944L216.547 23.5615ZM222.93 95.0156L225.918 94.7487V94.7487L222.93 95.0156ZM222.948 95.4189L219.948 95.4529L219.956 96.1461L220.267 96.7656L222.948 95.4189ZM228 116.327L231 116.327V116.327H228ZM72 116.327H69V116.327L72 116.327ZM77.4307 94.6767L80.089 96.0671L80.3656 95.5382L80.4188 94.9437L77.4307 94.6767ZM83.7842 23.5615L80.7961 23.2944L80.7961 23.2945L83.7842 23.5615ZM92.4053 20.5791L94.5896 18.5227L94.5896 18.5227L92.4053 20.5791ZM129.081 59.5371L126.897 61.5934L128.05 62.8187L129.697 62.4731L129.081 59.5371ZM171.194 59.5957L170.57 62.5299L172.221 62.8814L173.379 61.6521L171.194 59.5957ZM207.926 20.5791L210.11 22.6354C211.293 21.3793 213.405 22.1098 213.559 23.8286L216.547 23.5615L219.535 23.2944C218.92 16.4203 210.473 13.4971 205.741 18.5227L207.926 20.5791ZM216.547 23.5615L213.559 23.8284L219.942 95.2825L222.93 95.0156L225.918 94.7487L219.535 23.2946L216.547 23.5615ZM222.93 95.0156L219.942 95.2825C219.945 95.3167 219.947 95.369 219.948 95.4529L222.948 95.4189L225.948 95.3849C225.946 95.2026 225.939 94.9859 225.918 94.7487L222.93 95.0156ZM222.948 95.4189L220.267 96.7656C223.335 102.872 225 109.461 225 116.327H228H231C231 108.468 229.09 100.961 225.629 94.0722L222.948 95.4189ZM228 116.327L225 116.327C225 131.455 216.892 145.371 203.346 155.606C189.798 165.842 170.948 172.261 150 172.261V175.261V178.261C172.131 178.261 192.28 171.487 206.963 160.393C221.647 149.298 231 133.748 231 116.327L228 116.327ZM150 175.261V172.261C129.052 172.261 110.202 165.842 96.6542 155.606C83.1083 145.371 75 131.455 75 116.327L72 116.327L69 116.327C69 133.748 78.3527 149.298 93.0372 160.393C107.72 171.487 127.869 178.261 150 178.261V175.261ZM72 116.327H75C75 109.199 76.7928 102.369 80.089 96.0671L77.4307 94.6767L74.7723 93.2863C71.0576 100.388 69 108.167 69 116.327H72ZM77.4307 94.6767L80.4188 94.9437L86.7723 23.8284L83.7842 23.5615L80.7961 23.2945L74.4426 94.4098L77.4307 94.6767ZM83.7842 23.5615L86.7723 23.8286C86.9259 22.1098 89.0384 21.3793 90.2209 22.6354L92.4053 20.5791L94.5896 18.5227C89.8584 13.4971 81.4106 16.4203 80.7961 23.2944L83.7842 23.5615ZM92.4053 20.5791L90.2209 22.6354L126.897 61.5934L129.081 59.5371L131.265 57.4807L94.5896 18.5227L92.4053 20.5791ZM129.081 59.5371L129.697 62.4731C136.151 61.119 142.96 60.3935 150 60.3935V57.3935V54.3935C142.548 54.3935 135.326 55.1613 128.465 56.601L129.081 59.5371ZM150 57.3935V60.3935C157.138 60.3935 164.037 61.1395 170.57 62.5299L171.194 59.5957L171.819 56.6614C164.873 55.1831 157.555 54.3935 150 54.3935V57.3935ZM171.194 59.5957L173.379 61.6521L210.11 22.6355L207.926 20.5791L205.741 18.5227L169.01 57.5393L171.194 59.5957Z" fill="#4E56C0" mask="url(#path-9-outside-1_2471_339)"/>
<ellipse cx="109" cy="128" rx="16" ry="19" fill="#C8B9A9"/>
<ellipse cx="110.188" cy="127" rx="15.1875" ry="18" fill="white"/>
<ellipse cx="113" cy="127" rx="12.375" ry="18" fill="#4E56C0"/>
<path d="M113.526 115.087C113.74 114.47 114.564 114.356 114.937 114.892L117.203 118.14C117.35 118.35 117.587 118.477 117.843 118.482L121.803 118.564C122.456 118.577 122.819 119.325 122.425 119.846L120.036 123.005C119.881 123.209 119.834 123.474 119.908 123.719L121.054 127.51C121.243 128.135 120.644 128.711 120.027 128.498L116.284 127.202C116.043 127.118 115.776 127.155 115.566 127.301L112.314 129.563C111.778 129.936 111.045 129.544 111.058 128.891L111.134 124.931C111.139 124.675 111.021 124.433 110.817 124.278L107.661 121.885C107.141 121.49 107.287 120.672 107.912 120.482L111.702 119.331C111.946 119.256 112.141 119.069 112.225 118.828L113.526 115.087Z" fill="white"/>
<path d="M113.643 142.727C108.832 143.116 106.053 138.477 104.756 134.541C104.452 133.616 105.547 133.019 106.286 133.654C111.356 138.01 114.933 137.903 120.072 133.34C120.763 132.727 121.814 133.231 121.606 134.131C120.766 137.774 118.511 142.333 113.643 142.727Z" fill="#C8B9A9"/>
<circle cx="104.562" cy="128.688" r="1.6875" fill="white"/>
<ellipse cx="190" cy="127" rx="16" ry="19" fill="#C8B9A9"/>
<ellipse cx="189.188" cy="126" rx="15.1875" ry="18" fill="white"/>
<ellipse cx="186.375" cy="126" rx="12.375" ry="18" fill="#4E56C0"/>
<path d="M186.901 112.962C187.115 112.345 187.939 112.231 188.312 112.767L190.578 116.015C190.725 116.225 190.962 116.352 191.218 116.357L195.178 116.439C195.831 116.452 196.194 117.2 195.8 117.721L193.411 120.88C193.256 121.084 193.209 121.349 193.283 121.594L194.429 125.385C194.618 126.01 194.019 126.586 193.402 126.373L189.659 125.077C189.418 124.993 189.151 125.03 188.941 125.176L185.689 127.438C185.153 127.811 184.42 127.419 184.433 126.766L184.509 122.806C184.514 122.55 184.396 122.308 184.192 122.153L181.036 119.76C180.516 119.365 180.662 118.547 181.287 118.357L185.077 117.206C185.321 117.131 185.516 116.944 185.6 116.703L186.901 112.962Z" fill="white"/>
<path d="M187.018 140.602C182.207 140.991 179.428 136.352 178.131 132.416C177.827 131.491 178.922 130.894 179.661 131.529C184.731 135.885 188.308 135.778 193.447 131.215C194.138 130.602 195.189 131.106 194.981 132.006C194.141 135.649 191.886 140.208 187.018 140.602Z" fill="#C8B9A9"/>
<circle cx="177.938" cy="126.562" r="1.6875" fill="white"/>
<ellipse cx="150" cy="148" rx="16" ry="10" fill="#C8B9A9"/>
<ellipse cx="150" cy="145" rx="6" ry="3" fill="#4E56C0"/>
<path d="M139 148C143 153.333 147 153.333 150 148" stroke="#4E56C0" stroke-width="3" stroke-linecap="round"/>
<path d="M150 148C154 153.333 158 153.333 161 148" stroke="#4E56C0" stroke-width="3" stroke-linecap="round"/>
<line x1="69.6558" y1="139.674" x2="84.5649" y2="141.323" stroke="#4E56C0" stroke-width="3" stroke-linecap="round"/>
<line x1="72.0238" y1="151.147" x2="86.4322" y2="146.976" stroke="#4E56C0" stroke-width="3" stroke-linecap="round"/>
<line x1="1.5" y1="-1.5" x2="16.5" y2="-1.5" transform="matrix(-0.993942 0.109908 0.109908 0.993942 231.29 141)" stroke="#4E56C0" stroke-width="3" stroke-linecap="round"/>
<line x1="1.5" y1="-1.5" x2="16.5" y2="-1.5" transform="matrix(-0.960565 -0.278055 -0.278055 0.960565 228.29 153.005)" stroke="#4E56C0" stroke-width="3" stroke-linecap="round"/>
<path d="M87 81L90 30L121 62C103.837 66.3033 96.3694 70.4437 87 81Z" fill="#C8B9A9"/>
<path d="M213 81L210 30L179 62C196.163 66.3033 203.631 70.4437 213 81Z" fill="#C8B9A9"/>
</svg>
