<svg width="300" height="300" viewBox="0 0 300 300" fill="none" xmlns="http://www.w3.org/2000/svg">
<path d="M87.1486 231.423C90.8243 239.369 98.8795 240.649 105 239.826V248.723C73.8875 252.183 81.6714 222.031 70.8273 226.974C62.3169 230.853 55.8379 219.414 66.747 216.594C74.3976 214.617 80.5181 217.089 87.1486 231.423Z" fill="#FFEFDE" stroke="#4E56C0" stroke-width="3" stroke-linecap="round"/>
<path d="M104.5 239.5C103.3 215.9 113.667 193.333 119 185L181.5 183C185 187.167 192.7 203.3 195.5 234.5C198.3 265.7 179.333 272.5 169.5 272C163 276 158 273.5 154.5 272C151.7 270.8 149.667 246.5 149 234.5C148.833 245.833 147.8 269.2 145 272C142.2 274.8 132.833 273.167 128.5 272C120.5 271.5 106 269 104.5 239.5Z" fill="#FFEFDE"/>
<path d="M180.131 180H121.131C121.131 180 93.1151 227.923 110.131 249.5C133 278.5 167.5 281 190.631 249.5C206.877 227.375 180.131 180 180.131 180Z" fill="#FFEFDE"/>
<path d="M124.5 234C126.365 246.032 126.512 270.497 130.175 272.102C134.754 274.107 139.333 275.11 143.912 272.102C147.575 269.695 148.83 245.698 149 234" stroke="#4E56C0" stroke-width="3" stroke-linecap="round"/>
<path d="M174.5 234C172.635 246.032 172.488 270.497 168.825 272.102C164.246 274.107 159.667 275.11 155.088 272.102C151.425 269.695 150.17 245.698 150 234" stroke="#4E56C0" stroke-width="3" stroke-linecap="round"/>
<path d="M128.5 272C124.5 272.333 115.2 271.1 110 263.5C104.8 255.9 104.5 238.667 105 231C106.167 218.5 110.5 191.8 118.5 185" stroke="#4E56C0" stroke-width="3" stroke-linecap="round"/>
<path d="M172 272C176 272.333 185.3 271.1 190.5 263.5C195.7 255.9 196 238.667 195.5 231C194.333 218.5 190 191.8 182 185" stroke="#4E56C0" stroke-width="3" stroke-linecap="round"/>
<path d="M145 271.5C146.5 273 152 273 153.5 271.5" stroke="#4E56C0" stroke-width="3" stroke-linecap="round"/>
<mask id="path-9-outside-1_2313_139" maskUnits="userSpaceOnUse" x="69" y="27" width="162" height="164" fill="black">
<rect fill="white" x="69" y="27" width="162" height="164"/>
<path fill-rule="evenodd" clip-rule="evenodd" d="M207.926 32.5796C210.883 29.4387 216.163 31.2653 216.547 35.562L222.93 107.015C222.942 107.151 222.947 107.286 222.948 107.419C226.212 113.917 228 120.964 228 128.327C228 160.875 193.078 187.26 150 187.26C106.922 187.26 72 160.875 72 128.327C72.0001 120.683 73.9252 113.378 77.4307 106.676L83.7842 35.562C84.168 31.2653 89.4483 29.4387 92.4053 32.5796L129.081 71.5376C135.738 70.1407 142.754 69.3941 150 69.3941C157.346 69.3941 164.455 70.1619 171.194 71.5962L207.926 32.5796Z"/>
</mask>
<path fill-rule="evenodd" clip-rule="evenodd" d="M207.926 32.5796C210.883 29.4387 216.163 31.2653 216.547 35.562L222.93 107.015C222.942 107.151 222.947 107.286 222.948 107.419C226.212 113.917 228 120.964 228 128.327C228 160.875 193.078 187.26 150 187.26C106.922 187.26 72 160.875 72 128.327C72.0001 120.683 73.9252 113.378 77.4307 106.676L83.7842 35.562C84.168 31.2653 89.4483 29.4387 92.4053 32.5796L129.081 71.5376C135.738 70.1407 142.754 69.3941 150 69.3941C157.346 69.3941 164.455 70.1619 171.194 71.5962L207.926 32.5796Z" fill="#FFEFDE"/>
<path d="M207.926 32.5796L210.11 34.636V34.636L207.926 32.5796ZM216.547 35.562L219.535 35.2951V35.2951L216.547 35.562ZM222.93 107.015L219.942 107.282V107.282L222.93 107.015ZM222.948 107.419L219.948 107.453L219.956 108.147L220.267 108.766L222.948 107.419ZM228 128.327H231V128.327L228 128.327ZM72 128.327L69 128.327V128.327H72ZM77.4307 106.676L80.089 108.067L80.3656 107.538L80.4188 106.943L77.4307 106.676ZM83.7842 35.562L86.7723 35.829L86.7723 35.829L83.7842 35.562ZM92.4053 32.5796L94.5896 30.5233L94.5896 30.5232L92.4053 32.5796ZM129.081 71.5376L126.897 73.594L128.05 74.8193L129.697 74.4737L129.081 71.5376ZM171.194 71.5962L170.57 74.5305L172.221 74.882L173.379 73.6526L171.194 71.5962ZM207.926 32.5796L210.11 34.636C211.293 33.3795 213.405 34.1105 213.559 35.829L216.547 35.562L219.535 35.2951C218.921 28.4202 210.472 25.4979 205.741 30.5232L207.926 32.5796ZM216.547 35.562L213.559 35.829L219.942 107.282L222.93 107.015L225.918 106.748L219.535 35.2951L216.547 35.562ZM222.93 107.015L219.942 107.282C219.945 107.316 219.947 107.369 219.948 107.453L222.948 107.419L225.948 107.386C225.946 107.204 225.939 106.986 225.918 106.748L222.93 107.015ZM222.948 107.419L220.267 108.766C223.335 114.873 225 121.461 225 128.327L228 128.327L231 128.327C231 120.467 229.09 112.962 225.629 106.073L222.948 107.419ZM228 128.327H225C225 143.454 216.892 157.371 203.346 167.605C189.798 177.841 170.948 184.26 150 184.26V187.26V190.26C172.131 190.26 192.28 183.486 206.963 172.393C221.647 161.298 231 145.747 231 128.327H228ZM150 187.26V184.26C129.052 184.26 110.202 177.841 96.6542 167.605C83.1082 157.371 75 143.454 75 128.327H72H69C69 145.747 78.3527 161.298 93.0372 172.393C107.72 183.486 127.869 190.26 150 190.26V187.26ZM72 128.327L75 128.327C75.0001 121.199 76.7928 114.369 80.089 108.067L77.4307 106.676L74.7723 105.286C71.0576 112.388 69.0001 120.167 69 128.327L72 128.327ZM77.4307 106.676L80.4188 106.943L86.7723 35.829L83.7842 35.562L80.7961 35.2951L74.4426 106.409L77.4307 106.676ZM83.7842 35.562L86.7723 35.829C86.9258 34.1105 89.0381 33.3795 90.2209 34.636L92.4053 32.5796L94.5896 30.5232C89.8586 25.4979 81.4102 28.4202 80.7961 35.2951L83.7842 35.562ZM92.4053 32.5796L90.2209 34.636L126.897 73.594L129.081 71.5376L131.265 69.4813L94.5896 30.5233L92.4053 32.5796ZM129.081 71.5376L129.697 74.4737C136.151 73.1196 142.959 72.3941 150 72.3941V69.3941V66.3941C142.548 66.3941 135.326 67.1619 128.465 68.6016L129.081 71.5376ZM150 69.3941V72.3941C157.138 72.3941 164.037 73.1401 170.57 74.5305L171.194 71.5962L171.819 68.662C164.873 67.1836 157.555 66.3941 150 66.3941V69.3941ZM171.194 71.5962L173.379 73.6526L210.11 34.636L207.926 32.5796L205.741 30.5232L169.01 69.5398L171.194 71.5962Z" fill="#4E56C0" mask="url(#path-9-outside-1_2313_139)"/>
<ellipse cx="109" cy="140" rx="16" ry="19" fill="#C8B9A9"/>
<ellipse cx="110.188" cy="139" rx="15.1875" ry="18" fill="white"/>
<ellipse cx="113" cy="139" rx="12.375" ry="18" fill="#4E56C0"/>
<path d="M113.526 127.087C113.74 126.47 114.564 126.356 114.937 126.892L117.203 130.14C117.35 130.35 117.587 130.477 117.843 130.482L121.803 130.564C122.456 130.577 122.819 131.325 122.425 131.846L120.036 135.005C119.881 135.209 119.834 135.474 119.908 135.719L121.054 139.51C121.243 140.135 120.644 140.711 120.027 140.498L116.284 139.202C116.043 139.118 115.776 139.155 115.566 139.301L112.314 141.563C111.778 141.936 111.045 141.544 111.058 140.891L111.134 136.931C111.139 136.675 111.021 136.433 110.817 136.278L107.661 133.885C107.141 133.49 107.287 132.672 107.912 132.482L111.702 131.331C111.946 131.256 112.141 131.069 112.225 130.828L113.526 127.087Z" fill="white"/>
<path d="M113.643 154.727C108.832 155.116 106.053 150.477 104.756 146.541C104.452 145.616 105.547 145.019 106.286 145.654C111.356 150.01 114.933 149.903 120.072 145.34C120.763 144.727 121.814 145.231 121.606 146.131C120.766 149.774 118.511 154.334 113.643 154.727Z" fill="#C8B9A9"/>
<circle cx="104.562" cy="140.688" r="1.6875" fill="white"/>
<ellipse cx="190" cy="139" rx="16" ry="19" fill="#C8B9A9"/>
<ellipse cx="189.188" cy="138" rx="15.1875" ry="18" fill="white"/>
<ellipse cx="186.375" cy="138" rx="12.375" ry="18" fill="#4E56C0"/>
<path d="M186.901 124.962C187.115 124.345 187.939 124.231 188.312 124.767L190.578 128.015C190.725 128.225 190.962 128.352 191.218 128.357L195.178 128.439C195.831 128.452 196.194 129.2 195.8 129.721L193.411 132.88C193.256 133.084 193.209 133.349 193.283 133.594L194.429 137.385C194.618 138.01 194.019 138.586 193.402 138.373L189.659 137.077C189.418 136.993 189.151 137.03 188.941 137.176L185.689 139.438C185.153 139.811 184.42 139.419 184.433 138.766L184.509 134.806C184.514 134.55 184.396 134.308 184.192 134.153L181.036 131.76C180.516 131.365 180.662 130.547 181.287 130.357L185.077 129.206C185.321 129.131 185.516 128.944 185.6 128.703L186.901 124.962Z" fill="white"/>
<path d="M187.018 152.602C182.207 152.991 179.428 148.352 178.131 144.416C177.827 143.491 178.922 142.894 179.661 143.529C184.731 147.885 188.308 147.778 193.447 143.215C194.138 142.602 195.189 143.106 194.981 144.006C194.141 147.649 191.886 152.209 187.018 152.602Z" fill="#C8B9A9"/>
<circle cx="177.938" cy="138.563" r="1.6875" fill="white"/>
<ellipse cx="150" cy="157" rx="6" ry="3" fill="#4E56C0"/>
<path d="M139 160C143 165.333 147 165.333 150 160" stroke="#4E56C0" stroke-width="3" stroke-linecap="round"/>
<path d="M150 160C154 165.333 158 165.333 161 160" stroke="#4E56C0" stroke-width="3" stroke-linecap="round"/>
<line x1="69.6558" y1="151.674" x2="84.5649" y2="153.323" stroke="#4E56C0" stroke-width="3" stroke-linecap="round"/>
<line x1="72.0238" y1="163.147" x2="86.4322" y2="158.976" stroke="#4E56C0" stroke-width="3" stroke-linecap="round"/>
<line x1="1.5" y1="-1.5" x2="16.5" y2="-1.5" transform="matrix(-0.993942 0.109908 0.109908 0.993942 231.29 153)" stroke="#4E56C0" stroke-width="3" stroke-linecap="round"/>
<line x1="1.5" y1="-1.5" x2="16.5" y2="-1.5" transform="matrix(-0.960565 -0.278055 -0.278055 0.960565 228.29 165.005)" stroke="#4E56C0" stroke-width="3" stroke-linecap="round"/>
<path d="M87 93L90 42L121 74C103.837 78.3033 96.3694 82.4437 87 93Z" fill="#C8B9A9"/>
<path d="M213 93L210 42L179 74C196.163 78.3033 203.631 82.4437 213 93Z" fill="#C8B9A9"/>
</svg>
