<svg width="300" height="300" viewBox="0 0 300 300" fill="none" xmlns="http://www.w3.org/2000/svg">
<path d="M103.189 258.5C101.589 256.9 110.523 252.833 115.189 251L133.689 256.5C134.523 258.833 135.689 263.9 133.689 265.5C132.189 266.7 127.189 262.167 125.189 259.5C123.189 261.5 120.089 266.4 117.689 268C115.289 269.6 115.689 262.5 115.189 258.5C111.856 259.167 104.789 260.1 103.189 258.5Z" fill="#F9C597" stroke="#4E56C0" stroke-width="3"/>
<path d="M196.604 257.5C198.204 255.9 189.271 251.833 184.604 250L166.104 255.5C165.271 257.833 164.104 262.9 166.104 264.5C167.604 265.7 172.604 261.167 174.604 258.5C176.604 260.5 179.704 265.4 182.104 267C184.504 268.6 184.104 261.5 184.604 257.5C187.938 258.167 195.004 259.1 196.604 257.5Z" fill="#F9C597" stroke="#4E56C0" stroke-width="3"/>
<path d="M150 136.5C184.552 136.5 212.5 163.844 212.5 197.5C212.5 231.156 184.552 258.5 150 258.5C115.448 258.5 87.5 231.156 87.5 197.5C87.5 163.844 115.448 136.5 150 136.5Z" fill="#FFE9AD" stroke="#4E56C0" stroke-width="3"/>
<path d="M100.589 157.594C106.358 158.283 111.623 159.161 115.133 161.289C116.917 162.371 118.172 163.734 118.829 165.517C119.492 167.318 119.61 169.723 118.782 172.994C117.394 178.478 116.194 186.96 114.863 196.074C113.524 205.242 112.045 215.116 110.099 223.54C109.126 227.751 108.045 231.562 106.821 234.719C105.587 237.901 104.254 240.298 102.835 241.785C101.461 243.226 100.132 243.703 98.7114 243.422C97.1508 243.113 95.1258 241.828 92.6196 238.852C80.9209 224.96 79.9513 208.635 83.4858 193.612C86.9275 178.985 94.6155 165.744 100.589 157.594Z" fill="#FFE9AD" stroke="#4E56C0" stroke-width="3"/>
<path d="M200.767 157.586C198.023 157.894 195.45 158.148 193.073 158.551C190.454 158.995 188.243 159.599 186.515 160.565C184.831 161.508 183.605 162.793 182.905 164.677C182.191 166.598 181.977 169.274 182.599 173.066C183.979 178.552 185.175 187 186.5 196.074C187.838 205.242 189.317 215.116 191.263 223.54C192.236 227.751 193.318 231.562 194.542 234.719C195.775 237.901 197.108 240.298 198.527 241.785C199.901 243.226 201.23 243.703 202.651 243.422C204.212 243.113 206.236 241.828 208.743 238.852C220.441 224.96 221.411 208.635 217.876 193.612C214.434 178.98 206.742 165.735 200.767 157.586Z" fill="#FFE9AD" stroke="#4E56C0" stroke-width="3"/>
<path d="M151.5 43.9258C171.764 43.9258 190.23 54.705 203.678 70.3232C217.13 85.9469 225.405 106.24 225.405 124.939C225.405 143.468 216.893 155.85 203.292 163.69C189.579 171.595 170.63 174.905 149.905 174.905C129.177 174.905 111.046 171.594 98.1475 163.712C85.3686 155.903 77.5948 143.534 77.5947 124.939C77.5947 106.24 85.8697 85.9469 99.3223 70.3232C112.77 54.705 131.236 43.9258 151.5 43.9258Z" fill="#FFE9AD" stroke="#4E56C0" stroke-width="3.19014"/>
<ellipse cx="109.164" cy="126.338" rx="16.1501" ry="19.1408" fill="white"/>
<ellipse cx="112.155" cy="126.338" rx="13.1593" ry="19.1408" fill="#4E56C0"/>
<path d="M112.714 113.67C112.942 113.014 113.818 112.893 114.215 113.463L116.625 116.917C116.78 117.14 117.033 117.275 117.305 117.281L121.516 117.367C122.21 117.381 122.596 118.177 122.177 118.731L119.637 122.09C119.473 122.307 119.422 122.589 119.501 122.849L120.72 126.88C120.921 127.545 120.284 128.158 119.627 127.931L115.648 126.552C115.391 126.464 115.107 126.503 114.883 126.658L111.426 129.063C110.856 129.46 110.076 129.043 110.09 128.349L110.17 124.138C110.176 123.866 110.051 123.608 109.834 123.444L106.478 120.899C105.925 120.479 106.08 119.609 106.745 119.407L110.775 118.183C111.035 118.104 111.241 117.905 111.331 117.648L112.714 113.67Z" fill="white"/>
<path d="M112.839 143.062C107.723 143.476 104.768 138.543 103.389 134.357C103.065 133.373 104.23 132.738 105.016 133.414C110.406 138.046 114.211 137.932 119.676 133.08C120.41 132.428 121.528 132.964 121.307 133.921C120.413 137.795 118.015 142.643 112.839 143.062Z" fill="#A485D9"/>
<circle cx="103.183" cy="128.133" r="1.79445" fill="white"/>
<ellipse cx="193.171" cy="125.275" rx="16.1501" ry="19.1408" fill="white"/>
<ellipse cx="190.18" cy="125.275" rx="13.1593" ry="19.1408" fill="#4E56C0"/>
<path d="M190.739 111.41C190.967 110.754 191.843 110.633 192.24 111.203L194.65 114.657C194.806 114.88 195.058 115.015 195.33 115.021L199.541 115.107C200.236 115.121 200.621 115.917 200.202 116.471L197.662 119.83C197.498 120.047 197.447 120.329 197.526 120.589L198.745 124.621C198.946 125.286 198.309 125.898 197.653 125.671L193.673 124.293C193.416 124.204 193.132 124.243 192.908 124.398L189.451 126.804C188.881 127.2 188.101 126.783 188.115 126.089L188.196 121.878C188.201 121.606 188.076 121.348 187.859 121.184L184.503 118.639C183.95 118.219 184.105 117.349 184.77 117.147L188.8 115.923C189.06 115.844 189.267 115.645 189.356 115.388L190.739 111.41Z" fill="white"/>
<path d="M190.864 140.802C185.748 141.216 182.793 136.283 181.414 132.098C181.09 131.114 182.255 130.479 183.041 131.154C188.432 135.786 192.236 135.673 197.701 130.82C198.435 130.168 199.553 130.704 199.332 131.662C198.438 135.535 196.041 140.384 190.864 140.802Z" fill="#A485D9"/>
<circle cx="181.208" cy="125.873" r="1.79445" fill="white"/>
<path d="M150.754 156L137.111 147.152C136.59 146.815 137.21 146.258 137.802 146.443C147.843 149.578 155.022 149.519 165.178 146.438C165.781 146.255 166.41 146.832 165.874 147.162L151.472 156.01C151.243 156.151 150.981 156.147 150.754 156Z" fill="#F9C597" stroke="#4E56C0" stroke-width="2.65845"/>
<path d="M150.716 134.985L137.072 145.012C136.961 145.094 136.871 145.199 136.801 145.32C136.569 145.719 136.911 146.16 137.35 146.3C147.782 149.628 155.085 149.564 165.641 146.296C166.084 146.159 166.432 145.714 166.196 145.314C166.123 145.189 166.028 145.081 165.911 145L151.51 134.973C151.26 134.798 150.964 134.803 150.716 134.985Z" fill="#F9C597" stroke="#4E56C0" stroke-width="2.65845"/>
<path d="M146.183 62.5127C150.082 61.2721 157.88 57.5149 157.88 52.4106C157.88 46.6897 162.155 58.0679 161.122 62.7804C161.07 63.0202 161.555 63.4305 161.759 63.2944L166.37 60.22C166.542 60.1055 166.755 60.2751 166.673 60.4649C165.404 63.43 162.243 68.3613 157.88 68.3613" stroke="#4E56C0" stroke-width="3.19014" stroke-linecap="round"/>
</svg>
